G04 #@! TF.FileFunction,Copper,L2,Bot,Signal*
%FSLAX46Y46*%
G04 Gerber Fmt 4.6, Leading zero omitted, Abs format (unit mm)*
G04 Created by KiCad (PCBNEW 4.0.6) date 07/13/17 10:05:15*
%MOMM*%
%LPD*%
G01*
G04 APERTURE LIST*
%ADD10C,0.100000*%
%ADD11R,1.778000X1.778000*%
%ADD12C,1.778000*%
%ADD13C,2.000000*%
%ADD14R,1.397000X1.397000*%
%ADD15C,1.397000*%
%ADD16R,2.000000X1.524000*%
%ADD17O,2.000000X1.524000*%
%ADD18C,0.300000*%
G04 APERTURE END LIST*
D10*
D11*
X162960000Y-79500000D03*
D12*
X165500000Y-79500000D03*
X168040000Y-79500000D03*
D13*
X133500000Y-130000000D03*
X133500000Y-125500000D03*
X140000000Y-130000000D03*
X140000000Y-125500000D03*
D14*
X160960000Y-130000000D03*
D15*
X163500000Y-130000000D03*
X166040000Y-130000000D03*
D16*
X178500000Y-79000000D03*
D17*
X181040000Y-79000000D03*
X178500000Y-91700000D03*
X181040000Y-81540000D03*
X178500000Y-94240000D03*
X181040000Y-84080000D03*
X178500000Y-96780000D03*
X181040000Y-86620000D03*
X178500000Y-99320000D03*
X181040000Y-89160000D03*
X178500000Y-101860000D03*
X181040000Y-91700000D03*
X178500000Y-104400000D03*
X181040000Y-94240000D03*
X178500000Y-106940000D03*
X181040000Y-96780000D03*
X178500000Y-109480000D03*
X181040000Y-99320000D03*
X178500000Y-112020000D03*
X181040000Y-101860000D03*
X178500000Y-114560000D03*
X181040000Y-104400000D03*
X178500000Y-117100000D03*
X181040000Y-106940000D03*
X181040000Y-109480000D03*
X178500000Y-119640000D03*
X181040000Y-112020000D03*
X181040000Y-117100000D03*
X181040000Y-119640000D03*
X181040000Y-122180000D03*
X181040000Y-124720000D03*
X178500000Y-122180000D03*
X178500000Y-124720000D03*
X178500000Y-81540000D03*
X178500000Y-84080000D03*
X178500000Y-86620000D03*
X178500000Y-89160000D03*
X178500000Y-127260000D03*
X181040000Y-127260000D03*
X181040000Y-114560000D03*
D18*
X168867700Y-80327700D02*
X168040000Y-79500000D01*
X181040000Y-80327700D02*
X168867700Y-80327700D01*
X181040000Y-81540000D02*
X181040000Y-80327700D01*
X178327500Y-131184800D02*
X181040000Y-128472300D01*
X164684800Y-131184800D02*
X178327500Y-131184800D01*
X163500000Y-130000000D02*
X164684800Y-131184800D01*
X181040000Y-127260000D02*
X181040000Y-128472300D01*
X162960000Y-90869600D02*
X162960000Y-79500000D01*
X177818100Y-105727700D02*
X162960000Y-90869600D01*
X178500000Y-105727700D02*
X177818100Y-105727700D01*
X178500000Y-106940000D02*
X178500000Y-105727700D01*
M02*
