G04 #@! TF.FileFunction,Copper,L1,Top,Signal*
%FSLAX46Y46*%
G04 Gerber Fmt 4.6, Leading zero omitted, Abs format (unit mm)*
G04 Created by KiCad (PCBNEW 4.0.6) date 07/13/17 10:05:15*
%MOMM*%
%LPD*%
G01*
G04 APERTURE LIST*
%ADD10C,0.100000*%
%ADD11R,0.750000X1.200000*%
%ADD12R,1.200000X0.750000*%
%ADD13R,0.600000X0.700000*%
%ADD14R,0.700000X0.600000*%
%ADD15R,1.778000X1.778000*%
%ADD16C,1.778000*%
%ADD17C,2.000000*%
%ADD18R,1.397000X1.397000*%
%ADD19C,1.397000*%
%ADD20O,2.500000X0.900000*%
%ADD21O,0.900000X2.500000*%
%ADD22R,6.000000X6.000000*%
%ADD23R,2.000000X1.524000*%
%ADD24O,2.000000X1.524000*%
%ADD25C,1.000000*%
%ADD26R,1.300000X1.500000*%
%ADD27R,1.500000X1.300000*%
%ADD28C,0.300000*%
G04 APERTURE END LIST*
D10*
D11*
X133000000Y-88950000D03*
X133000000Y-87050000D03*
X133000000Y-93050000D03*
X133000000Y-94950000D03*
D12*
X132550000Y-120000000D03*
X134450000Y-120000000D03*
X136550000Y-115500000D03*
X138450000Y-115500000D03*
X164550000Y-118000000D03*
X166450000Y-118000000D03*
D13*
X152550000Y-79500000D03*
X151450000Y-79500000D03*
D14*
X169000000Y-86550000D03*
X169000000Y-85450000D03*
X162500000Y-86550000D03*
X162500000Y-85450000D03*
D15*
X162960000Y-79500000D03*
D16*
X165500000Y-79500000D03*
X168040000Y-79500000D03*
D17*
X133500000Y-130000000D03*
X133500000Y-125500000D03*
X140000000Y-130000000D03*
X140000000Y-125500000D03*
D18*
X160960000Y-130000000D03*
D19*
X163500000Y-130000000D03*
X166040000Y-130000000D03*
D20*
X156000000Y-93750000D03*
X156000000Y-95020000D03*
X156000000Y-96290000D03*
X156000000Y-97560000D03*
X156000000Y-98830000D03*
X156000000Y-100100000D03*
X156000000Y-101370000D03*
X156000000Y-102640000D03*
X156000000Y-103910000D03*
X156000000Y-105180000D03*
X156000000Y-106450000D03*
X156000000Y-107720000D03*
X156000000Y-108990000D03*
X156000000Y-110260000D03*
D21*
X152715000Y-111750000D03*
X151445000Y-111750000D03*
X150175000Y-111750000D03*
X148905000Y-111750000D03*
X147635000Y-111750000D03*
X146365000Y-111750000D03*
X145095000Y-111750000D03*
X143825000Y-111750000D03*
X142555000Y-111750000D03*
X141285000Y-111750000D03*
D20*
X138000000Y-110260000D03*
X138000000Y-108990000D03*
X138000000Y-107720000D03*
X138000000Y-106450000D03*
X138000000Y-105180000D03*
X138000000Y-103910000D03*
X138000000Y-102640000D03*
X138000000Y-101370000D03*
X138000000Y-100100000D03*
X138000000Y-98830000D03*
X138000000Y-97560000D03*
X138000000Y-96290000D03*
X138000000Y-95020000D03*
X138000000Y-93750000D03*
D22*
X146700000Y-101450000D03*
D23*
X178500000Y-79000000D03*
D24*
X181040000Y-79000000D03*
X178500000Y-91700000D03*
X181040000Y-81540000D03*
X178500000Y-94240000D03*
X181040000Y-84080000D03*
X178500000Y-96780000D03*
X181040000Y-86620000D03*
X178500000Y-99320000D03*
X181040000Y-89160000D03*
X178500000Y-101860000D03*
X181040000Y-91700000D03*
X178500000Y-104400000D03*
X181040000Y-94240000D03*
X178500000Y-106940000D03*
X181040000Y-96780000D03*
X178500000Y-109480000D03*
X181040000Y-99320000D03*
X178500000Y-112020000D03*
X181040000Y-101860000D03*
X178500000Y-114560000D03*
X181040000Y-104400000D03*
X178500000Y-117100000D03*
X181040000Y-106940000D03*
X181040000Y-109480000D03*
X178500000Y-119640000D03*
X181040000Y-112020000D03*
X181040000Y-117100000D03*
X181040000Y-119640000D03*
X181040000Y-122180000D03*
X181040000Y-124720000D03*
X178500000Y-122180000D03*
X178500000Y-124720000D03*
X178500000Y-81540000D03*
X178500000Y-84080000D03*
X178500000Y-86620000D03*
X178500000Y-89160000D03*
X178500000Y-127260000D03*
X181040000Y-127260000D03*
X181040000Y-114560000D03*
D25*
X157200000Y-130900000D03*
X131200000Y-101000000D03*
X171800000Y-76500000D03*
D26*
X133000000Y-78150000D03*
X133000000Y-80850000D03*
X145000000Y-80850000D03*
X145000000Y-78150000D03*
X133000000Y-109850000D03*
X133000000Y-107150000D03*
X162500000Y-92650000D03*
X162500000Y-95350000D03*
X168000000Y-92650000D03*
X168000000Y-95350000D03*
D27*
X166850000Y-111000000D03*
X164150000Y-111000000D03*
X164150000Y-105000000D03*
X166850000Y-105000000D03*
D26*
X159000000Y-120350000D03*
X159000000Y-117650000D03*
D28*
X131874600Y-97349600D02*
X131874600Y-97374600D01*
X131874600Y-97349600D02*
X131874600Y-93762800D01*
X132587400Y-93050000D02*
X131874600Y-93762800D01*
X131899600Y-108165400D02*
X131899600Y-104925000D01*
X132383800Y-108649600D02*
X131899600Y-108165400D01*
X133836400Y-108649600D02*
X132383800Y-108649600D01*
X134100300Y-108913500D02*
X133836400Y-108649600D01*
X134100300Y-114925800D02*
X134100300Y-108913500D01*
X134100300Y-114925800D02*
X135499800Y-116325300D01*
X133600000Y-103224600D02*
X131899600Y-104925000D01*
X133600000Y-99100000D02*
X133600000Y-103224600D01*
X131874600Y-97374600D02*
X133600000Y-99100000D01*
X181040000Y-117100000D02*
X181040000Y-114560000D01*
X181040000Y-114560000D02*
X181040000Y-112020000D01*
X181040000Y-112020000D02*
X181040000Y-109480000D01*
X181040000Y-109480000D02*
X181040000Y-106940000D01*
X181040000Y-106940000D02*
X181040000Y-104400000D01*
X134450000Y-120000000D02*
X134450000Y-119174700D01*
X135499800Y-116325300D02*
X134450000Y-117375100D01*
X134450000Y-117375100D02*
X134450000Y-119174700D01*
X135599700Y-93050000D02*
X136299700Y-93750000D01*
X133000000Y-93050000D02*
X135599700Y-93050000D01*
X138000000Y-93750000D02*
X136299700Y-93750000D01*
X135400000Y-125500000D02*
X134450000Y-124550000D01*
X140000000Y-125500000D02*
X135400000Y-125500000D01*
X133500000Y-125500000D02*
X134450000Y-124550000D01*
X134450000Y-124550000D02*
X134450000Y-120000000D01*
X151450000Y-79500000D02*
X151450000Y-80300300D01*
X164550000Y-118000000D02*
X164550000Y-118825300D01*
X163500000Y-120824700D02*
X163025300Y-120350000D01*
X163500000Y-130000000D02*
X163500000Y-120824700D01*
X163025300Y-120350000D02*
X164550000Y-118825300D01*
X159000000Y-120350000D02*
X163025300Y-120350000D01*
X152749700Y-125500000D02*
X140000000Y-125500000D01*
X157899700Y-120350000D02*
X152749700Y-125500000D01*
X159000000Y-120350000D02*
X157899700Y-120350000D01*
X133000000Y-93050000D02*
X132587400Y-93050000D01*
X133000000Y-92637400D02*
X133000000Y-88950000D01*
X132587400Y-93050000D02*
X133000000Y-92637400D01*
X169000000Y-85450000D02*
X169000000Y-84699700D01*
X166329700Y-85450000D02*
X168040000Y-83739700D01*
X162500000Y-85450000D02*
X166329700Y-85450000D01*
X168040000Y-79500000D02*
X168040000Y-83739700D01*
X168040000Y-83739700D02*
X169000000Y-84699700D01*
X155149900Y-93750000D02*
X155149900Y-80300300D01*
X151450000Y-80300300D02*
X155149900Y-80300300D01*
X166693300Y-78153300D02*
X168040000Y-79500000D01*
X157296900Y-78153300D02*
X166693300Y-78153300D01*
X155149900Y-80300300D02*
X157296900Y-78153300D01*
X181040000Y-101860000D02*
X181040000Y-104400000D01*
X141550600Y-110049700D02*
X146700000Y-104900300D01*
X141285000Y-110049700D02*
X141550600Y-110049700D01*
X146700000Y-101450000D02*
X146700000Y-104900300D01*
X141285000Y-111750000D02*
X141285000Y-110049700D01*
X156000000Y-93750000D02*
X155385600Y-93750000D01*
X155385600Y-93750000D02*
X155149900Y-93750000D01*
X150150300Y-98749600D02*
X150150300Y-101450000D01*
X155149900Y-93750000D02*
X150150300Y-98749600D01*
X146700000Y-101450000D02*
X150150300Y-101450000D01*
X181040000Y-117100000D02*
X181040000Y-118312300D01*
X181040000Y-127260000D02*
X181040000Y-124720000D01*
X181687800Y-118312300D02*
X181040000Y-118312300D01*
X182520500Y-119145000D02*
X181687800Y-118312300D01*
X182520500Y-122709100D02*
X182520500Y-119145000D01*
X181721900Y-123507700D02*
X182520500Y-122709100D01*
X181040000Y-123507700D02*
X181721900Y-123507700D01*
X181040000Y-124720000D02*
X181040000Y-123507700D01*
X138037300Y-116325300D02*
X135499800Y-116325300D01*
X138450000Y-115912600D02*
X138037300Y-116325300D01*
X138450000Y-115500000D02*
X138450000Y-115912600D01*
X140912300Y-113450300D02*
X141285000Y-113450300D01*
X138450000Y-115912600D02*
X140912300Y-113450300D01*
X141285000Y-111750000D02*
X141285000Y-113450300D01*
X132550000Y-120000000D02*
X132550000Y-120825300D01*
X132003200Y-128503200D02*
X133500000Y-130000000D01*
X132003200Y-121372100D02*
X132003200Y-128503200D01*
X132550000Y-120825300D02*
X132003200Y-121372100D01*
X133500000Y-130000000D02*
X140000000Y-130000000D01*
X132550000Y-111500300D02*
X132550000Y-120000000D01*
X133000000Y-111050300D02*
X132550000Y-111500300D01*
X133000000Y-109850000D02*
X133000000Y-111050300D01*
X146100300Y-89890000D02*
X146100300Y-78150000D01*
X139700300Y-96290000D02*
X146100300Y-89890000D01*
X138000000Y-96290000D02*
X139700300Y-96290000D01*
X145000000Y-78150000D02*
X146100300Y-78150000D01*
X134700000Y-98489400D02*
X136299700Y-96290000D01*
X134700000Y-107150000D02*
X134700000Y-98489400D01*
X138000000Y-96290000D02*
X136299700Y-96290000D01*
X133000000Y-107150000D02*
X133950200Y-107150000D01*
X133950200Y-107150000D02*
X134700000Y-107150000D01*
X136550000Y-115500000D02*
X136550000Y-114674700D01*
X134700600Y-107750300D02*
X134700000Y-107150000D01*
X134700600Y-112825300D02*
X134700600Y-107750300D01*
X136550000Y-114674700D02*
X134700600Y-112825300D01*
X166850000Y-111000000D02*
X166850000Y-112100300D01*
X166450000Y-112500300D02*
X166450000Y-118000000D01*
X166850000Y-112100300D02*
X166450000Y-112500300D01*
X166450000Y-129590000D02*
X166040000Y-130000000D01*
X166450000Y-118000000D02*
X166450000Y-129590000D01*
X150799900Y-76949600D02*
X152550000Y-78699700D01*
X135300700Y-76949600D02*
X150799900Y-76949600D01*
X134100300Y-78150000D02*
X135300700Y-76949600D01*
X133000000Y-78150000D02*
X134100300Y-78150000D01*
X152550000Y-79500000D02*
X152550000Y-78699700D01*
X166235800Y-90064500D02*
X169000000Y-87300300D01*
X166235800Y-94686100D02*
X166235800Y-90064500D01*
X166899700Y-95350000D02*
X166235800Y-94686100D01*
X168000000Y-95350000D02*
X166899700Y-95350000D01*
X169000000Y-86550000D02*
X169000000Y-87300300D01*
X163600300Y-88400600D02*
X162500000Y-87300300D01*
X163600300Y-95350000D02*
X163600300Y-88400600D01*
X162500000Y-95350000D02*
X163600300Y-95350000D01*
X162500000Y-86550000D02*
X162500000Y-87300300D01*
X178500000Y-106940000D02*
X178500000Y-105727700D01*
X168000000Y-92650000D02*
X169100300Y-92650000D01*
X169700600Y-93250300D02*
X169100300Y-92650000D01*
X169700600Y-97576100D02*
X169700600Y-93250300D01*
X177852200Y-105727700D02*
X169700600Y-97576100D01*
X178500000Y-105727700D02*
X177852200Y-105727700D01*
X156915500Y-97560000D02*
X156000000Y-97560000D01*
X159116500Y-95359000D02*
X156915500Y-97560000D01*
X159116500Y-84682800D02*
X159116500Y-95359000D01*
X162960000Y-80839300D02*
X159116500Y-84682800D01*
X162960000Y-79500000D02*
X162960000Y-80839300D01*
X157700300Y-98073400D02*
X157700300Y-98830000D01*
X161923400Y-93850300D02*
X157700300Y-98073400D01*
X162500000Y-93850300D02*
X161923400Y-93850300D01*
X156000000Y-98830000D02*
X157700300Y-98830000D01*
X157700300Y-100629100D02*
X157700300Y-98830000D01*
X163171600Y-106100400D02*
X157700300Y-100629100D01*
X165087200Y-106100400D02*
X163171600Y-106100400D01*
X165649600Y-105538000D02*
X165087200Y-106100400D01*
X165649600Y-104137100D02*
X165649600Y-105538000D01*
X165887100Y-103899600D02*
X165649600Y-104137100D01*
X172919600Y-103899600D02*
X165887100Y-103899600D01*
X177287700Y-108267700D02*
X172919600Y-103899600D01*
X178500000Y-108267700D02*
X177287700Y-108267700D01*
X178500000Y-109480000D02*
X178500000Y-108267700D01*
X162500000Y-93250100D02*
X162500000Y-93850300D01*
X162500000Y-93250100D02*
X162500000Y-92650000D01*
X161699600Y-83300400D02*
X165500000Y-79500000D01*
X161699600Y-90649300D02*
X161699600Y-83300400D01*
X162500000Y-91449700D02*
X161699600Y-90649300D01*
X162500000Y-92650000D02*
X162500000Y-91449700D01*
X178500000Y-79000000D02*
X178500000Y-80212300D01*
X133895300Y-95020000D02*
X133825300Y-94950000D01*
X138000000Y-95020000D02*
X133895300Y-95020000D01*
X133000000Y-94950000D02*
X133825300Y-94950000D01*
X138000000Y-95020000D02*
X139700300Y-95020000D01*
X139700300Y-92925000D02*
X139700300Y-95020000D01*
X133825300Y-87050000D02*
X139700300Y-92925000D01*
X133000000Y-87050000D02*
X133825300Y-87050000D01*
X133000000Y-80850000D02*
X132449900Y-80850000D01*
X132449900Y-80850000D02*
X131899700Y-80850000D01*
X145000000Y-80850000D02*
X143899700Y-80850000D01*
X143349600Y-81400100D02*
X143899700Y-80850000D01*
X133000000Y-81400100D02*
X143349600Y-81400100D01*
X133000000Y-87050000D02*
X133000000Y-81400100D01*
X133000000Y-81400100D02*
X132449900Y-80850000D01*
X178500000Y-80212300D02*
X169849800Y-80212300D01*
X169849800Y-79357100D02*
X169849800Y-80212300D01*
X166796100Y-76303400D02*
X169849800Y-79357100D01*
X132784200Y-76303400D02*
X166796100Y-76303400D01*
X131899700Y-77187900D02*
X132784200Y-76303400D01*
X131899700Y-80850000D02*
X131899700Y-77187900D01*
X164150000Y-101236800D02*
X164150000Y-105000000D01*
X169100300Y-96286500D02*
X164150000Y-101236800D01*
X169100300Y-94342100D02*
X169100300Y-96286500D01*
X168758200Y-94000000D02*
X169100300Y-94342100D01*
X167275500Y-94000000D02*
X168758200Y-94000000D01*
X166899700Y-93624200D02*
X167275500Y-94000000D01*
X166899700Y-90937300D02*
X166899700Y-93624200D01*
X169849800Y-87987200D02*
X166899700Y-90937300D01*
X169849800Y-80212300D02*
X169849800Y-87987200D01*
X166850000Y-105000000D02*
X166850000Y-106100300D01*
X156000000Y-110260000D02*
X157700300Y-110260000D01*
X164150000Y-110260000D02*
X157700300Y-110260000D01*
X164150000Y-108800300D02*
X164150000Y-110260000D01*
X166850000Y-106100300D02*
X164150000Y-108800300D01*
X164150000Y-110260000D02*
X164150000Y-111000000D01*
X153700000Y-113450300D02*
X152715000Y-113450300D01*
X157899700Y-117650000D02*
X153700000Y-113450300D01*
X159000000Y-117650000D02*
X157899700Y-117650000D01*
X152715000Y-111750000D02*
X152715000Y-113450300D01*
M02*
