G04 #@! TF.FileFunction,Copper,L1,Top,Signal*
%FSLAX46Y46*%
G04 Gerber Fmt 4.6, Leading zero omitted, Abs format (unit mm)*
G04 Created by KiCad (PCBNEW 4.0.6) date 08/10/17 20:33:06*
%MOMM*%
%LPD*%
G01*
G04 APERTURE LIST*
%ADD10C,0.100000*%
%ADD11R,1.200000X0.750000*%
%ADD12R,0.750000X1.200000*%
%ADD13R,1.778000X1.778000*%
%ADD14C,1.778000*%
%ADD15C,2.000000*%
%ADD16R,1.397000X1.397000*%
%ADD17C,1.397000*%
%ADD18O,2.500000X0.900000*%
%ADD19O,0.900000X2.500000*%
%ADD20R,6.000000X6.000000*%
%ADD21R,2.000000X1.524000*%
%ADD22O,2.000000X1.524000*%
%ADD23C,1.000000*%
%ADD24R,1.500000X1.300000*%
%ADD25R,1.300000X1.500000*%
%ADD26R,1.200000X1.200000*%
%ADD27C,1.270000*%
%ADD28C,0.300000*%
G04 APERTURE END LIST*
D10*
D11*
X140650000Y-109220000D03*
X138750000Y-109220000D03*
X140650000Y-105410000D03*
X138750000Y-105410000D03*
D12*
X147701000Y-114239000D03*
X147701000Y-116139000D03*
X146050000Y-105730000D03*
X146050000Y-107630000D03*
D11*
X165420000Y-100330000D03*
X167320000Y-100330000D03*
D13*
X163830000Y-80010000D03*
D14*
X166370000Y-80010000D03*
X168910000Y-80010000D03*
D15*
X140970000Y-126801000D03*
X140970000Y-122301000D03*
X147470000Y-126801000D03*
X147470000Y-122301000D03*
D16*
X163830000Y-105410000D03*
D17*
X166370000Y-105410000D03*
X168910000Y-105410000D03*
D18*
X157590000Y-81110000D03*
X157590000Y-82380000D03*
X157590000Y-83650000D03*
X157590000Y-84920000D03*
X157590000Y-86190000D03*
X157590000Y-87460000D03*
X157590000Y-88730000D03*
X157590000Y-90000000D03*
X157590000Y-91270000D03*
X157590000Y-92540000D03*
X157590000Y-93810000D03*
X157590000Y-95080000D03*
X157590000Y-96350000D03*
X157590000Y-97620000D03*
D19*
X154305000Y-99110000D03*
X153035000Y-99110000D03*
X151765000Y-99110000D03*
X150495000Y-99110000D03*
X149225000Y-99110000D03*
X147955000Y-99110000D03*
X146685000Y-99110000D03*
X145415000Y-99110000D03*
X144145000Y-99110000D03*
X142875000Y-99110000D03*
D18*
X139590000Y-97620000D03*
X139590000Y-96350000D03*
X139590000Y-95080000D03*
X139590000Y-93810000D03*
X139590000Y-92540000D03*
X139590000Y-91270000D03*
X139590000Y-90000000D03*
X139590000Y-88730000D03*
X139590000Y-87460000D03*
X139590000Y-86190000D03*
X139590000Y-84920000D03*
X139590000Y-83650000D03*
X139590000Y-82380000D03*
X139590000Y-81110000D03*
D20*
X148290000Y-88810000D03*
D21*
X178500000Y-79000000D03*
D22*
X181040000Y-79000000D03*
X178500000Y-91700000D03*
X181040000Y-81540000D03*
X178500000Y-94240000D03*
X181040000Y-84080000D03*
X178500000Y-96780000D03*
X181040000Y-86620000D03*
X178500000Y-99320000D03*
X181040000Y-89160000D03*
X178500000Y-101860000D03*
X181040000Y-91700000D03*
X178500000Y-104400000D03*
X181040000Y-94240000D03*
X178500000Y-106940000D03*
X181040000Y-96780000D03*
X178500000Y-109480000D03*
X181040000Y-99320000D03*
X178500000Y-112020000D03*
X181040000Y-101860000D03*
X178500000Y-114560000D03*
X181040000Y-104400000D03*
X178500000Y-117100000D03*
X181040000Y-106940000D03*
X181040000Y-109480000D03*
X178500000Y-119640000D03*
X181040000Y-112020000D03*
X181040000Y-117100000D03*
X181040000Y-119640000D03*
X181040000Y-122180000D03*
X181040000Y-124720000D03*
X178500000Y-122180000D03*
X178500000Y-124720000D03*
X178500000Y-81540000D03*
X178500000Y-84080000D03*
X178500000Y-86620000D03*
X178500000Y-89160000D03*
X178500000Y-127260000D03*
X181040000Y-127260000D03*
X181040000Y-114560000D03*
D23*
X136779000Y-130429000D03*
X168148000Y-129032000D03*
X136779000Y-77851000D03*
D24*
X164893000Y-117348000D03*
X167593000Y-117348000D03*
D25*
X152400000Y-108030000D03*
X152400000Y-105330000D03*
X141097000Y-116412000D03*
X141097000Y-113712000D03*
X163830000Y-95330000D03*
X163830000Y-92630000D03*
X168910000Y-92630000D03*
X168910000Y-95330000D03*
D24*
X160100000Y-112141000D03*
X157400000Y-112141000D03*
X167593000Y-112141000D03*
X164893000Y-112141000D03*
D25*
X157480000Y-108030000D03*
X157480000Y-105330000D03*
D26*
X166370000Y-122217000D03*
X166370000Y-124417000D03*
X168910000Y-88730000D03*
X168910000Y-86530000D03*
X163830000Y-88730000D03*
X163830000Y-86530000D03*
D27*
X141859000Y-107315000D03*
X144907000Y-109474000D03*
X156210000Y-110109000D03*
X136525000Y-81788000D03*
X160401000Y-81788000D03*
X165227000Y-126746000D03*
X141351000Y-101600000D03*
X149225000Y-120015000D03*
X169672000Y-84074000D03*
X148290000Y-84844800D03*
X165420000Y-101664800D03*
X163830000Y-84965900D03*
D28*
X141097000Y-107315000D02*
X140650000Y-107762000D01*
X140716000Y-107569000D02*
X140650000Y-107569000D01*
X140650000Y-107635000D02*
X140716000Y-107569000D01*
X140650000Y-107762000D02*
X140650000Y-107635000D01*
X140650000Y-106934000D02*
X140716000Y-106934000D01*
X140716000Y-106934000D02*
X141097000Y-107315000D01*
X140650000Y-107315000D02*
X141097000Y-107315000D01*
X141097000Y-107315000D02*
X141859000Y-107315000D01*
X146050000Y-107630000D02*
X146050000Y-108331000D01*
X146050000Y-108331000D02*
X144907000Y-109474000D01*
X157480000Y-108030000D02*
X157480000Y-108839000D01*
X157480000Y-108839000D02*
X156210000Y-110109000D01*
X139590000Y-81110000D02*
X137203000Y-81110000D01*
X137203000Y-81110000D02*
X136525000Y-81788000D01*
X157590000Y-81110000D02*
X159723000Y-81110000D01*
X159723000Y-81110000D02*
X160401000Y-81788000D01*
X166370000Y-124417000D02*
X166370000Y-125603000D01*
X166370000Y-125603000D02*
X165227000Y-126746000D01*
X142875000Y-99110000D02*
X142875000Y-100076000D01*
X142875000Y-100076000D02*
X141351000Y-101600000D01*
X140650000Y-105410000D02*
X140650000Y-106934000D01*
X140650000Y-106934000D02*
X140650000Y-107315000D01*
X140650000Y-107315000D02*
X140650000Y-107569000D01*
X140650000Y-107569000D02*
X140650000Y-109220000D01*
X147701000Y-116139000D02*
X147701000Y-118491000D01*
X147701000Y-118491000D02*
X149225000Y-120015000D01*
X168910000Y-86530000D02*
X168910000Y-84836000D01*
X168910000Y-84836000D02*
X169672000Y-84074000D01*
X148290000Y-84844800D02*
X148290000Y-88810000D01*
X165420000Y-101664800D02*
X165420000Y-100330000D01*
X163830000Y-84965900D02*
X163830000Y-86530000D01*
X142436400Y-116967000D02*
X142494000Y-116967000D01*
X142494000Y-116967000D02*
X142809900Y-116651100D01*
X142436400Y-116651100D02*
X142809900Y-116651100D01*
X142809900Y-116651100D02*
X144463600Y-116651100D01*
X144463600Y-116651100D02*
X146875700Y-114239000D01*
X147701000Y-114239000D02*
X146875700Y-114239000D01*
X142204000Y-125567000D02*
X142668800Y-125567000D01*
X142621000Y-125603000D02*
X142621000Y-125519200D01*
X142632800Y-125603000D02*
X142621000Y-125603000D01*
X142668800Y-125567000D02*
X142632800Y-125603000D01*
X141097000Y-116412000D02*
X142197300Y-116412000D01*
X142197300Y-116412000D02*
X142436400Y-116651100D01*
X143902800Y-126801000D02*
X142621000Y-125519200D01*
X147470000Y-126801000D02*
X143902800Y-126801000D01*
X142621000Y-125519200D02*
X142436400Y-125334600D01*
X142436400Y-116651100D02*
X142436400Y-116967000D01*
X142436400Y-116967000D02*
X142436400Y-125334600D01*
X142436400Y-125334600D02*
X142204000Y-125567000D01*
X142204000Y-125567000D02*
X140970000Y-126801000D01*
X146050000Y-105730000D02*
X144841000Y-105730000D01*
X141939000Y-113712000D02*
X141097000Y-113712000D01*
X143129000Y-112522000D02*
X141939000Y-113712000D01*
X143129000Y-107442000D02*
X143129000Y-112522000D01*
X144841000Y-105730000D02*
X143129000Y-107442000D01*
X146050000Y-105730000D02*
X146050000Y-104267000D01*
X137584000Y-83650000D02*
X139590000Y-83650000D01*
X136525000Y-84709000D02*
X137584000Y-83650000D01*
X136525000Y-100203000D02*
X136525000Y-84709000D01*
X139319000Y-102997000D02*
X136525000Y-100203000D01*
X144780000Y-102997000D02*
X139319000Y-102997000D01*
X146050000Y-104267000D02*
X144780000Y-102997000D01*
X147275300Y-105330000D02*
X146875300Y-105730000D01*
X152400000Y-105330000D02*
X147275300Y-105330000D01*
X146050000Y-105730000D02*
X146875300Y-105730000D01*
X167320000Y-100330000D02*
X167320000Y-101155300D01*
X168452500Y-105410000D02*
X168910000Y-105410000D01*
X161721500Y-112141000D02*
X168452500Y-105410000D01*
X160100000Y-112141000D02*
X161721500Y-112141000D01*
X168452500Y-102287800D02*
X167320000Y-101155300D01*
X168452500Y-105410000D02*
X168452500Y-102287800D01*
X164893000Y-119689700D02*
X164893000Y-117348000D01*
X166370000Y-121166700D02*
X164893000Y-119689700D01*
X166370000Y-122217000D02*
X166370000Y-121166700D01*
X168910000Y-88730000D02*
X168910000Y-89535000D01*
X167974000Y-95330000D02*
X168910000Y-95330000D01*
X167513000Y-94869000D02*
X167974000Y-95330000D01*
X167513000Y-90932000D02*
X167513000Y-94869000D01*
X168910000Y-89535000D02*
X167513000Y-90932000D01*
X163830000Y-88730000D02*
X163830000Y-92630000D01*
X177852200Y-105727700D02*
X177852200Y-106292200D01*
X176610500Y-104486000D02*
X177852200Y-105727700D01*
X176610500Y-99280100D02*
X176610500Y-104486000D01*
X170307000Y-92976600D02*
X176610500Y-99280100D01*
X177852200Y-106292200D02*
X178500000Y-106940000D01*
X163830000Y-80010000D02*
X163830000Y-78486000D01*
X171572900Y-91017500D02*
X170347700Y-92242700D01*
X171572900Y-91017500D02*
X171572900Y-80753500D01*
X171572900Y-78481900D02*
X171572900Y-80753500D01*
X171069000Y-77978000D02*
X171572900Y-78481900D01*
X164338000Y-77978000D02*
X171069000Y-77978000D01*
X163830000Y-78486000D02*
X164338000Y-77978000D01*
X159290300Y-84920000D02*
X159809000Y-84920000D01*
X157590000Y-84920000D02*
X159290300Y-84920000D01*
X159809000Y-84920000D02*
X163830000Y-80899000D01*
X163830000Y-80899000D02*
X163830000Y-80010000D01*
X170110200Y-92779800D02*
X170347700Y-92542300D01*
X170307000Y-92583000D02*
X170347700Y-92583000D01*
X170347700Y-92542300D02*
X170307000Y-92583000D01*
X170347700Y-92242700D02*
X170347700Y-92583000D01*
X170347700Y-92583000D02*
X170347700Y-93017300D01*
X170347700Y-93017300D02*
X170307000Y-92976600D01*
X170307000Y-92976600D02*
X170307000Y-92837000D01*
X170307000Y-92837000D02*
X170307000Y-92976600D01*
X168910000Y-92630000D02*
X169835200Y-92630000D01*
X169835200Y-92630000D02*
X169960400Y-92630000D01*
X169960400Y-92630000D02*
X170347700Y-92242700D01*
X169960400Y-92630000D02*
X170110200Y-92779800D01*
X170110200Y-92779800D02*
X170307000Y-92976600D01*
X177865650Y-108265350D02*
X177865650Y-108845650D01*
X177865650Y-108845650D02*
X178500000Y-109480000D01*
X165290500Y-82994500D02*
X165290500Y-83756500D01*
X165290500Y-83756500D02*
X165354000Y-83820000D01*
X165163500Y-83121500D02*
X165163500Y-83629500D01*
X165227000Y-83566000D02*
X165227000Y-83693000D01*
X165163500Y-83629500D02*
X165227000Y-83566000D01*
X165290500Y-94805500D02*
X165290500Y-95690200D01*
X165354000Y-95753700D02*
X165358300Y-95758000D01*
X165290500Y-95690200D02*
X165354000Y-95753700D01*
X165163500Y-94932500D02*
X165163500Y-95563200D01*
X165100000Y-95504000D02*
X165100000Y-95499700D01*
X165104300Y-95504000D02*
X165100000Y-95504000D01*
X165163500Y-95563200D02*
X165104300Y-95504000D01*
X164930300Y-95330000D02*
X164930300Y-95292700D01*
X164909500Y-95186500D02*
X165036500Y-95186500D01*
X164909500Y-83375500D02*
X165227000Y-83693000D01*
X165227000Y-83693000D02*
X165354000Y-83820000D01*
X165354000Y-83820000D02*
X165862000Y-84328000D01*
X165862000Y-84328000D02*
X165862000Y-94234000D01*
X165862000Y-94234000D02*
X165290500Y-94805500D01*
X165290500Y-94805500D02*
X165354000Y-94742000D01*
X164766000Y-95330000D02*
X163830000Y-95330000D01*
X165354000Y-94742000D02*
X165163500Y-94932500D01*
X165163500Y-94932500D02*
X164909500Y-95186500D01*
X164909500Y-95186500D02*
X164766000Y-95330000D01*
X157590000Y-86190000D02*
X160190000Y-86190000D01*
X166370000Y-81915000D02*
X166370000Y-80010000D01*
X164846000Y-83439000D02*
X164909500Y-83375500D01*
X164909500Y-83375500D02*
X165163500Y-83121500D01*
X165163500Y-83121500D02*
X165290500Y-82994500D01*
X165290500Y-82994500D02*
X166370000Y-81915000D01*
X162941000Y-83439000D02*
X164846000Y-83439000D01*
X160190000Y-86190000D02*
X162941000Y-83439000D01*
X163830000Y-95330000D02*
X164930300Y-95330000D01*
X165481000Y-95880700D02*
X165100000Y-95499700D01*
X177868000Y-108267700D02*
X177865650Y-108265350D01*
X177865650Y-108265350D02*
X165481000Y-95880700D01*
X165100000Y-95499700D02*
X164930300Y-95330000D01*
X171352100Y-122207400D02*
X171352100Y-129569100D01*
X167593000Y-117348000D02*
X167593000Y-118448300D01*
X167593000Y-118448300D02*
X171352100Y-122207400D01*
X171352100Y-129569100D02*
X173482000Y-131699000D01*
X167593000Y-112141000D02*
X167593000Y-117348000D01*
X183134000Y-131699000D02*
X173482000Y-131699000D01*
X178500000Y-79000000D02*
X178500000Y-77659000D01*
X178500000Y-77659000D02*
X179324000Y-76835000D01*
X179324000Y-76835000D02*
X183769000Y-76835000D01*
X183769000Y-76835000D02*
X184531000Y-77597000D01*
X184531000Y-77597000D02*
X184531000Y-130302000D01*
X184531000Y-130302000D02*
X183134000Y-131699000D01*
X173482000Y-131699000D02*
X171352100Y-131699000D01*
X171352100Y-131699000D02*
X142367000Y-131699000D01*
X142367000Y-131699000D02*
X135636000Y-124968000D01*
X135636000Y-124968000D02*
X135636000Y-115062000D01*
X137584000Y-82380000D02*
X139590000Y-82380000D01*
X135636000Y-84328000D02*
X137584000Y-82380000D01*
X135636000Y-104907000D02*
X135636000Y-84328000D01*
X137196700Y-104907000D02*
X137699700Y-105410000D01*
X135636000Y-104907000D02*
X137196700Y-104907000D01*
X138750000Y-105410000D02*
X137699700Y-105410000D01*
X144267700Y-115062000D02*
X151299700Y-108030000D01*
X135636000Y-115062000D02*
X144267700Y-115062000D01*
X152400000Y-108030000D02*
X151299700Y-108030000D01*
X135636000Y-115062000D02*
X135636000Y-109984500D01*
X135636000Y-109984500D02*
X135636000Y-104907000D01*
X136935200Y-109984500D02*
X137699700Y-109220000D01*
X135636000Y-109984500D02*
X136935200Y-109984500D01*
X138750000Y-109220000D02*
X137699700Y-109220000D01*
X157400000Y-112141000D02*
X157400000Y-110697000D01*
X159469000Y-97620000D02*
X157590000Y-97620000D01*
X160274000Y-98425000D02*
X159469000Y-97620000D01*
X160274000Y-107823000D02*
X160274000Y-98425000D01*
X157400000Y-110697000D02*
X160274000Y-107823000D01*
X157400000Y-112141000D02*
X157400000Y-113585000D01*
X164893000Y-113491000D02*
X164893000Y-112141000D01*
X164465000Y-113919000D02*
X164893000Y-113491000D01*
X157734000Y-113919000D02*
X164465000Y-113919000D01*
X157400000Y-113585000D02*
X157734000Y-113919000D01*
X157480000Y-103985300D02*
X154305000Y-100810300D01*
X157480000Y-105330000D02*
X157480000Y-103985300D01*
X154305000Y-99110000D02*
X154305000Y-100810300D01*
M02*
