M48
;DRILL file {KiCad 4.0.6} date 08/10/17 20:33:27
;FORMAT={-:-/ absolute / inch / decimal}
FMAT,2
INCH,TZ
T1C0.028
T2C0.032
T3C0.039
T4C0.040
T5C0.043
%
G90
G05
M72
T1
X5.375Y-3.22
X5.565Y-4.
X5.585Y-4.225
X5.705Y-4.31
X5.8382Y-3.3403
X5.875Y-4.725
X6.15Y-4.335
X6.315Y-3.22
X6.45Y-3.3451
X6.505Y-4.99
X6.5126Y-4.0026
X6.68Y-3.31
T2
X6.45Y-4.15
X6.55Y-4.15
X6.65Y-4.15
T3
X6.45Y-3.15
X6.55Y-3.15
X6.65Y-3.15
T4
X7.0276Y-3.1102
X7.0276Y-3.2102
X7.0276Y-3.3102
X7.0276Y-3.4102
X7.0276Y-3.5102
X7.0276Y-3.6102
X7.0276Y-3.7102
X7.0276Y-3.8102
X7.0276Y-3.9102
X7.0276Y-4.0102
X7.0276Y-4.1102
X7.0276Y-4.2102
X7.0276Y-4.3102
X7.0276Y-4.4102
X7.0276Y-4.5102
X7.0276Y-4.6102
X7.0276Y-4.7102
X7.0276Y-4.8102
X7.0276Y-4.9102
X7.0276Y-5.0102
X7.1276Y-3.1102
X7.1276Y-3.2102
X7.1276Y-3.3102
X7.1276Y-3.4102
X7.1276Y-3.5102
X7.1276Y-3.6102
X7.1276Y-3.7102
X7.1276Y-3.8102
X7.1276Y-3.9102
X7.1276Y-4.0102
X7.1276Y-4.1102
X7.1276Y-4.2102
X7.1276Y-4.3102
X7.1276Y-4.4102
X7.1276Y-4.5102
X7.1276Y-4.6102
X7.1276Y-4.7102
X7.1276Y-4.8102
X7.1276Y-4.9102
X7.1276Y-5.0102
T5
X5.55Y-4.815
X5.55Y-4.9922
X5.8059Y-4.815
X5.8059Y-4.9922
T0
M30
