G04 #@! TF.FileFunction,Legend,Bot*
%FSLAX46Y46*%
G04 Gerber Fmt 4.6, Leading zero omitted, Abs format (unit mm)*
G04 Created by KiCad (PCBNEW 4.0.6) date 08/10/17 20:33:06*
%MOMM*%
%LPD*%
G01*
G04 APERTURE LIST*
%ADD10C,0.100000*%
%ADD11C,0.300000*%
G04 APERTURE END LIST*
D10*
D11*
X160606143Y-114592571D02*
X160606143Y-113092571D01*
X160034715Y-113092571D01*
X159891857Y-113164000D01*
X159820429Y-113235429D01*
X159749000Y-113378286D01*
X159749000Y-113592571D01*
X159820429Y-113735429D01*
X159891857Y-113806857D01*
X160034715Y-113878286D01*
X160606143Y-113878286D01*
X158891857Y-114592571D02*
X159034715Y-114521143D01*
X159106143Y-114449714D01*
X159177572Y-114306857D01*
X159177572Y-113878286D01*
X159106143Y-113735429D01*
X159034715Y-113664000D01*
X158891857Y-113592571D01*
X158677572Y-113592571D01*
X158534715Y-113664000D01*
X158463286Y-113735429D01*
X158391857Y-113878286D01*
X158391857Y-114306857D01*
X158463286Y-114449714D01*
X158534715Y-114521143D01*
X158677572Y-114592571D01*
X158891857Y-114592571D01*
X157749000Y-113592571D02*
X157749000Y-114592571D01*
X157749000Y-113735429D02*
X157677572Y-113664000D01*
X157534714Y-113592571D01*
X157320429Y-113592571D01*
X157177572Y-113664000D01*
X157106143Y-113806857D01*
X157106143Y-114592571D01*
X155749000Y-114521143D02*
X155891857Y-114592571D01*
X156177571Y-114592571D01*
X156320429Y-114521143D01*
X156391857Y-114449714D01*
X156463286Y-114306857D01*
X156463286Y-113878286D01*
X156391857Y-113735429D01*
X156320429Y-113664000D01*
X156177571Y-113592571D01*
X155891857Y-113592571D01*
X155749000Y-113664000D01*
X155106143Y-114592571D02*
X155106143Y-113092571D01*
X154463286Y-114592571D02*
X154463286Y-113806857D01*
X154534715Y-113664000D01*
X154677572Y-113592571D01*
X154891857Y-113592571D01*
X155034715Y-113664000D01*
X155106143Y-113735429D01*
X153534714Y-114592571D02*
X153677572Y-114521143D01*
X153749000Y-114449714D01*
X153820429Y-114306857D01*
X153820429Y-113878286D01*
X153749000Y-113735429D01*
X153677572Y-113664000D01*
X153534714Y-113592571D01*
X153320429Y-113592571D01*
X153177572Y-113664000D01*
X153106143Y-113735429D01*
X153034714Y-113878286D01*
X153034714Y-114306857D01*
X153106143Y-114449714D01*
X153177572Y-114521143D01*
X153320429Y-114592571D01*
X153534714Y-114592571D01*
X151249000Y-113806857D02*
X150749000Y-113806857D01*
X150534714Y-114592571D02*
X151249000Y-114592571D01*
X151249000Y-113092571D01*
X150534714Y-113092571D01*
X149891857Y-114592571D02*
X149891857Y-113092571D01*
X149534714Y-113092571D01*
X149320429Y-113164000D01*
X149177571Y-113306857D01*
X149106143Y-113449714D01*
X149034714Y-113735429D01*
X149034714Y-113949714D01*
X149106143Y-114235429D01*
X149177571Y-114378286D01*
X149320429Y-114521143D01*
X149534714Y-114592571D01*
X149891857Y-114592571D01*
X148391857Y-113092571D02*
X148391857Y-114306857D01*
X148320429Y-114449714D01*
X148249000Y-114521143D01*
X148106143Y-114592571D01*
X147820429Y-114592571D01*
X147677571Y-114521143D01*
X147606143Y-114449714D01*
X147534714Y-114306857D01*
X147534714Y-113092571D01*
X146820428Y-114021143D02*
X145677571Y-114021143D01*
X144106142Y-114449714D02*
X144177571Y-114521143D01*
X144391857Y-114592571D01*
X144534714Y-114592571D01*
X144748999Y-114521143D01*
X144891857Y-114378286D01*
X144963285Y-114235429D01*
X145034714Y-113949714D01*
X145034714Y-113735429D01*
X144963285Y-113449714D01*
X144891857Y-113306857D01*
X144748999Y-113164000D01*
X144534714Y-113092571D01*
X144391857Y-113092571D01*
X144177571Y-113164000D01*
X144106142Y-113235429D01*
X143463285Y-114592571D02*
X143463285Y-113092571D01*
X142820428Y-114164000D02*
X142106142Y-114164000D01*
X142963285Y-114592571D02*
X142463285Y-113092571D01*
X141963285Y-114592571D01*
X141534714Y-114164000D02*
X140820428Y-114164000D01*
X141677571Y-114592571D02*
X141177571Y-113092571D01*
X140677571Y-114592571D01*
X161141857Y-117142571D02*
X161141857Y-115642571D01*
X160427571Y-116142571D02*
X160427571Y-117142571D01*
X160427571Y-116285429D02*
X160356143Y-116214000D01*
X160213285Y-116142571D01*
X159999000Y-116142571D01*
X159856143Y-116214000D01*
X159784714Y-116356857D01*
X159784714Y-117142571D01*
X158427571Y-117142571D02*
X158427571Y-115642571D01*
X158427571Y-117071143D02*
X158570428Y-117142571D01*
X158856142Y-117142571D01*
X158999000Y-117071143D01*
X159070428Y-116999714D01*
X159141857Y-116856857D01*
X159141857Y-116428286D01*
X159070428Y-116285429D01*
X158999000Y-116214000D01*
X158856142Y-116142571D01*
X158570428Y-116142571D01*
X158427571Y-116214000D01*
X157070428Y-116142571D02*
X157070428Y-117142571D01*
X157713285Y-116142571D02*
X157713285Y-116928286D01*
X157641857Y-117071143D01*
X157498999Y-117142571D01*
X157284714Y-117142571D01*
X157141857Y-117071143D01*
X157070428Y-116999714D01*
X156427571Y-117071143D02*
X156284714Y-117142571D01*
X155998999Y-117142571D01*
X155856142Y-117071143D01*
X155784714Y-116928286D01*
X155784714Y-116856857D01*
X155856142Y-116714000D01*
X155998999Y-116642571D01*
X156213285Y-116642571D01*
X156356142Y-116571143D01*
X156427571Y-116428286D01*
X156427571Y-116356857D01*
X156356142Y-116214000D01*
X156213285Y-116142571D01*
X155998999Y-116142571D01*
X155856142Y-116214000D01*
X155356142Y-116142571D02*
X154784713Y-116142571D01*
X155141856Y-115642571D02*
X155141856Y-116928286D01*
X155070428Y-117071143D01*
X154927570Y-117142571D01*
X154784713Y-117142571D01*
X154284713Y-117142571D02*
X154284713Y-116142571D01*
X154284713Y-116428286D02*
X154213285Y-116285429D01*
X154141856Y-116214000D01*
X153998999Y-116142571D01*
X153856142Y-116142571D01*
X153356142Y-117142571D02*
X153356142Y-116142571D01*
X153356142Y-115642571D02*
X153427571Y-115714000D01*
X153356142Y-115785429D01*
X153284714Y-115714000D01*
X153356142Y-115642571D01*
X153356142Y-115785429D01*
X151998999Y-117142571D02*
X151998999Y-116356857D01*
X152070428Y-116214000D01*
X152213285Y-116142571D01*
X152498999Y-116142571D01*
X152641856Y-116214000D01*
X151998999Y-117071143D02*
X152141856Y-117142571D01*
X152498999Y-117142571D01*
X152641856Y-117071143D01*
X152713285Y-116928286D01*
X152713285Y-116785429D01*
X152641856Y-116642571D01*
X152498999Y-116571143D01*
X152141856Y-116571143D01*
X151998999Y-116499714D01*
X150213285Y-116714000D02*
X149498999Y-116714000D01*
X150356142Y-117142571D02*
X149856142Y-115642571D01*
X149356142Y-117142571D01*
X148856142Y-117142571D02*
X148856142Y-116142571D01*
X148856142Y-116428286D02*
X148784714Y-116285429D01*
X148713285Y-116214000D01*
X148570428Y-116142571D01*
X148427571Y-116142571D01*
X147284714Y-116142571D02*
X147284714Y-117356857D01*
X147356143Y-117499714D01*
X147427571Y-117571143D01*
X147570428Y-117642571D01*
X147784714Y-117642571D01*
X147927571Y-117571143D01*
X147284714Y-117071143D02*
X147427571Y-117142571D01*
X147713285Y-117142571D01*
X147856143Y-117071143D01*
X147927571Y-116999714D01*
X147999000Y-116856857D01*
X147999000Y-116428286D01*
X147927571Y-116285429D01*
X147856143Y-116214000D01*
X147713285Y-116142571D01*
X147427571Y-116142571D01*
X147284714Y-116214000D01*
X145999000Y-117071143D02*
X146141857Y-117142571D01*
X146427571Y-117142571D01*
X146570428Y-117071143D01*
X146641857Y-116928286D01*
X146641857Y-116356857D01*
X146570428Y-116214000D01*
X146427571Y-116142571D01*
X146141857Y-116142571D01*
X145999000Y-116214000D01*
X145927571Y-116356857D01*
X145927571Y-116499714D01*
X146641857Y-116642571D01*
X145284714Y-116142571D02*
X145284714Y-117142571D01*
X145284714Y-116285429D02*
X145213286Y-116214000D01*
X145070428Y-116142571D01*
X144856143Y-116142571D01*
X144713286Y-116214000D01*
X144641857Y-116356857D01*
X144641857Y-117142571D01*
X144141857Y-116142571D02*
X143570428Y-116142571D01*
X143927571Y-115642571D02*
X143927571Y-116928286D01*
X143856143Y-117071143D01*
X143713285Y-117142571D01*
X143570428Y-117142571D01*
X143070428Y-117142571D02*
X143070428Y-116142571D01*
X143070428Y-115642571D02*
X143141857Y-115714000D01*
X143070428Y-115785429D01*
X142999000Y-115714000D01*
X143070428Y-115642571D01*
X143070428Y-115785429D01*
X142356142Y-116142571D02*
X142356142Y-117142571D01*
X142356142Y-116285429D02*
X142284714Y-116214000D01*
X142141856Y-116142571D01*
X141927571Y-116142571D01*
X141784714Y-116214000D01*
X141713285Y-116356857D01*
X141713285Y-117142571D01*
X140356142Y-117142571D02*
X140356142Y-116356857D01*
X140427571Y-116214000D01*
X140570428Y-116142571D01*
X140856142Y-116142571D01*
X140998999Y-116214000D01*
X140356142Y-117071143D02*
X140498999Y-117142571D01*
X140856142Y-117142571D01*
X140998999Y-117071143D01*
X141070428Y-116928286D01*
X141070428Y-116785429D01*
X140998999Y-116642571D01*
X140856142Y-116571143D01*
X140498999Y-116571143D01*
X140356142Y-116499714D01*
M02*
