G04 #@! TF.FileFunction,Copper,L2,Bot,Signal*
%FSLAX46Y46*%
G04 Gerber Fmt 4.6, Leading zero omitted, Abs format (unit mm)*
G04 Created by KiCad (PCBNEW 4.0.6) date 08/10/17 20:33:06*
%MOMM*%
%LPD*%
G01*
G04 APERTURE LIST*
%ADD10C,0.100000*%
%ADD11R,1.778000X1.778000*%
%ADD12C,1.778000*%
%ADD13C,2.000000*%
%ADD14R,1.397000X1.397000*%
%ADD15C,1.397000*%
%ADD16R,2.000000X1.524000*%
%ADD17O,2.000000X1.524000*%
%ADD18C,1.270000*%
%ADD19C,0.300000*%
%ADD20C,0.254000*%
G04 APERTURE END LIST*
D10*
D11*
X163830000Y-80010000D03*
D12*
X166370000Y-80010000D03*
X168910000Y-80010000D03*
D13*
X140970000Y-126801000D03*
X140970000Y-122301000D03*
X147470000Y-126801000D03*
X147470000Y-122301000D03*
D14*
X163830000Y-105410000D03*
D15*
X166370000Y-105410000D03*
X168910000Y-105410000D03*
D16*
X178500000Y-79000000D03*
D17*
X181040000Y-79000000D03*
X178500000Y-91700000D03*
X181040000Y-81540000D03*
X178500000Y-94240000D03*
X181040000Y-84080000D03*
X178500000Y-96780000D03*
X181040000Y-86620000D03*
X178500000Y-99320000D03*
X181040000Y-89160000D03*
X178500000Y-101860000D03*
X181040000Y-91700000D03*
X178500000Y-104400000D03*
X181040000Y-94240000D03*
X178500000Y-106940000D03*
X181040000Y-96780000D03*
X178500000Y-109480000D03*
X181040000Y-99320000D03*
X178500000Y-112020000D03*
X181040000Y-101860000D03*
X178500000Y-114560000D03*
X181040000Y-104400000D03*
X178500000Y-117100000D03*
X181040000Y-106940000D03*
X181040000Y-109480000D03*
X178500000Y-119640000D03*
X181040000Y-112020000D03*
X181040000Y-117100000D03*
X181040000Y-119640000D03*
X181040000Y-122180000D03*
X181040000Y-124720000D03*
X178500000Y-122180000D03*
X178500000Y-124720000D03*
X178500000Y-81540000D03*
X178500000Y-84080000D03*
X178500000Y-86620000D03*
X178500000Y-89160000D03*
X178500000Y-127260000D03*
X181040000Y-127260000D03*
X181040000Y-114560000D03*
D18*
X141859000Y-107315000D03*
X144907000Y-109474000D03*
X156210000Y-110109000D03*
X136525000Y-81788000D03*
X160401000Y-81788000D03*
X165227000Y-126746000D03*
X141351000Y-101600000D03*
X149225000Y-120015000D03*
X169672000Y-84074000D03*
X148290000Y-84844800D03*
X165420000Y-101664800D03*
X163830000Y-84965900D03*
D19*
X140970000Y-105410000D02*
X142621000Y-105410000D01*
D20*
G36*
X185472000Y-132005000D02*
X135203000Y-132005000D01*
X135203000Y-127124795D01*
X139334716Y-127124795D01*
X139583106Y-127725943D01*
X140042637Y-128186278D01*
X140643352Y-128435716D01*
X141293795Y-128436284D01*
X141894943Y-128187894D01*
X142355278Y-127728363D01*
X142604716Y-127127648D01*
X142604718Y-127124795D01*
X145834716Y-127124795D01*
X146083106Y-127725943D01*
X146542637Y-128186278D01*
X147143352Y-128435716D01*
X147793795Y-128436284D01*
X148394943Y-128187894D01*
X148855278Y-127728363D01*
X149104716Y-127127648D01*
X149105284Y-126477205D01*
X148856894Y-125876057D01*
X148397363Y-125415722D01*
X147796648Y-125166284D01*
X147146205Y-125165716D01*
X146545057Y-125414106D01*
X146084722Y-125873637D01*
X145835284Y-126474352D01*
X145834716Y-127124795D01*
X142604718Y-127124795D01*
X142605284Y-126477205D01*
X142356894Y-125876057D01*
X141897363Y-125415722D01*
X141296648Y-125166284D01*
X140646205Y-125165716D01*
X140045057Y-125414106D01*
X139584722Y-125873637D01*
X139335284Y-126474352D01*
X139334716Y-127124795D01*
X135203000Y-127124795D01*
X135203000Y-123453532D01*
X139997073Y-123453532D01*
X140095736Y-123720387D01*
X140705461Y-123946908D01*
X141355460Y-123922856D01*
X141844264Y-123720387D01*
X141942927Y-123453532D01*
X146497073Y-123453532D01*
X146595736Y-123720387D01*
X147205461Y-123946908D01*
X147855460Y-123922856D01*
X148344264Y-123720387D01*
X148442927Y-123453532D01*
X147470000Y-122480605D01*
X146497073Y-123453532D01*
X141942927Y-123453532D01*
X140970000Y-122480605D01*
X139997073Y-123453532D01*
X135203000Y-123453532D01*
X135203000Y-122036461D01*
X139324092Y-122036461D01*
X139348144Y-122686460D01*
X139550613Y-123175264D01*
X139817468Y-123273927D01*
X140790395Y-122301000D01*
X141149605Y-122301000D01*
X142122532Y-123273927D01*
X142389387Y-123175264D01*
X142615908Y-122565539D01*
X142596331Y-122036461D01*
X145824092Y-122036461D01*
X145848144Y-122686460D01*
X146050613Y-123175264D01*
X146317468Y-123273927D01*
X147290395Y-122301000D01*
X147649605Y-122301000D01*
X148622532Y-123273927D01*
X148889387Y-123175264D01*
X149115908Y-122565539D01*
X149091856Y-121915540D01*
X148889387Y-121426736D01*
X148622532Y-121328073D01*
X147649605Y-122301000D01*
X147290395Y-122301000D01*
X146317468Y-121328073D01*
X146050613Y-121426736D01*
X145824092Y-122036461D01*
X142596331Y-122036461D01*
X142591856Y-121915540D01*
X142389387Y-121426736D01*
X142122532Y-121328073D01*
X141149605Y-122301000D01*
X140790395Y-122301000D01*
X139817468Y-121328073D01*
X139550613Y-121426736D01*
X139324092Y-122036461D01*
X135203000Y-122036461D01*
X135203000Y-121148468D01*
X139997073Y-121148468D01*
X140970000Y-122121395D01*
X141942927Y-121148468D01*
X146497073Y-121148468D01*
X147470000Y-122121395D01*
X148442927Y-121148468D01*
X148344264Y-120881613D01*
X147734539Y-120655092D01*
X147084540Y-120679144D01*
X146595736Y-120881613D01*
X146497073Y-121148468D01*
X141942927Y-121148468D01*
X141844264Y-120881613D01*
X141234539Y-120655092D01*
X140584540Y-120679144D01*
X140095736Y-120881613D01*
X139997073Y-121148468D01*
X135203000Y-121148468D01*
X135203000Y-105410000D01*
X140185000Y-105410000D01*
X140244755Y-105710406D01*
X140414921Y-105965079D01*
X140669594Y-106135245D01*
X140970000Y-106195000D01*
X142621000Y-106195000D01*
X142921406Y-106135245D01*
X143176079Y-105965079D01*
X143346245Y-105710406D01*
X143406000Y-105410000D01*
X143346245Y-105109594D01*
X143176079Y-104854921D01*
X142961433Y-104711500D01*
X162484060Y-104711500D01*
X162484060Y-106108500D01*
X162528338Y-106343817D01*
X162667410Y-106559941D01*
X162879610Y-106704931D01*
X163131500Y-106755940D01*
X164528500Y-106755940D01*
X164763817Y-106711662D01*
X164979941Y-106572590D01*
X165124931Y-106360390D01*
X165128211Y-106344188D01*
X165615417Y-106344188D01*
X165677071Y-106579800D01*
X166177480Y-106755927D01*
X166707199Y-106727148D01*
X167062929Y-106579800D01*
X167124583Y-106344188D01*
X166370000Y-105589605D01*
X165615417Y-106344188D01*
X165128211Y-106344188D01*
X165175940Y-106108500D01*
X165175940Y-106044360D01*
X165200200Y-106102929D01*
X165435812Y-106164583D01*
X166190395Y-105410000D01*
X166549605Y-105410000D01*
X167304188Y-106164583D01*
X167539800Y-106102929D01*
X167638083Y-105823688D01*
X167778854Y-106164380D01*
X168153647Y-106539827D01*
X168643587Y-106743268D01*
X169174086Y-106743731D01*
X169664380Y-106541146D01*
X170039827Y-106166353D01*
X170243268Y-105676413D01*
X170243731Y-105145914D01*
X170041146Y-104655620D01*
X169666353Y-104280173D01*
X169176413Y-104076732D01*
X168645914Y-104076269D01*
X168155620Y-104278854D01*
X167780173Y-104653647D01*
X167646686Y-104975118D01*
X167539800Y-104717071D01*
X167304188Y-104655417D01*
X166549605Y-105410000D01*
X166190395Y-105410000D01*
X165435812Y-104655417D01*
X165200200Y-104717071D01*
X165175940Y-104785998D01*
X165175940Y-104711500D01*
X165131662Y-104476183D01*
X165131424Y-104475812D01*
X165615417Y-104475812D01*
X166370000Y-105230395D01*
X167124583Y-104475812D01*
X167062929Y-104240200D01*
X166562520Y-104064073D01*
X166032801Y-104092852D01*
X165677071Y-104240200D01*
X165615417Y-104475812D01*
X165131424Y-104475812D01*
X164992590Y-104260059D01*
X164780390Y-104115069D01*
X164528500Y-104064060D01*
X163131500Y-104064060D01*
X162896183Y-104108338D01*
X162680059Y-104247410D01*
X162535069Y-104459610D01*
X162484060Y-104711500D01*
X142961433Y-104711500D01*
X142921406Y-104684755D01*
X142621000Y-104625000D01*
X140970000Y-104625000D01*
X140669594Y-104684755D01*
X140414921Y-104854921D01*
X140244755Y-105109594D01*
X140185000Y-105410000D01*
X135203000Y-105410000D01*
X135203000Y-80391000D01*
X162293560Y-80391000D01*
X162293560Y-80899000D01*
X162337838Y-81134317D01*
X162476910Y-81350441D01*
X162689110Y-81495431D01*
X162941000Y-81546440D01*
X164719000Y-81546440D01*
X164954317Y-81502162D01*
X165170441Y-81363090D01*
X165315431Y-81150890D01*
X165322191Y-81117506D01*
X165505596Y-81301231D01*
X166065528Y-81533735D01*
X166671812Y-81534264D01*
X167232149Y-81302738D01*
X167453076Y-81082196D01*
X168017409Y-81082196D01*
X168102467Y-81337539D01*
X168671965Y-81545516D01*
X168801505Y-81540000D01*
X176832968Y-81540000D01*
X176939308Y-82074609D01*
X177242140Y-82527828D01*
X177664439Y-82810000D01*
X177242140Y-83092172D01*
X176939308Y-83545391D01*
X176832968Y-84080000D01*
X176939308Y-84614609D01*
X177242140Y-85067828D01*
X177664439Y-85350000D01*
X177242140Y-85632172D01*
X176939308Y-86085391D01*
X176832968Y-86620000D01*
X176939308Y-87154609D01*
X177242140Y-87607828D01*
X177664439Y-87890000D01*
X177242140Y-88172172D01*
X176939308Y-88625391D01*
X176832968Y-89160000D01*
X176939308Y-89694609D01*
X177242140Y-90147828D01*
X177664439Y-90430000D01*
X177242140Y-90712172D01*
X176939308Y-91165391D01*
X176832968Y-91700000D01*
X176939308Y-92234609D01*
X177242140Y-92687828D01*
X177664439Y-92970000D01*
X177242140Y-93252172D01*
X176939308Y-93705391D01*
X176832968Y-94240000D01*
X176939308Y-94774609D01*
X177242140Y-95227828D01*
X177664439Y-95510000D01*
X177242140Y-95792172D01*
X176939308Y-96245391D01*
X176832968Y-96780000D01*
X176939308Y-97314609D01*
X177242140Y-97767828D01*
X177664439Y-98050000D01*
X177242140Y-98332172D01*
X176939308Y-98785391D01*
X176832968Y-99320000D01*
X176939308Y-99854609D01*
X177242140Y-100307828D01*
X177664439Y-100590000D01*
X177242140Y-100872172D01*
X176939308Y-101325391D01*
X176832968Y-101860000D01*
X176939308Y-102394609D01*
X177242140Y-102847828D01*
X177664439Y-103130000D01*
X177242140Y-103412172D01*
X176939308Y-103865391D01*
X176832968Y-104400000D01*
X176939308Y-104934609D01*
X177242140Y-105387828D01*
X177664439Y-105670000D01*
X177242140Y-105952172D01*
X176939308Y-106405391D01*
X176832968Y-106940000D01*
X176939308Y-107474609D01*
X177242140Y-107927828D01*
X177664439Y-108210000D01*
X177242140Y-108492172D01*
X176939308Y-108945391D01*
X176832968Y-109480000D01*
X176939308Y-110014609D01*
X177242140Y-110467828D01*
X177664439Y-110750000D01*
X177242140Y-111032172D01*
X176939308Y-111485391D01*
X176832968Y-112020000D01*
X176939308Y-112554609D01*
X177242140Y-113007828D01*
X177664439Y-113290000D01*
X177242140Y-113572172D01*
X176939308Y-114025391D01*
X176832968Y-114560000D01*
X176939308Y-115094609D01*
X177242140Y-115547828D01*
X177664439Y-115830000D01*
X177242140Y-116112172D01*
X176939308Y-116565391D01*
X176832968Y-117100000D01*
X176939308Y-117634609D01*
X177242140Y-118087828D01*
X177664439Y-118370000D01*
X177242140Y-118652172D01*
X176939308Y-119105391D01*
X176832968Y-119640000D01*
X176939308Y-120174609D01*
X177242140Y-120627828D01*
X177664439Y-120910000D01*
X177242140Y-121192172D01*
X176939308Y-121645391D01*
X176832968Y-122180000D01*
X176939308Y-122714609D01*
X177242140Y-123167828D01*
X177664439Y-123450000D01*
X177242140Y-123732172D01*
X176939308Y-124185391D01*
X176832968Y-124720000D01*
X176939308Y-125254609D01*
X177242140Y-125707828D01*
X177664439Y-125990000D01*
X177242140Y-126272172D01*
X176939308Y-126725391D01*
X176832968Y-127260000D01*
X176939308Y-127794609D01*
X177242140Y-128247828D01*
X177695359Y-128550660D01*
X178229968Y-128657000D01*
X178770032Y-128657000D01*
X179304641Y-128550660D01*
X179757860Y-128247828D01*
X179781650Y-128212224D01*
X180164086Y-128513422D01*
X180692308Y-128662130D01*
X180913000Y-128503277D01*
X180913000Y-127387000D01*
X181167000Y-127387000D01*
X181167000Y-128503277D01*
X181387692Y-128662130D01*
X181915914Y-128513422D01*
X182347020Y-128173892D01*
X182615377Y-127695230D01*
X182632220Y-127603070D01*
X182509720Y-127387000D01*
X181167000Y-127387000D01*
X180913000Y-127387000D01*
X180893000Y-127387000D01*
X180893000Y-127133000D01*
X180913000Y-127133000D01*
X180913000Y-126016723D01*
X180875874Y-125990000D01*
X180913000Y-125963277D01*
X180913000Y-124847000D01*
X181167000Y-124847000D01*
X181167000Y-125963277D01*
X181204126Y-125990000D01*
X181167000Y-126016723D01*
X181167000Y-127133000D01*
X182509720Y-127133000D01*
X182632220Y-126916930D01*
X182615377Y-126824770D01*
X182347020Y-126346108D01*
X181915914Y-126006578D01*
X181857028Y-125990000D01*
X181915914Y-125973422D01*
X182347020Y-125633892D01*
X182615377Y-125155230D01*
X182632220Y-125063070D01*
X182509720Y-124847000D01*
X181167000Y-124847000D01*
X180913000Y-124847000D01*
X180893000Y-124847000D01*
X180893000Y-124593000D01*
X180913000Y-124593000D01*
X180913000Y-124573000D01*
X181167000Y-124573000D01*
X181167000Y-124593000D01*
X182509720Y-124593000D01*
X182632220Y-124376930D01*
X182615377Y-124284770D01*
X182347020Y-123806108D01*
X181915914Y-123466578D01*
X181870067Y-123453671D01*
X182297860Y-123167828D01*
X182600692Y-122714609D01*
X182707032Y-122180000D01*
X182600692Y-121645391D01*
X182297860Y-121192172D01*
X181875561Y-120910000D01*
X182297860Y-120627828D01*
X182600692Y-120174609D01*
X182707032Y-119640000D01*
X182600692Y-119105391D01*
X182297860Y-118652172D01*
X181870067Y-118366329D01*
X181915914Y-118353422D01*
X182347020Y-118013892D01*
X182615377Y-117535230D01*
X182632220Y-117443070D01*
X182509720Y-117227000D01*
X181167000Y-117227000D01*
X181167000Y-117247000D01*
X180913000Y-117247000D01*
X180913000Y-117227000D01*
X180893000Y-117227000D01*
X180893000Y-116973000D01*
X180913000Y-116973000D01*
X180913000Y-115856723D01*
X180875874Y-115830000D01*
X180913000Y-115803277D01*
X180913000Y-114687000D01*
X181167000Y-114687000D01*
X181167000Y-115803277D01*
X181204126Y-115830000D01*
X181167000Y-115856723D01*
X181167000Y-116973000D01*
X182509720Y-116973000D01*
X182632220Y-116756930D01*
X182615377Y-116664770D01*
X182347020Y-116186108D01*
X181915914Y-115846578D01*
X181857028Y-115830000D01*
X181915914Y-115813422D01*
X182347020Y-115473892D01*
X182615377Y-114995230D01*
X182632220Y-114903070D01*
X182509720Y-114687000D01*
X181167000Y-114687000D01*
X180913000Y-114687000D01*
X180893000Y-114687000D01*
X180893000Y-114433000D01*
X180913000Y-114433000D01*
X180913000Y-113316723D01*
X180875874Y-113290000D01*
X180913000Y-113263277D01*
X180913000Y-112147000D01*
X181167000Y-112147000D01*
X181167000Y-113263277D01*
X181204126Y-113290000D01*
X181167000Y-113316723D01*
X181167000Y-114433000D01*
X182509720Y-114433000D01*
X182632220Y-114216930D01*
X182615377Y-114124770D01*
X182347020Y-113646108D01*
X181915914Y-113306578D01*
X181857028Y-113290000D01*
X181915914Y-113273422D01*
X182347020Y-112933892D01*
X182615377Y-112455230D01*
X182632220Y-112363070D01*
X182509720Y-112147000D01*
X181167000Y-112147000D01*
X180913000Y-112147000D01*
X180893000Y-112147000D01*
X180893000Y-111893000D01*
X180913000Y-111893000D01*
X180913000Y-110776723D01*
X180875874Y-110750000D01*
X180913000Y-110723277D01*
X180913000Y-109607000D01*
X181167000Y-109607000D01*
X181167000Y-110723277D01*
X181204126Y-110750000D01*
X181167000Y-110776723D01*
X181167000Y-111893000D01*
X182509720Y-111893000D01*
X182632220Y-111676930D01*
X182615377Y-111584770D01*
X182347020Y-111106108D01*
X181915914Y-110766578D01*
X181857028Y-110750000D01*
X181915914Y-110733422D01*
X182347020Y-110393892D01*
X182615377Y-109915230D01*
X182632220Y-109823070D01*
X182509720Y-109607000D01*
X181167000Y-109607000D01*
X180913000Y-109607000D01*
X180893000Y-109607000D01*
X180893000Y-109353000D01*
X180913000Y-109353000D01*
X180913000Y-108236723D01*
X180875874Y-108210000D01*
X180913000Y-108183277D01*
X180913000Y-107067000D01*
X181167000Y-107067000D01*
X181167000Y-108183277D01*
X181204126Y-108210000D01*
X181167000Y-108236723D01*
X181167000Y-109353000D01*
X182509720Y-109353000D01*
X182632220Y-109136930D01*
X182615377Y-109044770D01*
X182347020Y-108566108D01*
X181915914Y-108226578D01*
X181857028Y-108210000D01*
X181915914Y-108193422D01*
X182347020Y-107853892D01*
X182615377Y-107375230D01*
X182632220Y-107283070D01*
X182509720Y-107067000D01*
X181167000Y-107067000D01*
X180913000Y-107067000D01*
X180893000Y-107067000D01*
X180893000Y-106813000D01*
X180913000Y-106813000D01*
X180913000Y-105696723D01*
X180875874Y-105670000D01*
X180913000Y-105643277D01*
X180913000Y-104527000D01*
X181167000Y-104527000D01*
X181167000Y-105643277D01*
X181204126Y-105670000D01*
X181167000Y-105696723D01*
X181167000Y-106813000D01*
X182509720Y-106813000D01*
X182632220Y-106596930D01*
X182615377Y-106504770D01*
X182347020Y-106026108D01*
X181915914Y-105686578D01*
X181857028Y-105670000D01*
X181915914Y-105653422D01*
X182347020Y-105313892D01*
X182615377Y-104835230D01*
X182632220Y-104743070D01*
X182509720Y-104527000D01*
X181167000Y-104527000D01*
X180913000Y-104527000D01*
X180893000Y-104527000D01*
X180893000Y-104273000D01*
X180913000Y-104273000D01*
X180913000Y-103156723D01*
X180875874Y-103130000D01*
X180913000Y-103103277D01*
X180913000Y-101987000D01*
X181167000Y-101987000D01*
X181167000Y-103103277D01*
X181204126Y-103130000D01*
X181167000Y-103156723D01*
X181167000Y-104273000D01*
X182509720Y-104273000D01*
X182632220Y-104056930D01*
X182615377Y-103964770D01*
X182347020Y-103486108D01*
X181915914Y-103146578D01*
X181857028Y-103130000D01*
X181915914Y-103113422D01*
X182347020Y-102773892D01*
X182615377Y-102295230D01*
X182632220Y-102203070D01*
X182509720Y-101987000D01*
X181167000Y-101987000D01*
X180913000Y-101987000D01*
X180893000Y-101987000D01*
X180893000Y-101733000D01*
X180913000Y-101733000D01*
X180913000Y-101713000D01*
X181167000Y-101713000D01*
X181167000Y-101733000D01*
X182509720Y-101733000D01*
X182632220Y-101516930D01*
X182615377Y-101424770D01*
X182347020Y-100946108D01*
X181915914Y-100606578D01*
X181870067Y-100593671D01*
X182297860Y-100307828D01*
X182600692Y-99854609D01*
X182707032Y-99320000D01*
X182600692Y-98785391D01*
X182297860Y-98332172D01*
X181875561Y-98050000D01*
X182297860Y-97767828D01*
X182600692Y-97314609D01*
X182707032Y-96780000D01*
X182600692Y-96245391D01*
X182297860Y-95792172D01*
X181875561Y-95510000D01*
X182297860Y-95227828D01*
X182600692Y-94774609D01*
X182707032Y-94240000D01*
X182600692Y-93705391D01*
X182297860Y-93252172D01*
X181875561Y-92970000D01*
X182297860Y-92687828D01*
X182600692Y-92234609D01*
X182707032Y-91700000D01*
X182600692Y-91165391D01*
X182297860Y-90712172D01*
X181875561Y-90430000D01*
X182297860Y-90147828D01*
X182600692Y-89694609D01*
X182707032Y-89160000D01*
X182600692Y-88625391D01*
X182297860Y-88172172D01*
X181875561Y-87890000D01*
X182297860Y-87607828D01*
X182600692Y-87154609D01*
X182707032Y-86620000D01*
X182600692Y-86085391D01*
X182297860Y-85632172D01*
X181875561Y-85350000D01*
X182297860Y-85067828D01*
X182600692Y-84614609D01*
X182707032Y-84080000D01*
X182600692Y-83545391D01*
X182297860Y-83092172D01*
X181870067Y-82806329D01*
X181915914Y-82793422D01*
X182347020Y-82453892D01*
X182615377Y-81975230D01*
X182632220Y-81883070D01*
X182509720Y-81667000D01*
X181167000Y-81667000D01*
X181167000Y-81687000D01*
X180913000Y-81687000D01*
X180913000Y-81667000D01*
X180893000Y-81667000D01*
X180893000Y-81413000D01*
X180913000Y-81413000D01*
X180913000Y-81393000D01*
X181167000Y-81393000D01*
X181167000Y-81413000D01*
X182509720Y-81413000D01*
X182632220Y-81196930D01*
X182615377Y-81104770D01*
X182347020Y-80626108D01*
X181915914Y-80286578D01*
X181870067Y-80273671D01*
X182297860Y-79987828D01*
X182600692Y-79534609D01*
X182707032Y-79000000D01*
X182600692Y-78465391D01*
X182297860Y-78012172D01*
X181844641Y-77709340D01*
X181310032Y-77603000D01*
X180769968Y-77603000D01*
X180235359Y-77709340D01*
X180010907Y-77859314D01*
X179964090Y-77786559D01*
X179751890Y-77641569D01*
X179500000Y-77590560D01*
X177500000Y-77590560D01*
X177264683Y-77634838D01*
X177048559Y-77773910D01*
X176903569Y-77986110D01*
X176852560Y-78238000D01*
X176852560Y-79762000D01*
X176896838Y-79997317D01*
X177035910Y-80213441D01*
X177248110Y-80358431D01*
X177466044Y-80402564D01*
X177242140Y-80552172D01*
X176939308Y-81005391D01*
X176832968Y-81540000D01*
X168801505Y-81540000D01*
X169277700Y-81519723D01*
X169717533Y-81337539D01*
X169802591Y-81082196D01*
X168910000Y-80189605D01*
X168017409Y-81082196D01*
X167453076Y-81082196D01*
X167661231Y-80874404D01*
X167672405Y-80847494D01*
X167837804Y-80902591D01*
X168730395Y-80010000D01*
X169089605Y-80010000D01*
X169982196Y-80902591D01*
X170237539Y-80817533D01*
X170445516Y-80248035D01*
X170419723Y-79642300D01*
X170237539Y-79202467D01*
X169982196Y-79117409D01*
X169089605Y-80010000D01*
X168730395Y-80010000D01*
X167837804Y-79117409D01*
X167672862Y-79172353D01*
X167662738Y-79147851D01*
X167453058Y-78937804D01*
X168017409Y-78937804D01*
X168910000Y-79830395D01*
X169802591Y-78937804D01*
X169717533Y-78682461D01*
X169148035Y-78474484D01*
X168542300Y-78500277D01*
X168102467Y-78682461D01*
X168017409Y-78937804D01*
X167453058Y-78937804D01*
X167234404Y-78718769D01*
X166674472Y-78486265D01*
X166068188Y-78485736D01*
X165507851Y-78717262D01*
X165324846Y-78899948D01*
X165322162Y-78885683D01*
X165183090Y-78669559D01*
X164970890Y-78524569D01*
X164719000Y-78473560D01*
X162941000Y-78473560D01*
X162705683Y-78517838D01*
X162560000Y-78611582D01*
X162560000Y-76275000D01*
X185472000Y-76275000D01*
X185472000Y-132005000D01*
X185472000Y-132005000D01*
G37*
X185472000Y-132005000D02*
X135203000Y-132005000D01*
X135203000Y-127124795D01*
X139334716Y-127124795D01*
X139583106Y-127725943D01*
X140042637Y-128186278D01*
X140643352Y-128435716D01*
X141293795Y-128436284D01*
X141894943Y-128187894D01*
X142355278Y-127728363D01*
X142604716Y-127127648D01*
X142604718Y-127124795D01*
X145834716Y-127124795D01*
X146083106Y-127725943D01*
X146542637Y-128186278D01*
X147143352Y-128435716D01*
X147793795Y-128436284D01*
X148394943Y-128187894D01*
X148855278Y-127728363D01*
X149104716Y-127127648D01*
X149105284Y-126477205D01*
X148856894Y-125876057D01*
X148397363Y-125415722D01*
X147796648Y-125166284D01*
X147146205Y-125165716D01*
X146545057Y-125414106D01*
X146084722Y-125873637D01*
X145835284Y-126474352D01*
X145834716Y-127124795D01*
X142604718Y-127124795D01*
X142605284Y-126477205D01*
X142356894Y-125876057D01*
X141897363Y-125415722D01*
X141296648Y-125166284D01*
X140646205Y-125165716D01*
X140045057Y-125414106D01*
X139584722Y-125873637D01*
X139335284Y-126474352D01*
X139334716Y-127124795D01*
X135203000Y-127124795D01*
X135203000Y-123453532D01*
X139997073Y-123453532D01*
X140095736Y-123720387D01*
X140705461Y-123946908D01*
X141355460Y-123922856D01*
X141844264Y-123720387D01*
X141942927Y-123453532D01*
X146497073Y-123453532D01*
X146595736Y-123720387D01*
X147205461Y-123946908D01*
X147855460Y-123922856D01*
X148344264Y-123720387D01*
X148442927Y-123453532D01*
X147470000Y-122480605D01*
X146497073Y-123453532D01*
X141942927Y-123453532D01*
X140970000Y-122480605D01*
X139997073Y-123453532D01*
X135203000Y-123453532D01*
X135203000Y-122036461D01*
X139324092Y-122036461D01*
X139348144Y-122686460D01*
X139550613Y-123175264D01*
X139817468Y-123273927D01*
X140790395Y-122301000D01*
X141149605Y-122301000D01*
X142122532Y-123273927D01*
X142389387Y-123175264D01*
X142615908Y-122565539D01*
X142596331Y-122036461D01*
X145824092Y-122036461D01*
X145848144Y-122686460D01*
X146050613Y-123175264D01*
X146317468Y-123273927D01*
X147290395Y-122301000D01*
X147649605Y-122301000D01*
X148622532Y-123273927D01*
X148889387Y-123175264D01*
X149115908Y-122565539D01*
X149091856Y-121915540D01*
X148889387Y-121426736D01*
X148622532Y-121328073D01*
X147649605Y-122301000D01*
X147290395Y-122301000D01*
X146317468Y-121328073D01*
X146050613Y-121426736D01*
X145824092Y-122036461D01*
X142596331Y-122036461D01*
X142591856Y-121915540D01*
X142389387Y-121426736D01*
X142122532Y-121328073D01*
X141149605Y-122301000D01*
X140790395Y-122301000D01*
X139817468Y-121328073D01*
X139550613Y-121426736D01*
X139324092Y-122036461D01*
X135203000Y-122036461D01*
X135203000Y-121148468D01*
X139997073Y-121148468D01*
X140970000Y-122121395D01*
X141942927Y-121148468D01*
X146497073Y-121148468D01*
X147470000Y-122121395D01*
X148442927Y-121148468D01*
X148344264Y-120881613D01*
X147734539Y-120655092D01*
X147084540Y-120679144D01*
X146595736Y-120881613D01*
X146497073Y-121148468D01*
X141942927Y-121148468D01*
X141844264Y-120881613D01*
X141234539Y-120655092D01*
X140584540Y-120679144D01*
X140095736Y-120881613D01*
X139997073Y-121148468D01*
X135203000Y-121148468D01*
X135203000Y-105410000D01*
X140185000Y-105410000D01*
X140244755Y-105710406D01*
X140414921Y-105965079D01*
X140669594Y-106135245D01*
X140970000Y-106195000D01*
X142621000Y-106195000D01*
X142921406Y-106135245D01*
X143176079Y-105965079D01*
X143346245Y-105710406D01*
X143406000Y-105410000D01*
X143346245Y-105109594D01*
X143176079Y-104854921D01*
X142961433Y-104711500D01*
X162484060Y-104711500D01*
X162484060Y-106108500D01*
X162528338Y-106343817D01*
X162667410Y-106559941D01*
X162879610Y-106704931D01*
X163131500Y-106755940D01*
X164528500Y-106755940D01*
X164763817Y-106711662D01*
X164979941Y-106572590D01*
X165124931Y-106360390D01*
X165128211Y-106344188D01*
X165615417Y-106344188D01*
X165677071Y-106579800D01*
X166177480Y-106755927D01*
X166707199Y-106727148D01*
X167062929Y-106579800D01*
X167124583Y-106344188D01*
X166370000Y-105589605D01*
X165615417Y-106344188D01*
X165128211Y-106344188D01*
X165175940Y-106108500D01*
X165175940Y-106044360D01*
X165200200Y-106102929D01*
X165435812Y-106164583D01*
X166190395Y-105410000D01*
X166549605Y-105410000D01*
X167304188Y-106164583D01*
X167539800Y-106102929D01*
X167638083Y-105823688D01*
X167778854Y-106164380D01*
X168153647Y-106539827D01*
X168643587Y-106743268D01*
X169174086Y-106743731D01*
X169664380Y-106541146D01*
X170039827Y-106166353D01*
X170243268Y-105676413D01*
X170243731Y-105145914D01*
X170041146Y-104655620D01*
X169666353Y-104280173D01*
X169176413Y-104076732D01*
X168645914Y-104076269D01*
X168155620Y-104278854D01*
X167780173Y-104653647D01*
X167646686Y-104975118D01*
X167539800Y-104717071D01*
X167304188Y-104655417D01*
X166549605Y-105410000D01*
X166190395Y-105410000D01*
X165435812Y-104655417D01*
X165200200Y-104717071D01*
X165175940Y-104785998D01*
X165175940Y-104711500D01*
X165131662Y-104476183D01*
X165131424Y-104475812D01*
X165615417Y-104475812D01*
X166370000Y-105230395D01*
X167124583Y-104475812D01*
X167062929Y-104240200D01*
X166562520Y-104064073D01*
X166032801Y-104092852D01*
X165677071Y-104240200D01*
X165615417Y-104475812D01*
X165131424Y-104475812D01*
X164992590Y-104260059D01*
X164780390Y-104115069D01*
X164528500Y-104064060D01*
X163131500Y-104064060D01*
X162896183Y-104108338D01*
X162680059Y-104247410D01*
X162535069Y-104459610D01*
X162484060Y-104711500D01*
X142961433Y-104711500D01*
X142921406Y-104684755D01*
X142621000Y-104625000D01*
X140970000Y-104625000D01*
X140669594Y-104684755D01*
X140414921Y-104854921D01*
X140244755Y-105109594D01*
X140185000Y-105410000D01*
X135203000Y-105410000D01*
X135203000Y-80391000D01*
X162293560Y-80391000D01*
X162293560Y-80899000D01*
X162337838Y-81134317D01*
X162476910Y-81350441D01*
X162689110Y-81495431D01*
X162941000Y-81546440D01*
X164719000Y-81546440D01*
X164954317Y-81502162D01*
X165170441Y-81363090D01*
X165315431Y-81150890D01*
X165322191Y-81117506D01*
X165505596Y-81301231D01*
X166065528Y-81533735D01*
X166671812Y-81534264D01*
X167232149Y-81302738D01*
X167453076Y-81082196D01*
X168017409Y-81082196D01*
X168102467Y-81337539D01*
X168671965Y-81545516D01*
X168801505Y-81540000D01*
X176832968Y-81540000D01*
X176939308Y-82074609D01*
X177242140Y-82527828D01*
X177664439Y-82810000D01*
X177242140Y-83092172D01*
X176939308Y-83545391D01*
X176832968Y-84080000D01*
X176939308Y-84614609D01*
X177242140Y-85067828D01*
X177664439Y-85350000D01*
X177242140Y-85632172D01*
X176939308Y-86085391D01*
X176832968Y-86620000D01*
X176939308Y-87154609D01*
X177242140Y-87607828D01*
X177664439Y-87890000D01*
X177242140Y-88172172D01*
X176939308Y-88625391D01*
X176832968Y-89160000D01*
X176939308Y-89694609D01*
X177242140Y-90147828D01*
X177664439Y-90430000D01*
X177242140Y-90712172D01*
X176939308Y-91165391D01*
X176832968Y-91700000D01*
X176939308Y-92234609D01*
X177242140Y-92687828D01*
X177664439Y-92970000D01*
X177242140Y-93252172D01*
X176939308Y-93705391D01*
X176832968Y-94240000D01*
X176939308Y-94774609D01*
X177242140Y-95227828D01*
X177664439Y-95510000D01*
X177242140Y-95792172D01*
X176939308Y-96245391D01*
X176832968Y-96780000D01*
X176939308Y-97314609D01*
X177242140Y-97767828D01*
X177664439Y-98050000D01*
X177242140Y-98332172D01*
X176939308Y-98785391D01*
X176832968Y-99320000D01*
X176939308Y-99854609D01*
X177242140Y-100307828D01*
X177664439Y-100590000D01*
X177242140Y-100872172D01*
X176939308Y-101325391D01*
X176832968Y-101860000D01*
X176939308Y-102394609D01*
X177242140Y-102847828D01*
X177664439Y-103130000D01*
X177242140Y-103412172D01*
X176939308Y-103865391D01*
X176832968Y-104400000D01*
X176939308Y-104934609D01*
X177242140Y-105387828D01*
X177664439Y-105670000D01*
X177242140Y-105952172D01*
X176939308Y-106405391D01*
X176832968Y-106940000D01*
X176939308Y-107474609D01*
X177242140Y-107927828D01*
X177664439Y-108210000D01*
X177242140Y-108492172D01*
X176939308Y-108945391D01*
X176832968Y-109480000D01*
X176939308Y-110014609D01*
X177242140Y-110467828D01*
X177664439Y-110750000D01*
X177242140Y-111032172D01*
X176939308Y-111485391D01*
X176832968Y-112020000D01*
X176939308Y-112554609D01*
X177242140Y-113007828D01*
X177664439Y-113290000D01*
X177242140Y-113572172D01*
X176939308Y-114025391D01*
X176832968Y-114560000D01*
X176939308Y-115094609D01*
X177242140Y-115547828D01*
X177664439Y-115830000D01*
X177242140Y-116112172D01*
X176939308Y-116565391D01*
X176832968Y-117100000D01*
X176939308Y-117634609D01*
X177242140Y-118087828D01*
X177664439Y-118370000D01*
X177242140Y-118652172D01*
X176939308Y-119105391D01*
X176832968Y-119640000D01*
X176939308Y-120174609D01*
X177242140Y-120627828D01*
X177664439Y-120910000D01*
X177242140Y-121192172D01*
X176939308Y-121645391D01*
X176832968Y-122180000D01*
X176939308Y-122714609D01*
X177242140Y-123167828D01*
X177664439Y-123450000D01*
X177242140Y-123732172D01*
X176939308Y-124185391D01*
X176832968Y-124720000D01*
X176939308Y-125254609D01*
X177242140Y-125707828D01*
X177664439Y-125990000D01*
X177242140Y-126272172D01*
X176939308Y-126725391D01*
X176832968Y-127260000D01*
X176939308Y-127794609D01*
X177242140Y-128247828D01*
X177695359Y-128550660D01*
X178229968Y-128657000D01*
X178770032Y-128657000D01*
X179304641Y-128550660D01*
X179757860Y-128247828D01*
X179781650Y-128212224D01*
X180164086Y-128513422D01*
X180692308Y-128662130D01*
X180913000Y-128503277D01*
X180913000Y-127387000D01*
X181167000Y-127387000D01*
X181167000Y-128503277D01*
X181387692Y-128662130D01*
X181915914Y-128513422D01*
X182347020Y-128173892D01*
X182615377Y-127695230D01*
X182632220Y-127603070D01*
X182509720Y-127387000D01*
X181167000Y-127387000D01*
X180913000Y-127387000D01*
X180893000Y-127387000D01*
X180893000Y-127133000D01*
X180913000Y-127133000D01*
X180913000Y-126016723D01*
X180875874Y-125990000D01*
X180913000Y-125963277D01*
X180913000Y-124847000D01*
X181167000Y-124847000D01*
X181167000Y-125963277D01*
X181204126Y-125990000D01*
X181167000Y-126016723D01*
X181167000Y-127133000D01*
X182509720Y-127133000D01*
X182632220Y-126916930D01*
X182615377Y-126824770D01*
X182347020Y-126346108D01*
X181915914Y-126006578D01*
X181857028Y-125990000D01*
X181915914Y-125973422D01*
X182347020Y-125633892D01*
X182615377Y-125155230D01*
X182632220Y-125063070D01*
X182509720Y-124847000D01*
X181167000Y-124847000D01*
X180913000Y-124847000D01*
X180893000Y-124847000D01*
X180893000Y-124593000D01*
X180913000Y-124593000D01*
X180913000Y-124573000D01*
X181167000Y-124573000D01*
X181167000Y-124593000D01*
X182509720Y-124593000D01*
X182632220Y-124376930D01*
X182615377Y-124284770D01*
X182347020Y-123806108D01*
X181915914Y-123466578D01*
X181870067Y-123453671D01*
X182297860Y-123167828D01*
X182600692Y-122714609D01*
X182707032Y-122180000D01*
X182600692Y-121645391D01*
X182297860Y-121192172D01*
X181875561Y-120910000D01*
X182297860Y-120627828D01*
X182600692Y-120174609D01*
X182707032Y-119640000D01*
X182600692Y-119105391D01*
X182297860Y-118652172D01*
X181870067Y-118366329D01*
X181915914Y-118353422D01*
X182347020Y-118013892D01*
X182615377Y-117535230D01*
X182632220Y-117443070D01*
X182509720Y-117227000D01*
X181167000Y-117227000D01*
X181167000Y-117247000D01*
X180913000Y-117247000D01*
X180913000Y-117227000D01*
X180893000Y-117227000D01*
X180893000Y-116973000D01*
X180913000Y-116973000D01*
X180913000Y-115856723D01*
X180875874Y-115830000D01*
X180913000Y-115803277D01*
X180913000Y-114687000D01*
X181167000Y-114687000D01*
X181167000Y-115803277D01*
X181204126Y-115830000D01*
X181167000Y-115856723D01*
X181167000Y-116973000D01*
X182509720Y-116973000D01*
X182632220Y-116756930D01*
X182615377Y-116664770D01*
X182347020Y-116186108D01*
X181915914Y-115846578D01*
X181857028Y-115830000D01*
X181915914Y-115813422D01*
X182347020Y-115473892D01*
X182615377Y-114995230D01*
X182632220Y-114903070D01*
X182509720Y-114687000D01*
X181167000Y-114687000D01*
X180913000Y-114687000D01*
X180893000Y-114687000D01*
X180893000Y-114433000D01*
X180913000Y-114433000D01*
X180913000Y-113316723D01*
X180875874Y-113290000D01*
X180913000Y-113263277D01*
X180913000Y-112147000D01*
X181167000Y-112147000D01*
X181167000Y-113263277D01*
X181204126Y-113290000D01*
X181167000Y-113316723D01*
X181167000Y-114433000D01*
X182509720Y-114433000D01*
X182632220Y-114216930D01*
X182615377Y-114124770D01*
X182347020Y-113646108D01*
X181915914Y-113306578D01*
X181857028Y-113290000D01*
X181915914Y-113273422D01*
X182347020Y-112933892D01*
X182615377Y-112455230D01*
X182632220Y-112363070D01*
X182509720Y-112147000D01*
X181167000Y-112147000D01*
X180913000Y-112147000D01*
X180893000Y-112147000D01*
X180893000Y-111893000D01*
X180913000Y-111893000D01*
X180913000Y-110776723D01*
X180875874Y-110750000D01*
X180913000Y-110723277D01*
X180913000Y-109607000D01*
X181167000Y-109607000D01*
X181167000Y-110723277D01*
X181204126Y-110750000D01*
X181167000Y-110776723D01*
X181167000Y-111893000D01*
X182509720Y-111893000D01*
X182632220Y-111676930D01*
X182615377Y-111584770D01*
X182347020Y-111106108D01*
X181915914Y-110766578D01*
X181857028Y-110750000D01*
X181915914Y-110733422D01*
X182347020Y-110393892D01*
X182615377Y-109915230D01*
X182632220Y-109823070D01*
X182509720Y-109607000D01*
X181167000Y-109607000D01*
X180913000Y-109607000D01*
X180893000Y-109607000D01*
X180893000Y-109353000D01*
X180913000Y-109353000D01*
X180913000Y-108236723D01*
X180875874Y-108210000D01*
X180913000Y-108183277D01*
X180913000Y-107067000D01*
X181167000Y-107067000D01*
X181167000Y-108183277D01*
X181204126Y-108210000D01*
X181167000Y-108236723D01*
X181167000Y-109353000D01*
X182509720Y-109353000D01*
X182632220Y-109136930D01*
X182615377Y-109044770D01*
X182347020Y-108566108D01*
X181915914Y-108226578D01*
X181857028Y-108210000D01*
X181915914Y-108193422D01*
X182347020Y-107853892D01*
X182615377Y-107375230D01*
X182632220Y-107283070D01*
X182509720Y-107067000D01*
X181167000Y-107067000D01*
X180913000Y-107067000D01*
X180893000Y-107067000D01*
X180893000Y-106813000D01*
X180913000Y-106813000D01*
X180913000Y-105696723D01*
X180875874Y-105670000D01*
X180913000Y-105643277D01*
X180913000Y-104527000D01*
X181167000Y-104527000D01*
X181167000Y-105643277D01*
X181204126Y-105670000D01*
X181167000Y-105696723D01*
X181167000Y-106813000D01*
X182509720Y-106813000D01*
X182632220Y-106596930D01*
X182615377Y-106504770D01*
X182347020Y-106026108D01*
X181915914Y-105686578D01*
X181857028Y-105670000D01*
X181915914Y-105653422D01*
X182347020Y-105313892D01*
X182615377Y-104835230D01*
X182632220Y-104743070D01*
X182509720Y-104527000D01*
X181167000Y-104527000D01*
X180913000Y-104527000D01*
X180893000Y-104527000D01*
X180893000Y-104273000D01*
X180913000Y-104273000D01*
X180913000Y-103156723D01*
X180875874Y-103130000D01*
X180913000Y-103103277D01*
X180913000Y-101987000D01*
X181167000Y-101987000D01*
X181167000Y-103103277D01*
X181204126Y-103130000D01*
X181167000Y-103156723D01*
X181167000Y-104273000D01*
X182509720Y-104273000D01*
X182632220Y-104056930D01*
X182615377Y-103964770D01*
X182347020Y-103486108D01*
X181915914Y-103146578D01*
X181857028Y-103130000D01*
X181915914Y-103113422D01*
X182347020Y-102773892D01*
X182615377Y-102295230D01*
X182632220Y-102203070D01*
X182509720Y-101987000D01*
X181167000Y-101987000D01*
X180913000Y-101987000D01*
X180893000Y-101987000D01*
X180893000Y-101733000D01*
X180913000Y-101733000D01*
X180913000Y-101713000D01*
X181167000Y-101713000D01*
X181167000Y-101733000D01*
X182509720Y-101733000D01*
X182632220Y-101516930D01*
X182615377Y-101424770D01*
X182347020Y-100946108D01*
X181915914Y-100606578D01*
X181870067Y-100593671D01*
X182297860Y-100307828D01*
X182600692Y-99854609D01*
X182707032Y-99320000D01*
X182600692Y-98785391D01*
X182297860Y-98332172D01*
X181875561Y-98050000D01*
X182297860Y-97767828D01*
X182600692Y-97314609D01*
X182707032Y-96780000D01*
X182600692Y-96245391D01*
X182297860Y-95792172D01*
X181875561Y-95510000D01*
X182297860Y-95227828D01*
X182600692Y-94774609D01*
X182707032Y-94240000D01*
X182600692Y-93705391D01*
X182297860Y-93252172D01*
X181875561Y-92970000D01*
X182297860Y-92687828D01*
X182600692Y-92234609D01*
X182707032Y-91700000D01*
X182600692Y-91165391D01*
X182297860Y-90712172D01*
X181875561Y-90430000D01*
X182297860Y-90147828D01*
X182600692Y-89694609D01*
X182707032Y-89160000D01*
X182600692Y-88625391D01*
X182297860Y-88172172D01*
X181875561Y-87890000D01*
X182297860Y-87607828D01*
X182600692Y-87154609D01*
X182707032Y-86620000D01*
X182600692Y-86085391D01*
X182297860Y-85632172D01*
X181875561Y-85350000D01*
X182297860Y-85067828D01*
X182600692Y-84614609D01*
X182707032Y-84080000D01*
X182600692Y-83545391D01*
X182297860Y-83092172D01*
X181870067Y-82806329D01*
X181915914Y-82793422D01*
X182347020Y-82453892D01*
X182615377Y-81975230D01*
X182632220Y-81883070D01*
X182509720Y-81667000D01*
X181167000Y-81667000D01*
X181167000Y-81687000D01*
X180913000Y-81687000D01*
X180913000Y-81667000D01*
X180893000Y-81667000D01*
X180893000Y-81413000D01*
X180913000Y-81413000D01*
X180913000Y-81393000D01*
X181167000Y-81393000D01*
X181167000Y-81413000D01*
X182509720Y-81413000D01*
X182632220Y-81196930D01*
X182615377Y-81104770D01*
X182347020Y-80626108D01*
X181915914Y-80286578D01*
X181870067Y-80273671D01*
X182297860Y-79987828D01*
X182600692Y-79534609D01*
X182707032Y-79000000D01*
X182600692Y-78465391D01*
X182297860Y-78012172D01*
X181844641Y-77709340D01*
X181310032Y-77603000D01*
X180769968Y-77603000D01*
X180235359Y-77709340D01*
X180010907Y-77859314D01*
X179964090Y-77786559D01*
X179751890Y-77641569D01*
X179500000Y-77590560D01*
X177500000Y-77590560D01*
X177264683Y-77634838D01*
X177048559Y-77773910D01*
X176903569Y-77986110D01*
X176852560Y-78238000D01*
X176852560Y-79762000D01*
X176896838Y-79997317D01*
X177035910Y-80213441D01*
X177248110Y-80358431D01*
X177466044Y-80402564D01*
X177242140Y-80552172D01*
X176939308Y-81005391D01*
X176832968Y-81540000D01*
X168801505Y-81540000D01*
X169277700Y-81519723D01*
X169717533Y-81337539D01*
X169802591Y-81082196D01*
X168910000Y-80189605D01*
X168017409Y-81082196D01*
X167453076Y-81082196D01*
X167661231Y-80874404D01*
X167672405Y-80847494D01*
X167837804Y-80902591D01*
X168730395Y-80010000D01*
X169089605Y-80010000D01*
X169982196Y-80902591D01*
X170237539Y-80817533D01*
X170445516Y-80248035D01*
X170419723Y-79642300D01*
X170237539Y-79202467D01*
X169982196Y-79117409D01*
X169089605Y-80010000D01*
X168730395Y-80010000D01*
X167837804Y-79117409D01*
X167672862Y-79172353D01*
X167662738Y-79147851D01*
X167453058Y-78937804D01*
X168017409Y-78937804D01*
X168910000Y-79830395D01*
X169802591Y-78937804D01*
X169717533Y-78682461D01*
X169148035Y-78474484D01*
X168542300Y-78500277D01*
X168102467Y-78682461D01*
X168017409Y-78937804D01*
X167453058Y-78937804D01*
X167234404Y-78718769D01*
X166674472Y-78486265D01*
X166068188Y-78485736D01*
X165507851Y-78717262D01*
X165324846Y-78899948D01*
X165322162Y-78885683D01*
X165183090Y-78669559D01*
X164970890Y-78524569D01*
X164719000Y-78473560D01*
X162941000Y-78473560D01*
X162705683Y-78517838D01*
X162560000Y-78611582D01*
X162560000Y-76275000D01*
X185472000Y-76275000D01*
X185472000Y-132005000D01*
M02*
