G04 #@! TF.FileFunction,Legend,Top*
%FSLAX46Y46*%
G04 Gerber Fmt 4.6, Leading zero omitted, Abs format (unit mm)*
G04 Created by KiCad (PCBNEW 4.0.6) date 08/10/17 20:33:06*
%MOMM*%
%LPD*%
G01*
G04 APERTURE LIST*
%ADD10C,0.100000*%
%ADD11C,0.150000*%
%ADD12C,0.120000*%
%ADD13C,0.127000*%
%ADD14C,0.500000*%
%ADD15C,0.114300*%
%ADD16C,0.200000*%
%ADD17C,0.180000*%
%ADD18C,0.190000*%
%ADD19C,0.125000*%
%ADD20C,0.300000*%
G04 APERTURE END LIST*
D10*
D11*
X167663953Y-107878571D02*
X167806810Y-107926190D01*
X167854429Y-107973810D01*
X167902048Y-108069048D01*
X167902048Y-108211905D01*
X167854429Y-108307143D01*
X167806810Y-108354762D01*
X167711572Y-108402381D01*
X167330619Y-108402381D01*
X167330619Y-107402381D01*
X167663953Y-107402381D01*
X167759191Y-107450000D01*
X167806810Y-107497619D01*
X167854429Y-107592857D01*
X167854429Y-107688095D01*
X167806810Y-107783333D01*
X167759191Y-107830952D01*
X167663953Y-107878571D01*
X167330619Y-107878571D01*
X168473476Y-108402381D02*
X168378238Y-108354762D01*
X168330619Y-108307143D01*
X168283000Y-108211905D01*
X168283000Y-107926190D01*
X168330619Y-107830952D01*
X168378238Y-107783333D01*
X168473476Y-107735714D01*
X168616334Y-107735714D01*
X168711572Y-107783333D01*
X168759191Y-107830952D01*
X168806810Y-107926190D01*
X168806810Y-108211905D01*
X168759191Y-108307143D01*
X168711572Y-108354762D01*
X168616334Y-108402381D01*
X168473476Y-108402381D01*
X169378238Y-108402381D02*
X169283000Y-108354762D01*
X169235381Y-108307143D01*
X169187762Y-108211905D01*
X169187762Y-107926190D01*
X169235381Y-107830952D01*
X169283000Y-107783333D01*
X169378238Y-107735714D01*
X169521096Y-107735714D01*
X169616334Y-107783333D01*
X169663953Y-107830952D01*
X169711572Y-107926190D01*
X169711572Y-108211905D01*
X169663953Y-108307143D01*
X169616334Y-108354762D01*
X169521096Y-108402381D01*
X169378238Y-108402381D01*
X169997286Y-107735714D02*
X170378238Y-107735714D01*
X170140143Y-107402381D02*
X170140143Y-108259524D01*
X170187762Y-108354762D01*
X170283000Y-108402381D01*
X170378238Y-108402381D01*
X143160905Y-129484381D02*
X142827571Y-129008190D01*
X142589476Y-129484381D02*
X142589476Y-128484381D01*
X142970429Y-128484381D01*
X143065667Y-128532000D01*
X143113286Y-128579619D01*
X143160905Y-128674857D01*
X143160905Y-128817714D01*
X143113286Y-128912952D01*
X143065667Y-128960571D01*
X142970429Y-129008190D01*
X142589476Y-129008190D01*
X143970429Y-129436762D02*
X143875191Y-129484381D01*
X143684714Y-129484381D01*
X143589476Y-129436762D01*
X143541857Y-129341524D01*
X143541857Y-128960571D01*
X143589476Y-128865333D01*
X143684714Y-128817714D01*
X143875191Y-128817714D01*
X143970429Y-128865333D01*
X144018048Y-128960571D01*
X144018048Y-129055810D01*
X143541857Y-129151048D01*
X144399000Y-129436762D02*
X144494238Y-129484381D01*
X144684714Y-129484381D01*
X144779953Y-129436762D01*
X144827572Y-129341524D01*
X144827572Y-129293905D01*
X144779953Y-129198667D01*
X144684714Y-129151048D01*
X144541857Y-129151048D01*
X144446619Y-129103429D01*
X144399000Y-129008190D01*
X144399000Y-128960571D01*
X144446619Y-128865333D01*
X144541857Y-128817714D01*
X144684714Y-128817714D01*
X144779953Y-128865333D01*
X145637096Y-129436762D02*
X145541858Y-129484381D01*
X145351381Y-129484381D01*
X145256143Y-129436762D01*
X145208524Y-129341524D01*
X145208524Y-128960571D01*
X145256143Y-128865333D01*
X145351381Y-128817714D01*
X145541858Y-128817714D01*
X145637096Y-128865333D01*
X145684715Y-128960571D01*
X145684715Y-129055810D01*
X145208524Y-129151048D01*
X145970429Y-128817714D02*
X146351381Y-128817714D01*
X146113286Y-128484381D02*
X146113286Y-129341524D01*
X146160905Y-129436762D01*
X146256143Y-129484381D01*
X146351381Y-129484381D01*
X142883619Y-101655571D02*
X143216953Y-101655571D01*
X143359810Y-102179381D02*
X142883619Y-102179381D01*
X142883619Y-101179381D01*
X143359810Y-101179381D01*
X143740762Y-102131762D02*
X143883619Y-102179381D01*
X144121715Y-102179381D01*
X144216953Y-102131762D01*
X144264572Y-102084143D01*
X144312191Y-101988905D01*
X144312191Y-101893667D01*
X144264572Y-101798429D01*
X144216953Y-101750810D01*
X144121715Y-101703190D01*
X143931238Y-101655571D01*
X143836000Y-101607952D01*
X143788381Y-101560333D01*
X143740762Y-101465095D01*
X143740762Y-101369857D01*
X143788381Y-101274619D01*
X143836000Y-101227000D01*
X143931238Y-101179381D01*
X144169334Y-101179381D01*
X144312191Y-101227000D01*
X144740762Y-102179381D02*
X144740762Y-101179381D01*
X145121715Y-101179381D01*
X145216953Y-101227000D01*
X145264572Y-101274619D01*
X145312191Y-101369857D01*
X145312191Y-101512714D01*
X145264572Y-101607952D01*
X145216953Y-101655571D01*
X145121715Y-101703190D01*
X144740762Y-101703190D01*
X145645524Y-101179381D02*
X146264572Y-101179381D01*
X145931238Y-101560333D01*
X146074096Y-101560333D01*
X146169334Y-101607952D01*
X146216953Y-101655571D01*
X146264572Y-101750810D01*
X146264572Y-101988905D01*
X146216953Y-102084143D01*
X146169334Y-102131762D01*
X146074096Y-102179381D01*
X145788381Y-102179381D01*
X145693143Y-102131762D01*
X145645524Y-102084143D01*
X146645524Y-101274619D02*
X146693143Y-101227000D01*
X146788381Y-101179381D01*
X147026477Y-101179381D01*
X147121715Y-101227000D01*
X147169334Y-101274619D01*
X147216953Y-101369857D01*
X147216953Y-101465095D01*
X147169334Y-101607952D01*
X146597905Y-102179381D01*
X147216953Y-102179381D01*
X147645524Y-101798429D02*
X148407429Y-101798429D01*
X148788381Y-101179381D02*
X149026476Y-102179381D01*
X149216953Y-101465095D01*
X149407429Y-102179381D01*
X149645524Y-101179381D01*
X150597905Y-102179381D02*
X150264571Y-101703190D01*
X150026476Y-102179381D02*
X150026476Y-101179381D01*
X150407429Y-101179381D01*
X150502667Y-101227000D01*
X150550286Y-101274619D01*
X150597905Y-101369857D01*
X150597905Y-101512714D01*
X150550286Y-101607952D01*
X150502667Y-101655571D01*
X150407429Y-101703190D01*
X150026476Y-101703190D01*
X151216952Y-101179381D02*
X151407429Y-101179381D01*
X151502667Y-101227000D01*
X151597905Y-101322238D01*
X151645524Y-101512714D01*
X151645524Y-101846048D01*
X151597905Y-102036524D01*
X151502667Y-102131762D01*
X151407429Y-102179381D01*
X151216952Y-102179381D01*
X151121714Y-102131762D01*
X151026476Y-102036524D01*
X150978857Y-101846048D01*
X150978857Y-101512714D01*
X151026476Y-101322238D01*
X151121714Y-101227000D01*
X151216952Y-101179381D01*
X152264571Y-101179381D02*
X152455048Y-101179381D01*
X152550286Y-101227000D01*
X152645524Y-101322238D01*
X152693143Y-101512714D01*
X152693143Y-101846048D01*
X152645524Y-102036524D01*
X152550286Y-102131762D01*
X152455048Y-102179381D01*
X152264571Y-102179381D01*
X152169333Y-102131762D01*
X152074095Y-102036524D01*
X152026476Y-101846048D01*
X152026476Y-101512714D01*
X152074095Y-101322238D01*
X152169333Y-101227000D01*
X152264571Y-101179381D01*
X153121714Y-102179381D02*
X153121714Y-101179381D01*
X153455048Y-101893667D01*
X153788381Y-101179381D01*
X153788381Y-102179381D01*
D12*
X140050000Y-109820000D02*
X139350000Y-109820000D01*
X139350000Y-108620000D02*
X140050000Y-108620000D01*
X140050000Y-106010000D02*
X139350000Y-106010000D01*
X139350000Y-104810000D02*
X140050000Y-104810000D01*
X148301000Y-114839000D02*
X148301000Y-115539000D01*
X147101000Y-115539000D02*
X147101000Y-114839000D01*
X146650000Y-106330000D02*
X146650000Y-107030000D01*
X145450000Y-107030000D02*
X145450000Y-106330000D01*
X166020000Y-99730000D02*
X166720000Y-99730000D01*
X166720000Y-100930000D02*
X166020000Y-100930000D01*
D13*
X170200000Y-76810000D02*
X170200000Y-82610000D01*
X162540000Y-76810000D02*
X170200000Y-76810000D01*
X162540000Y-82610000D02*
X162540000Y-76810000D01*
X170200000Y-82610000D02*
X162540000Y-82610000D01*
X170200000Y-82010000D02*
X162540000Y-82010000D01*
D12*
X141970000Y-127801000D02*
X146470000Y-127801000D01*
X140720000Y-123801000D02*
X140720000Y-125301000D01*
X146470000Y-121301000D02*
X141970000Y-121301000D01*
X147720000Y-125301000D02*
X147720000Y-123801000D01*
X162560000Y-106680000D02*
X162560000Y-104140000D01*
X162560000Y-104140000D02*
X170180000Y-104140000D01*
X170180000Y-104140000D02*
X170180000Y-106680000D01*
X170180000Y-106680000D02*
X162560000Y-106680000D01*
X165100000Y-104140000D02*
X165100000Y-106680000D01*
D14*
X138967981Y-79756000D02*
G75*
G03X138967981Y-79756000I-283981J0D01*
G01*
D11*
X157590000Y-79610000D02*
X139590000Y-79610000D01*
X139590000Y-73610000D02*
X139590000Y-99110000D01*
X157590000Y-73610000D02*
X157590000Y-99110000D01*
X157590000Y-99110000D02*
X139590000Y-99110000D01*
X157590000Y-73610000D02*
X139590000Y-73610000D01*
X177230000Y-128530000D02*
X177230000Y-77730000D01*
X182310000Y-128530000D02*
X182310000Y-77730000D01*
X182310000Y-128530000D02*
X177230000Y-128530000D01*
X182310000Y-77730000D02*
X177230000Y-77730000D01*
D12*
X166843000Y-118228000D02*
X165643000Y-118228000D01*
X165643000Y-116468000D02*
X166843000Y-116468000D01*
X153280000Y-106080000D02*
X153280000Y-107280000D01*
X151520000Y-107280000D02*
X151520000Y-106080000D01*
X141977000Y-114462000D02*
X141977000Y-115662000D01*
X140217000Y-115662000D02*
X140217000Y-114462000D01*
X164710000Y-93380000D02*
X164710000Y-94580000D01*
X162950000Y-94580000D02*
X162950000Y-93380000D01*
X168030000Y-94580000D02*
X168030000Y-93380000D01*
X169790000Y-93380000D02*
X169790000Y-94580000D01*
X158150000Y-111261000D02*
X159350000Y-111261000D01*
X159350000Y-113021000D02*
X158150000Y-113021000D01*
X165643000Y-111261000D02*
X166843000Y-111261000D01*
X166843000Y-113021000D02*
X165643000Y-113021000D01*
X158360000Y-106080000D02*
X158360000Y-107280000D01*
X156600000Y-107280000D02*
X156600000Y-106080000D01*
X165670000Y-125117000D02*
X167070000Y-125117000D01*
X167070000Y-125117000D02*
X167070000Y-122317000D01*
X165670000Y-125117000D02*
X165670000Y-122317000D01*
X169610000Y-85830000D02*
X168210000Y-85830000D01*
X168210000Y-85830000D02*
X168210000Y-88630000D01*
X169610000Y-85830000D02*
X169610000Y-88630000D01*
X164530000Y-85830000D02*
X163130000Y-85830000D01*
X163130000Y-85830000D02*
X163130000Y-88630000D01*
X164530000Y-85830000D02*
X164530000Y-88630000D01*
D10*
G36*
X161253714Y-120149979D02*
X161216746Y-120356891D01*
X161123012Y-120641800D01*
X160998272Y-120939897D01*
X160868281Y-121186374D01*
X160841376Y-121224413D01*
X160841376Y-120653299D01*
X160776326Y-120340062D01*
X160587112Y-120132622D01*
X160282639Y-120039329D01*
X160181636Y-120034792D01*
X159847516Y-120095777D01*
X159626248Y-120273165D01*
X159526734Y-120558608D01*
X159521896Y-120653299D01*
X159586946Y-120966536D01*
X159776159Y-121173975D01*
X160080633Y-121267269D01*
X160181636Y-121271805D01*
X160515606Y-121213492D01*
X160676441Y-121106870D01*
X160810315Y-120869030D01*
X160841376Y-120653299D01*
X160841376Y-121224413D01*
X160807856Y-121271805D01*
X160731749Y-121398925D01*
X160613220Y-121638365D01*
X160471792Y-121949585D01*
X160390876Y-122137714D01*
X160139635Y-122706272D01*
X159867718Y-123273808D01*
X159587494Y-123818693D01*
X159311334Y-124319296D01*
X159274493Y-124380955D01*
X159274493Y-120653299D01*
X159270598Y-120337064D01*
X159252834Y-120151516D01*
X159212089Y-120062476D01*
X159139247Y-120035762D01*
X159109558Y-120034792D01*
X158988831Y-120073671D01*
X158946325Y-120218331D01*
X158944623Y-120282195D01*
X158924189Y-120457430D01*
X158827798Y-120522018D01*
X158697220Y-120529598D01*
X158521985Y-120509163D01*
X158457397Y-120412773D01*
X158449818Y-120282195D01*
X158423898Y-120101104D01*
X158327459Y-120037345D01*
X158284883Y-120034792D01*
X158200553Y-120049401D01*
X158151074Y-120116012D01*
X158127330Y-120268807D01*
X158120206Y-120541964D01*
X158119948Y-120653299D01*
X158123843Y-120969533D01*
X158141606Y-121155081D01*
X158182351Y-121244122D01*
X158255193Y-121270835D01*
X158284883Y-121271805D01*
X158398559Y-121239518D01*
X158444426Y-121113472D01*
X158449818Y-120983169D01*
X158463609Y-120789245D01*
X158533564Y-120709706D01*
X158697220Y-120694533D01*
X158863441Y-120710623D01*
X158931617Y-120792237D01*
X158944623Y-120983169D01*
X158963073Y-121182103D01*
X159035099Y-121262370D01*
X159109558Y-121271805D01*
X159193887Y-121257197D01*
X159243367Y-121190586D01*
X159267111Y-121037791D01*
X159274234Y-120764634D01*
X159274493Y-120653299D01*
X159274493Y-124380955D01*
X159051610Y-124753986D01*
X158820692Y-125101132D01*
X158630952Y-125339103D01*
X158499691Y-125444512D01*
X158378102Y-125431002D01*
X158156445Y-125357892D01*
X157881465Y-125240746D01*
X157872545Y-125236546D01*
X157872545Y-121138490D01*
X157828706Y-121045405D01*
X157674623Y-121043159D01*
X157656776Y-121046422D01*
X157435011Y-121020945D01*
X157241128Y-120892310D01*
X157135755Y-120705790D01*
X157130337Y-120653299D01*
X157202303Y-120458398D01*
X157376393Y-120304991D01*
X157589896Y-120240309D01*
X157667632Y-120248645D01*
X157823982Y-120261616D01*
X157872279Y-120179533D01*
X157872545Y-120167434D01*
X157832247Y-120081720D01*
X157688303Y-120041936D01*
X157501441Y-120034792D01*
X157147195Y-120089653D01*
X156916088Y-120253882D01*
X156808717Y-120526956D01*
X156800467Y-120653299D01*
X156862642Y-120965869D01*
X157048769Y-121169787D01*
X157358252Y-121264526D01*
X157501441Y-121271805D01*
X157740962Y-121257515D01*
X157852243Y-121206291D01*
X157872545Y-121138490D01*
X157872545Y-125236546D01*
X157866315Y-125233614D01*
X157310041Y-125033938D01*
X156779238Y-124984886D01*
X156553065Y-125026843D01*
X156553065Y-120653299D01*
X156549169Y-120337064D01*
X156531406Y-120151516D01*
X156490661Y-120062476D01*
X156417819Y-120035762D01*
X156388129Y-120034792D01*
X156282651Y-120060769D01*
X156234125Y-120167106D01*
X156222414Y-120385279D01*
X156221634Y-120735766D01*
X156011571Y-120385279D01*
X155843995Y-120151431D01*
X155688269Y-120047267D01*
X155600014Y-120034792D01*
X155497505Y-120043063D01*
X155437414Y-120091024D01*
X155408429Y-120213397D01*
X155399238Y-120444906D01*
X155398519Y-120653299D01*
X155402415Y-120969533D01*
X155420178Y-121155081D01*
X155460923Y-121244122D01*
X155533765Y-121270835D01*
X155563454Y-121271805D01*
X155668932Y-121245829D01*
X155717459Y-121139492D01*
X155729169Y-120921318D01*
X155729950Y-120570831D01*
X155940012Y-120921318D01*
X156107588Y-121155167D01*
X156263315Y-121259330D01*
X156351570Y-121271805D01*
X156454078Y-121263535D01*
X156514169Y-121215574D01*
X156543154Y-121093200D01*
X156552345Y-120861692D01*
X156553065Y-120653299D01*
X156553065Y-125026843D01*
X156235590Y-125085738D01*
X155934558Y-125197415D01*
X155658534Y-125312832D01*
X155432037Y-125403797D01*
X155316052Y-125446513D01*
X155199124Y-125402399D01*
X155151116Y-125361033D01*
X155151116Y-120653299D01*
X155086066Y-120340062D01*
X154896853Y-120132622D01*
X154592380Y-120039329D01*
X154491376Y-120034792D01*
X154157257Y-120095777D01*
X153935988Y-120273165D01*
X153836475Y-120558608D01*
X153831636Y-120653299D01*
X153896686Y-120966536D01*
X154085900Y-121173975D01*
X154390373Y-121267269D01*
X154491376Y-121271805D01*
X154825347Y-121213492D01*
X154986181Y-121106870D01*
X155120055Y-120869030D01*
X155151116Y-120653299D01*
X155151116Y-125361033D01*
X155000824Y-125231536D01*
X154732180Y-124943799D01*
X154656311Y-124855924D01*
X154348139Y-124484270D01*
X154085799Y-124140429D01*
X153847659Y-123790116D01*
X153749168Y-123626614D01*
X153749168Y-120447130D01*
X153710515Y-120231020D01*
X153577854Y-120101720D01*
X153326131Y-120042961D01*
X153114168Y-120034792D01*
X152677090Y-120034792D01*
X152677090Y-120653299D01*
X152680986Y-120969533D01*
X152698749Y-121155081D01*
X152739494Y-121244122D01*
X152812336Y-121270835D01*
X152842026Y-121271805D01*
X152971361Y-121223485D01*
X153006961Y-121065637D01*
X153030327Y-120923227D01*
X153133269Y-120867232D01*
X153279103Y-120859468D01*
X153557350Y-120811793D01*
X153709932Y-120662235D01*
X153749168Y-120447130D01*
X153749168Y-123626614D01*
X153612084Y-123399046D01*
X153357442Y-122932935D01*
X153062100Y-122357499D01*
X152993195Y-122220182D01*
X152790554Y-121817996D01*
X152610532Y-121465910D01*
X152467373Y-121191385D01*
X152375322Y-121021880D01*
X152351488Y-120983169D01*
X152238287Y-120715262D01*
X152247598Y-120408701D01*
X152325920Y-120214928D01*
X152506246Y-119982761D01*
X152747229Y-119749825D01*
X152988117Y-119571418D01*
X153089428Y-119519986D01*
X153202414Y-119448742D01*
X153407280Y-119295489D01*
X153670796Y-119085692D01*
X153856847Y-118931858D01*
X154239606Y-118625273D01*
X154624040Y-118342849D01*
X154982115Y-118102844D01*
X155285798Y-117923518D01*
X155507055Y-117823129D01*
X155582077Y-117808169D01*
X155725245Y-117865013D01*
X155849204Y-117969915D01*
X155919177Y-118058911D01*
X155949535Y-118155628D01*
X155938852Y-118300694D01*
X155885698Y-118534739D01*
X155820752Y-118779589D01*
X155715923Y-119162459D01*
X155654300Y-119434087D01*
X155655106Y-119613449D01*
X155737564Y-119719520D01*
X155920895Y-119771274D01*
X156224322Y-119787686D01*
X156667068Y-119787733D01*
X156841701Y-119787390D01*
X157334616Y-119783848D01*
X157681601Y-119772121D01*
X157901529Y-119750554D01*
X158013275Y-119717495D01*
X158037480Y-119682648D01*
X158016521Y-119556660D01*
X157961133Y-119319674D01*
X157882548Y-119019181D01*
X157868407Y-118967787D01*
X157761088Y-118521153D01*
X157726894Y-118207369D01*
X157766676Y-118011028D01*
X157881285Y-117916721D01*
X157926992Y-117906488D01*
X158138553Y-117937090D01*
X158457874Y-118065811D01*
X158867801Y-118283071D01*
X159351175Y-118579287D01*
X159890841Y-118944878D01*
X160243487Y-119200187D01*
X160647546Y-119504697D01*
X160932754Y-119733510D01*
X161116878Y-119903333D01*
X161217689Y-120030872D01*
X161252955Y-120132833D01*
X161253714Y-120149979D01*
X161253714Y-120149979D01*
X161253714Y-120149979D01*
G37*
X161253714Y-120149979D02*
X161216746Y-120356891D01*
X161123012Y-120641800D01*
X160998272Y-120939897D01*
X160868281Y-121186374D01*
X160841376Y-121224413D01*
X160841376Y-120653299D01*
X160776326Y-120340062D01*
X160587112Y-120132622D01*
X160282639Y-120039329D01*
X160181636Y-120034792D01*
X159847516Y-120095777D01*
X159626248Y-120273165D01*
X159526734Y-120558608D01*
X159521896Y-120653299D01*
X159586946Y-120966536D01*
X159776159Y-121173975D01*
X160080633Y-121267269D01*
X160181636Y-121271805D01*
X160515606Y-121213492D01*
X160676441Y-121106870D01*
X160810315Y-120869030D01*
X160841376Y-120653299D01*
X160841376Y-121224413D01*
X160807856Y-121271805D01*
X160731749Y-121398925D01*
X160613220Y-121638365D01*
X160471792Y-121949585D01*
X160390876Y-122137714D01*
X160139635Y-122706272D01*
X159867718Y-123273808D01*
X159587494Y-123818693D01*
X159311334Y-124319296D01*
X159274493Y-124380955D01*
X159274493Y-120653299D01*
X159270598Y-120337064D01*
X159252834Y-120151516D01*
X159212089Y-120062476D01*
X159139247Y-120035762D01*
X159109558Y-120034792D01*
X158988831Y-120073671D01*
X158946325Y-120218331D01*
X158944623Y-120282195D01*
X158924189Y-120457430D01*
X158827798Y-120522018D01*
X158697220Y-120529598D01*
X158521985Y-120509163D01*
X158457397Y-120412773D01*
X158449818Y-120282195D01*
X158423898Y-120101104D01*
X158327459Y-120037345D01*
X158284883Y-120034792D01*
X158200553Y-120049401D01*
X158151074Y-120116012D01*
X158127330Y-120268807D01*
X158120206Y-120541964D01*
X158119948Y-120653299D01*
X158123843Y-120969533D01*
X158141606Y-121155081D01*
X158182351Y-121244122D01*
X158255193Y-121270835D01*
X158284883Y-121271805D01*
X158398559Y-121239518D01*
X158444426Y-121113472D01*
X158449818Y-120983169D01*
X158463609Y-120789245D01*
X158533564Y-120709706D01*
X158697220Y-120694533D01*
X158863441Y-120710623D01*
X158931617Y-120792237D01*
X158944623Y-120983169D01*
X158963073Y-121182103D01*
X159035099Y-121262370D01*
X159109558Y-121271805D01*
X159193887Y-121257197D01*
X159243367Y-121190586D01*
X159267111Y-121037791D01*
X159274234Y-120764634D01*
X159274493Y-120653299D01*
X159274493Y-124380955D01*
X159051610Y-124753986D01*
X158820692Y-125101132D01*
X158630952Y-125339103D01*
X158499691Y-125444512D01*
X158378102Y-125431002D01*
X158156445Y-125357892D01*
X157881465Y-125240746D01*
X157872545Y-125236546D01*
X157872545Y-121138490D01*
X157828706Y-121045405D01*
X157674623Y-121043159D01*
X157656776Y-121046422D01*
X157435011Y-121020945D01*
X157241128Y-120892310D01*
X157135755Y-120705790D01*
X157130337Y-120653299D01*
X157202303Y-120458398D01*
X157376393Y-120304991D01*
X157589896Y-120240309D01*
X157667632Y-120248645D01*
X157823982Y-120261616D01*
X157872279Y-120179533D01*
X157872545Y-120167434D01*
X157832247Y-120081720D01*
X157688303Y-120041936D01*
X157501441Y-120034792D01*
X157147195Y-120089653D01*
X156916088Y-120253882D01*
X156808717Y-120526956D01*
X156800467Y-120653299D01*
X156862642Y-120965869D01*
X157048769Y-121169787D01*
X157358252Y-121264526D01*
X157501441Y-121271805D01*
X157740962Y-121257515D01*
X157852243Y-121206291D01*
X157872545Y-121138490D01*
X157872545Y-125236546D01*
X157866315Y-125233614D01*
X157310041Y-125033938D01*
X156779238Y-124984886D01*
X156553065Y-125026843D01*
X156553065Y-120653299D01*
X156549169Y-120337064D01*
X156531406Y-120151516D01*
X156490661Y-120062476D01*
X156417819Y-120035762D01*
X156388129Y-120034792D01*
X156282651Y-120060769D01*
X156234125Y-120167106D01*
X156222414Y-120385279D01*
X156221634Y-120735766D01*
X156011571Y-120385279D01*
X155843995Y-120151431D01*
X155688269Y-120047267D01*
X155600014Y-120034792D01*
X155497505Y-120043063D01*
X155437414Y-120091024D01*
X155408429Y-120213397D01*
X155399238Y-120444906D01*
X155398519Y-120653299D01*
X155402415Y-120969533D01*
X155420178Y-121155081D01*
X155460923Y-121244122D01*
X155533765Y-121270835D01*
X155563454Y-121271805D01*
X155668932Y-121245829D01*
X155717459Y-121139492D01*
X155729169Y-120921318D01*
X155729950Y-120570831D01*
X155940012Y-120921318D01*
X156107588Y-121155167D01*
X156263315Y-121259330D01*
X156351570Y-121271805D01*
X156454078Y-121263535D01*
X156514169Y-121215574D01*
X156543154Y-121093200D01*
X156552345Y-120861692D01*
X156553065Y-120653299D01*
X156553065Y-125026843D01*
X156235590Y-125085738D01*
X155934558Y-125197415D01*
X155658534Y-125312832D01*
X155432037Y-125403797D01*
X155316052Y-125446513D01*
X155199124Y-125402399D01*
X155151116Y-125361033D01*
X155151116Y-120653299D01*
X155086066Y-120340062D01*
X154896853Y-120132622D01*
X154592380Y-120039329D01*
X154491376Y-120034792D01*
X154157257Y-120095777D01*
X153935988Y-120273165D01*
X153836475Y-120558608D01*
X153831636Y-120653299D01*
X153896686Y-120966536D01*
X154085900Y-121173975D01*
X154390373Y-121267269D01*
X154491376Y-121271805D01*
X154825347Y-121213492D01*
X154986181Y-121106870D01*
X155120055Y-120869030D01*
X155151116Y-120653299D01*
X155151116Y-125361033D01*
X155000824Y-125231536D01*
X154732180Y-124943799D01*
X154656311Y-124855924D01*
X154348139Y-124484270D01*
X154085799Y-124140429D01*
X153847659Y-123790116D01*
X153749168Y-123626614D01*
X153749168Y-120447130D01*
X153710515Y-120231020D01*
X153577854Y-120101720D01*
X153326131Y-120042961D01*
X153114168Y-120034792D01*
X152677090Y-120034792D01*
X152677090Y-120653299D01*
X152680986Y-120969533D01*
X152698749Y-121155081D01*
X152739494Y-121244122D01*
X152812336Y-121270835D01*
X152842026Y-121271805D01*
X152971361Y-121223485D01*
X153006961Y-121065637D01*
X153030327Y-120923227D01*
X153133269Y-120867232D01*
X153279103Y-120859468D01*
X153557350Y-120811793D01*
X153709932Y-120662235D01*
X153749168Y-120447130D01*
X153749168Y-123626614D01*
X153612084Y-123399046D01*
X153357442Y-122932935D01*
X153062100Y-122357499D01*
X152993195Y-122220182D01*
X152790554Y-121817996D01*
X152610532Y-121465910D01*
X152467373Y-121191385D01*
X152375322Y-121021880D01*
X152351488Y-120983169D01*
X152238287Y-120715262D01*
X152247598Y-120408701D01*
X152325920Y-120214928D01*
X152506246Y-119982761D01*
X152747229Y-119749825D01*
X152988117Y-119571418D01*
X153089428Y-119519986D01*
X153202414Y-119448742D01*
X153407280Y-119295489D01*
X153670796Y-119085692D01*
X153856847Y-118931858D01*
X154239606Y-118625273D01*
X154624040Y-118342849D01*
X154982115Y-118102844D01*
X155285798Y-117923518D01*
X155507055Y-117823129D01*
X155582077Y-117808169D01*
X155725245Y-117865013D01*
X155849204Y-117969915D01*
X155919177Y-118058911D01*
X155949535Y-118155628D01*
X155938852Y-118300694D01*
X155885698Y-118534739D01*
X155820752Y-118779589D01*
X155715923Y-119162459D01*
X155654300Y-119434087D01*
X155655106Y-119613449D01*
X155737564Y-119719520D01*
X155920895Y-119771274D01*
X156224322Y-119787686D01*
X156667068Y-119787733D01*
X156841701Y-119787390D01*
X157334616Y-119783848D01*
X157681601Y-119772121D01*
X157901529Y-119750554D01*
X158013275Y-119717495D01*
X158037480Y-119682648D01*
X158016521Y-119556660D01*
X157961133Y-119319674D01*
X157882548Y-119019181D01*
X157868407Y-118967787D01*
X157761088Y-118521153D01*
X157726894Y-118207369D01*
X157766676Y-118011028D01*
X157881285Y-117916721D01*
X157926992Y-117906488D01*
X158138553Y-117937090D01*
X158457874Y-118065811D01*
X158867801Y-118283071D01*
X159351175Y-118579287D01*
X159890841Y-118944878D01*
X160243487Y-119200187D01*
X160647546Y-119504697D01*
X160932754Y-119733510D01*
X161116878Y-119903333D01*
X161217689Y-120030872D01*
X161252955Y-120132833D01*
X161253714Y-120149979D01*
X161253714Y-120149979D01*
G36*
X157741542Y-117040681D02*
X157613402Y-117387555D01*
X157397417Y-117664770D01*
X157281302Y-117794644D01*
X157226034Y-117907302D01*
X157224066Y-118056019D01*
X157267854Y-118294070D01*
X157292294Y-118406978D01*
X157376312Y-118803812D01*
X157414110Y-119067578D01*
X157393383Y-119226618D01*
X157301822Y-119309277D01*
X157127122Y-119343896D01*
X156879440Y-119357813D01*
X156594450Y-119361805D01*
X156378118Y-119348737D01*
X156281550Y-119323451D01*
X156227692Y-119158732D01*
X156251559Y-118853316D01*
X156352776Y-118411778D01*
X156357985Y-118392942D01*
X156492775Y-117908128D01*
X156229192Y-117672596D01*
X156003647Y-117374415D01*
X155909576Y-117030176D01*
X155942480Y-116680477D01*
X156097862Y-116365915D01*
X156371223Y-116127085D01*
X156402290Y-116110262D01*
X156751719Y-116013095D01*
X157098075Y-116061270D01*
X157405140Y-116238559D01*
X157636691Y-116528735D01*
X157707692Y-116695105D01*
X157741542Y-117040681D01*
X157741542Y-117040681D01*
X157741542Y-117040681D01*
G37*
X157741542Y-117040681D02*
X157613402Y-117387555D01*
X157397417Y-117664770D01*
X157281302Y-117794644D01*
X157226034Y-117907302D01*
X157224066Y-118056019D01*
X157267854Y-118294070D01*
X157292294Y-118406978D01*
X157376312Y-118803812D01*
X157414110Y-119067578D01*
X157393383Y-119226618D01*
X157301822Y-119309277D01*
X157127122Y-119343896D01*
X156879440Y-119357813D01*
X156594450Y-119361805D01*
X156378118Y-119348737D01*
X156281550Y-119323451D01*
X156227692Y-119158732D01*
X156251559Y-118853316D01*
X156352776Y-118411778D01*
X156357985Y-118392942D01*
X156492775Y-117908128D01*
X156229192Y-117672596D01*
X156003647Y-117374415D01*
X155909576Y-117030176D01*
X155942480Y-116680477D01*
X156097862Y-116365915D01*
X156371223Y-116127085D01*
X156402290Y-116110262D01*
X156751719Y-116013095D01*
X157098075Y-116061270D01*
X157405140Y-116238559D01*
X157636691Y-116528735D01*
X157707692Y-116695105D01*
X157741542Y-117040681D01*
X157741542Y-117040681D01*
G36*
X153397921Y-120455422D02*
X153336831Y-120570831D01*
X153180394Y-120689559D01*
X153061056Y-120654350D01*
X153007586Y-120475993D01*
X153006961Y-120447130D01*
X153051119Y-120253179D01*
X153164417Y-120201150D01*
X153318085Y-120301830D01*
X153336831Y-120323429D01*
X153397921Y-120455422D01*
X153397921Y-120455422D01*
X153397921Y-120455422D01*
G37*
X153397921Y-120455422D02*
X153336831Y-120570831D01*
X153180394Y-120689559D01*
X153061056Y-120654350D01*
X153007586Y-120475993D01*
X153006961Y-120447130D01*
X153051119Y-120253179D01*
X153164417Y-120201150D01*
X153318085Y-120301830D01*
X153336831Y-120323429D01*
X153397921Y-120455422D01*
X153397921Y-120455422D01*
G36*
X154806176Y-120630300D02*
X154782806Y-120770268D01*
X154711355Y-120891199D01*
X154589495Y-121042484D01*
X154492528Y-121106848D01*
X154491376Y-121106870D01*
X154395357Y-121044542D01*
X154273448Y-120894317D01*
X154271397Y-120891199D01*
X154180594Y-120720160D01*
X154191440Y-120579983D01*
X154252042Y-120458244D01*
X154374518Y-120303105D01*
X154491376Y-120240961D01*
X154611963Y-120306490D01*
X154730711Y-120458244D01*
X154806176Y-120630300D01*
X154806176Y-120630300D01*
X154806176Y-120630300D01*
G37*
X154806176Y-120630300D02*
X154782806Y-120770268D01*
X154711355Y-120891199D01*
X154589495Y-121042484D01*
X154492528Y-121106848D01*
X154491376Y-121106870D01*
X154395357Y-121044542D01*
X154273448Y-120894317D01*
X154271397Y-120891199D01*
X154180594Y-120720160D01*
X154191440Y-120579983D01*
X154252042Y-120458244D01*
X154374518Y-120303105D01*
X154491376Y-120240961D01*
X154611963Y-120306490D01*
X154730711Y-120458244D01*
X154806176Y-120630300D01*
X154806176Y-120630300D01*
G36*
X160496435Y-120630300D02*
X160473065Y-120770268D01*
X160401615Y-120891199D01*
X160279755Y-121042484D01*
X160182788Y-121106848D01*
X160181636Y-121106870D01*
X160085616Y-121044542D01*
X159963708Y-120894317D01*
X159961657Y-120891199D01*
X159870854Y-120720160D01*
X159881699Y-120579983D01*
X159942301Y-120458244D01*
X160064778Y-120303105D01*
X160181636Y-120240961D01*
X160302223Y-120306490D01*
X160420971Y-120458244D01*
X160496435Y-120630300D01*
X160496435Y-120630300D01*
X160496435Y-120630300D01*
G37*
X160496435Y-120630300D02*
X160473065Y-120770268D01*
X160401615Y-120891199D01*
X160279755Y-121042484D01*
X160182788Y-121106848D01*
X160181636Y-121106870D01*
X160085616Y-121044542D01*
X159963708Y-120894317D01*
X159961657Y-120891199D01*
X159870854Y-120720160D01*
X159881699Y-120579983D01*
X159942301Y-120458244D01*
X160064778Y-120303105D01*
X160181636Y-120240961D01*
X160302223Y-120306490D01*
X160420971Y-120458244D01*
X160496435Y-120630300D01*
X160496435Y-120630300D01*
D11*
X139152334Y-108307143D02*
X139104715Y-108354762D01*
X138961858Y-108402381D01*
X138866620Y-108402381D01*
X138723762Y-108354762D01*
X138628524Y-108259524D01*
X138580905Y-108164286D01*
X138533286Y-107973810D01*
X138533286Y-107830952D01*
X138580905Y-107640476D01*
X138628524Y-107545238D01*
X138723762Y-107450000D01*
X138866620Y-107402381D01*
X138961858Y-107402381D01*
X139104715Y-107450000D01*
X139152334Y-107497619D01*
X140104715Y-108402381D02*
X139533286Y-108402381D01*
X139819000Y-108402381D02*
X139819000Y-107402381D01*
X139723762Y-107545238D01*
X139628524Y-107640476D01*
X139533286Y-107688095D01*
X139406334Y-104497143D02*
X139358715Y-104544762D01*
X139215858Y-104592381D01*
X139120620Y-104592381D01*
X138977762Y-104544762D01*
X138882524Y-104449524D01*
X138834905Y-104354286D01*
X138787286Y-104163810D01*
X138787286Y-104020952D01*
X138834905Y-103830476D01*
X138882524Y-103735238D01*
X138977762Y-103640000D01*
X139120620Y-103592381D01*
X139215858Y-103592381D01*
X139358715Y-103640000D01*
X139406334Y-103687619D01*
X139787286Y-103687619D02*
X139834905Y-103640000D01*
X139930143Y-103592381D01*
X140168239Y-103592381D01*
X140263477Y-103640000D01*
X140311096Y-103687619D01*
X140358715Y-103782857D01*
X140358715Y-103878095D01*
X140311096Y-104020952D01*
X139739667Y-104592381D01*
X140358715Y-104592381D01*
X149312334Y-116689143D02*
X149264715Y-116736762D01*
X149121858Y-116784381D01*
X149026620Y-116784381D01*
X148883762Y-116736762D01*
X148788524Y-116641524D01*
X148740905Y-116546286D01*
X148693286Y-116355810D01*
X148693286Y-116212952D01*
X148740905Y-116022476D01*
X148788524Y-115927238D01*
X148883762Y-115832000D01*
X149026620Y-115784381D01*
X149121858Y-115784381D01*
X149264715Y-115832000D01*
X149312334Y-115879619D01*
X149645667Y-115784381D02*
X150264715Y-115784381D01*
X149931381Y-116165333D01*
X150074239Y-116165333D01*
X150169477Y-116212952D01*
X150217096Y-116260571D01*
X150264715Y-116355810D01*
X150264715Y-116593905D01*
X150217096Y-116689143D01*
X150169477Y-116736762D01*
X150074239Y-116784381D01*
X149788524Y-116784381D01*
X149693286Y-116736762D01*
X149645667Y-116689143D01*
X145010143Y-107735666D02*
X145057762Y-107783285D01*
X145105381Y-107926142D01*
X145105381Y-108021380D01*
X145057762Y-108164238D01*
X144962524Y-108259476D01*
X144867286Y-108307095D01*
X144676810Y-108354714D01*
X144533952Y-108354714D01*
X144343476Y-108307095D01*
X144248238Y-108259476D01*
X144153000Y-108164238D01*
X144105381Y-108021380D01*
X144105381Y-107926142D01*
X144153000Y-107783285D01*
X144200619Y-107735666D01*
X144438714Y-106878523D02*
X145105381Y-106878523D01*
X144057762Y-107116619D02*
X144772048Y-107354714D01*
X144772048Y-106735666D01*
X166203334Y-99187143D02*
X166155715Y-99234762D01*
X166012858Y-99282381D01*
X165917620Y-99282381D01*
X165774762Y-99234762D01*
X165679524Y-99139524D01*
X165631905Y-99044286D01*
X165584286Y-98853810D01*
X165584286Y-98710952D01*
X165631905Y-98520476D01*
X165679524Y-98425238D01*
X165774762Y-98330000D01*
X165917620Y-98282381D01*
X166012858Y-98282381D01*
X166155715Y-98330000D01*
X166203334Y-98377619D01*
X167108096Y-98282381D02*
X166631905Y-98282381D01*
X166584286Y-98758571D01*
X166631905Y-98710952D01*
X166727143Y-98663333D01*
X166965239Y-98663333D01*
X167060477Y-98710952D01*
X167108096Y-98758571D01*
X167155715Y-98853810D01*
X167155715Y-99091905D01*
X167108096Y-99187143D01*
X167060477Y-99234762D01*
X166965239Y-99282381D01*
X166727143Y-99282381D01*
X166631905Y-99234762D01*
X166584286Y-99187143D01*
D15*
X171805600Y-76671714D02*
X171805600Y-77216000D01*
X171783828Y-77324857D01*
X171740285Y-77397429D01*
X171674971Y-77433714D01*
X171631428Y-77433714D01*
X172262800Y-77433714D02*
X172001543Y-77433714D01*
X172132171Y-77433714D02*
X172132171Y-76671714D01*
X172088628Y-76780571D01*
X172045086Y-76853143D01*
X172001543Y-76889429D01*
D13*
D11*
X142886667Y-120705762D02*
X143029524Y-120753381D01*
X143267620Y-120753381D01*
X143362858Y-120705762D01*
X143410477Y-120658143D01*
X143458096Y-120562905D01*
X143458096Y-120467667D01*
X143410477Y-120372429D01*
X143362858Y-120324810D01*
X143267620Y-120277190D01*
X143077143Y-120229571D01*
X142981905Y-120181952D01*
X142934286Y-120134333D01*
X142886667Y-120039095D01*
X142886667Y-119943857D01*
X142934286Y-119848619D01*
X142981905Y-119801000D01*
X143077143Y-119753381D01*
X143315239Y-119753381D01*
X143458096Y-119801000D01*
X143791429Y-119753381D02*
X144029524Y-120753381D01*
X144220001Y-120039095D01*
X144410477Y-120753381D01*
X144648572Y-119753381D01*
X145553334Y-120753381D02*
X144981905Y-120753381D01*
X145267619Y-120753381D02*
X145267619Y-119753381D01*
X145172381Y-119896238D01*
X145077143Y-119991476D01*
X144981905Y-120039095D01*
X164782667Y-103655762D02*
X164925524Y-103703381D01*
X165163620Y-103703381D01*
X165258858Y-103655762D01*
X165306477Y-103608143D01*
X165354096Y-103512905D01*
X165354096Y-103417667D01*
X165306477Y-103322429D01*
X165258858Y-103274810D01*
X165163620Y-103227190D01*
X164973143Y-103179571D01*
X164877905Y-103131952D01*
X164830286Y-103084333D01*
X164782667Y-102989095D01*
X164782667Y-102893857D01*
X164830286Y-102798619D01*
X164877905Y-102751000D01*
X164973143Y-102703381D01*
X165211239Y-102703381D01*
X165354096Y-102751000D01*
X165687429Y-102703381D02*
X165925524Y-103703381D01*
X166116001Y-102989095D01*
X166306477Y-103703381D01*
X166544572Y-102703381D01*
X166877905Y-102798619D02*
X166925524Y-102751000D01*
X167020762Y-102703381D01*
X167258858Y-102703381D01*
X167354096Y-102751000D01*
X167401715Y-102798619D01*
X167449334Y-102893857D01*
X167449334Y-102989095D01*
X167401715Y-103131952D01*
X166830286Y-103703381D01*
X167449334Y-103703381D01*
X158496095Y-76414381D02*
X158496095Y-77223905D01*
X158543714Y-77319143D01*
X158591333Y-77366762D01*
X158686571Y-77414381D01*
X158877048Y-77414381D01*
X158972286Y-77366762D01*
X159019905Y-77319143D01*
X159067524Y-77223905D01*
X159067524Y-76414381D01*
X160067524Y-77414381D02*
X159496095Y-77414381D01*
X159781809Y-77414381D02*
X159781809Y-76414381D01*
X159686571Y-76557238D01*
X159591333Y-76652476D01*
X159496095Y-76700095D01*
X155376571Y-93820430D02*
X155376571Y-93487096D01*
X155900381Y-93344239D02*
X155900381Y-93820430D01*
X154900381Y-93820430D01*
X154900381Y-93344239D01*
X155852762Y-92963287D02*
X155900381Y-92868049D01*
X155900381Y-92677573D01*
X155852762Y-92582334D01*
X155757524Y-92534715D01*
X155709905Y-92534715D01*
X155614667Y-92582334D01*
X155567048Y-92677573D01*
X155567048Y-92820430D01*
X155519429Y-92915668D01*
X155424190Y-92963287D01*
X155376571Y-92963287D01*
X155281333Y-92915668D01*
X155233714Y-92820430D01*
X155233714Y-92677573D01*
X155281333Y-92582334D01*
X155233714Y-92106144D02*
X156233714Y-92106144D01*
X155281333Y-92106144D02*
X155233714Y-92010906D01*
X155233714Y-91820429D01*
X155281333Y-91725191D01*
X155328952Y-91677572D01*
X155424190Y-91629953D01*
X155709905Y-91629953D01*
X155805143Y-91677572D01*
X155852762Y-91725191D01*
X155900381Y-91820429D01*
X155900381Y-92010906D01*
X155852762Y-92106144D01*
X155900381Y-91201382D02*
X155233714Y-91201382D01*
X155424190Y-91201382D02*
X155328952Y-91153763D01*
X155281333Y-91106144D01*
X155233714Y-91010906D01*
X155233714Y-90915667D01*
X155852762Y-90201381D02*
X155900381Y-90296619D01*
X155900381Y-90487096D01*
X155852762Y-90582334D01*
X155757524Y-90629953D01*
X155376571Y-90629953D01*
X155281333Y-90582334D01*
X155233714Y-90487096D01*
X155233714Y-90296619D01*
X155281333Y-90201381D01*
X155376571Y-90153762D01*
X155471810Y-90153762D01*
X155567048Y-90629953D01*
X155852762Y-89772810D02*
X155900381Y-89677572D01*
X155900381Y-89487096D01*
X155852762Y-89391857D01*
X155757524Y-89344238D01*
X155709905Y-89344238D01*
X155614667Y-89391857D01*
X155567048Y-89487096D01*
X155567048Y-89629953D01*
X155519429Y-89725191D01*
X155424190Y-89772810D01*
X155376571Y-89772810D01*
X155281333Y-89725191D01*
X155233714Y-89629953D01*
X155233714Y-89487096D01*
X155281333Y-89391857D01*
X155852762Y-88963286D02*
X155900381Y-88868048D01*
X155900381Y-88677572D01*
X155852762Y-88582333D01*
X155757524Y-88534714D01*
X155709905Y-88534714D01*
X155614667Y-88582333D01*
X155567048Y-88677572D01*
X155567048Y-88820429D01*
X155519429Y-88915667D01*
X155424190Y-88963286D01*
X155376571Y-88963286D01*
X155281333Y-88915667D01*
X155233714Y-88820429D01*
X155233714Y-88677572D01*
X155281333Y-88582333D01*
X155900381Y-88106143D02*
X155233714Y-88106143D01*
X154900381Y-88106143D02*
X154948000Y-88153762D01*
X154995619Y-88106143D01*
X154948000Y-88058524D01*
X154900381Y-88106143D01*
X154995619Y-88106143D01*
X155233714Y-87772810D02*
X155233714Y-87391858D01*
X155900381Y-87629953D02*
X155043238Y-87629953D01*
X154948000Y-87582334D01*
X154900381Y-87487096D01*
X154900381Y-87391858D01*
X155852762Y-86344238D02*
X155900381Y-86201381D01*
X155900381Y-85963285D01*
X155852762Y-85868047D01*
X155805143Y-85820428D01*
X155709905Y-85772809D01*
X155614667Y-85772809D01*
X155519429Y-85820428D01*
X155471810Y-85868047D01*
X155424190Y-85963285D01*
X155376571Y-86153762D01*
X155328952Y-86249000D01*
X155281333Y-86296619D01*
X155186095Y-86344238D01*
X155090857Y-86344238D01*
X154995619Y-86296619D01*
X154948000Y-86249000D01*
X154900381Y-86153762D01*
X154900381Y-85915666D01*
X154948000Y-85772809D01*
X155233714Y-85439476D02*
X155900381Y-85201381D01*
X155233714Y-84963285D02*
X155900381Y-85201381D01*
X156138476Y-85296619D01*
X156186095Y-85344238D01*
X156233714Y-85439476D01*
X155852762Y-84629952D02*
X155900381Y-84534714D01*
X155900381Y-84344238D01*
X155852762Y-84248999D01*
X155757524Y-84201380D01*
X155709905Y-84201380D01*
X155614667Y-84248999D01*
X155567048Y-84344238D01*
X155567048Y-84487095D01*
X155519429Y-84582333D01*
X155424190Y-84629952D01*
X155376571Y-84629952D01*
X155281333Y-84582333D01*
X155233714Y-84487095D01*
X155233714Y-84344238D01*
X155281333Y-84248999D01*
X155233714Y-83915666D02*
X155233714Y-83534714D01*
X154900381Y-83772809D02*
X155757524Y-83772809D01*
X155852762Y-83725190D01*
X155900381Y-83629952D01*
X155900381Y-83534714D01*
X155852762Y-82820427D02*
X155900381Y-82915665D01*
X155900381Y-83106142D01*
X155852762Y-83201380D01*
X155757524Y-83248999D01*
X155376571Y-83248999D01*
X155281333Y-83201380D01*
X155233714Y-83106142D01*
X155233714Y-82915665D01*
X155281333Y-82820427D01*
X155376571Y-82772808D01*
X155471810Y-82772808D01*
X155567048Y-83248999D01*
X155900381Y-82344237D02*
X155233714Y-82344237D01*
X155328952Y-82344237D02*
X155281333Y-82296618D01*
X155233714Y-82201380D01*
X155233714Y-82058522D01*
X155281333Y-81963284D01*
X155376571Y-81915665D01*
X155900381Y-81915665D01*
X155376571Y-81915665D02*
X155281333Y-81868046D01*
X155233714Y-81772808D01*
X155233714Y-81629951D01*
X155281333Y-81534713D01*
X155376571Y-81487094D01*
X155900381Y-81487094D01*
X155852762Y-81058523D02*
X155900381Y-80963285D01*
X155900381Y-80772809D01*
X155852762Y-80677570D01*
X155757524Y-80629951D01*
X155709905Y-80629951D01*
X155614667Y-80677570D01*
X155567048Y-80772809D01*
X155567048Y-80915666D01*
X155519429Y-81010904D01*
X155424190Y-81058523D01*
X155376571Y-81058523D01*
X155281333Y-81010904D01*
X155233714Y-80915666D01*
X155233714Y-80772809D01*
X155281333Y-80677570D01*
X153725571Y-91558381D02*
X153725571Y-91225047D01*
X154249381Y-91082190D02*
X154249381Y-91558381D01*
X153249381Y-91558381D01*
X153249381Y-91082190D01*
X154201762Y-90701238D02*
X154249381Y-90558381D01*
X154249381Y-90320285D01*
X154201762Y-90225047D01*
X154154143Y-90177428D01*
X154058905Y-90129809D01*
X153963667Y-90129809D01*
X153868429Y-90177428D01*
X153820810Y-90225047D01*
X153773190Y-90320285D01*
X153725571Y-90510762D01*
X153677952Y-90606000D01*
X153630333Y-90653619D01*
X153535095Y-90701238D01*
X153439857Y-90701238D01*
X153344619Y-90653619D01*
X153297000Y-90606000D01*
X153249381Y-90510762D01*
X153249381Y-90272666D01*
X153297000Y-90129809D01*
X154249381Y-89701238D02*
X153249381Y-89701238D01*
X153249381Y-89320285D01*
X153297000Y-89225047D01*
X153344619Y-89177428D01*
X153439857Y-89129809D01*
X153582714Y-89129809D01*
X153677952Y-89177428D01*
X153725571Y-89225047D01*
X153773190Y-89320285D01*
X153773190Y-89701238D01*
X153249381Y-88796476D02*
X153249381Y-88177428D01*
X153630333Y-88510762D01*
X153630333Y-88367904D01*
X153677952Y-88272666D01*
X153725571Y-88225047D01*
X153820810Y-88177428D01*
X154058905Y-88177428D01*
X154154143Y-88225047D01*
X154201762Y-88272666D01*
X154249381Y-88367904D01*
X154249381Y-88653619D01*
X154201762Y-88748857D01*
X154154143Y-88796476D01*
X153344619Y-87796476D02*
X153297000Y-87748857D01*
X153249381Y-87653619D01*
X153249381Y-87415523D01*
X153297000Y-87320285D01*
X153344619Y-87272666D01*
X153439857Y-87225047D01*
X153535095Y-87225047D01*
X153677952Y-87272666D01*
X154249381Y-87844095D01*
X154249381Y-87225047D01*
X153868429Y-86796476D02*
X153868429Y-86034571D01*
X153249381Y-85653619D02*
X154249381Y-85415524D01*
X153535095Y-85225047D01*
X154249381Y-85034571D01*
X153249381Y-84796476D01*
X154249381Y-83844095D02*
X153773190Y-84177429D01*
X154249381Y-84415524D02*
X153249381Y-84415524D01*
X153249381Y-84034571D01*
X153297000Y-83939333D01*
X153344619Y-83891714D01*
X153439857Y-83844095D01*
X153582714Y-83844095D01*
X153677952Y-83891714D01*
X153725571Y-83939333D01*
X153773190Y-84034571D01*
X153773190Y-84415524D01*
X153249381Y-83225048D02*
X153249381Y-83034571D01*
X153297000Y-82939333D01*
X153392238Y-82844095D01*
X153582714Y-82796476D01*
X153916048Y-82796476D01*
X154106524Y-82844095D01*
X154201762Y-82939333D01*
X154249381Y-83034571D01*
X154249381Y-83225048D01*
X154201762Y-83320286D01*
X154106524Y-83415524D01*
X153916048Y-83463143D01*
X153582714Y-83463143D01*
X153392238Y-83415524D01*
X153297000Y-83320286D01*
X153249381Y-83225048D01*
X153249381Y-82177429D02*
X153249381Y-81986952D01*
X153297000Y-81891714D01*
X153392238Y-81796476D01*
X153582714Y-81748857D01*
X153916048Y-81748857D01*
X154106524Y-81796476D01*
X154201762Y-81891714D01*
X154249381Y-81986952D01*
X154249381Y-82177429D01*
X154201762Y-82272667D01*
X154106524Y-82367905D01*
X153916048Y-82415524D01*
X153582714Y-82415524D01*
X153392238Y-82367905D01*
X153297000Y-82272667D01*
X153249381Y-82177429D01*
X154249381Y-81320286D02*
X153249381Y-81320286D01*
X153963667Y-80986952D01*
X153249381Y-80653619D01*
X154249381Y-80653619D01*
D15*
X177425942Y-76578533D02*
X177730742Y-77289733D01*
X177730742Y-76578533D02*
X177425942Y-77289733D01*
X177883143Y-77086533D02*
X178100857Y-77086533D01*
X177839600Y-77289733D02*
X177992000Y-76578533D01*
X178144400Y-77289733D01*
X178536286Y-77289733D02*
X178275029Y-77289733D01*
X178405657Y-77289733D02*
X178405657Y-76578533D01*
X178362114Y-76680133D01*
X178318572Y-76747867D01*
X178275029Y-76781733D01*
D16*
X183326096Y-126760000D02*
X183230858Y-126712381D01*
X183088001Y-126712381D01*
X182945143Y-126760000D01*
X182849905Y-126855238D01*
X182802286Y-126950476D01*
X182754667Y-127140952D01*
X182754667Y-127283810D01*
X182802286Y-127474286D01*
X182849905Y-127569524D01*
X182945143Y-127664762D01*
X183088001Y-127712381D01*
X183183239Y-127712381D01*
X183326096Y-127664762D01*
X183373715Y-127617143D01*
X183373715Y-127283810D01*
X183183239Y-127283810D01*
X183802286Y-127712381D02*
X183802286Y-126712381D01*
X184373715Y-127712381D01*
X184373715Y-126712381D01*
X184849905Y-127712381D02*
X184849905Y-126712381D01*
X185088000Y-126712381D01*
X185230858Y-126760000D01*
X185326096Y-126855238D01*
X185373715Y-126950476D01*
X185421334Y-127140952D01*
X185421334Y-127283810D01*
X185373715Y-127474286D01*
X185326096Y-127569524D01*
X185230858Y-127664762D01*
X185088000Y-127712381D01*
X184849905Y-127712381D01*
X183326096Y-124220000D02*
X183230858Y-124172381D01*
X183088001Y-124172381D01*
X182945143Y-124220000D01*
X182849905Y-124315238D01*
X182802286Y-124410476D01*
X182754667Y-124600952D01*
X182754667Y-124743810D01*
X182802286Y-124934286D01*
X182849905Y-125029524D01*
X182945143Y-125124762D01*
X183088001Y-125172381D01*
X183183239Y-125172381D01*
X183326096Y-125124762D01*
X183373715Y-125077143D01*
X183373715Y-124743810D01*
X183183239Y-124743810D01*
X183802286Y-125172381D02*
X183802286Y-124172381D01*
X184373715Y-125172381D01*
X184373715Y-124172381D01*
X184849905Y-125172381D02*
X184849905Y-124172381D01*
X185088000Y-124172381D01*
X185230858Y-124220000D01*
X185326096Y-124315238D01*
X185373715Y-124410476D01*
X185421334Y-124600952D01*
X185421334Y-124743810D01*
X185373715Y-124934286D01*
X185326096Y-125029524D01*
X185230858Y-125124762D01*
X185088000Y-125172381D01*
X184849905Y-125172381D01*
D17*
X182673714Y-121687143D02*
X183188000Y-121687143D01*
X182930857Y-122587143D02*
X182930857Y-121687143D01*
X183273714Y-122672857D02*
X183959428Y-122672857D01*
X184473714Y-122115714D02*
X184173714Y-122115714D01*
X184173714Y-122587143D02*
X184173714Y-121687143D01*
X184602285Y-121687143D01*
X185416571Y-122587143D02*
X184902286Y-122587143D01*
X185159428Y-122587143D02*
X185159428Y-121687143D01*
X185073714Y-121815714D01*
X184988000Y-121901429D01*
X184902286Y-121944286D01*
X182609429Y-119147143D02*
X183123715Y-119147143D01*
X182866572Y-120047143D02*
X182866572Y-119147143D01*
X183209429Y-120132857D02*
X183895143Y-120132857D01*
X184623714Y-119961429D02*
X184580857Y-120004286D01*
X184452286Y-120047143D01*
X184366572Y-120047143D01*
X184238000Y-120004286D01*
X184152286Y-119918571D01*
X184109429Y-119832857D01*
X184066572Y-119661429D01*
X184066572Y-119532857D01*
X184109429Y-119361429D01*
X184152286Y-119275714D01*
X184238000Y-119190000D01*
X184366572Y-119147143D01*
X184452286Y-119147143D01*
X184580857Y-119190000D01*
X184623714Y-119232857D01*
X184966572Y-119232857D02*
X185009429Y-119190000D01*
X185095143Y-119147143D01*
X185309429Y-119147143D01*
X185395143Y-119190000D01*
X185438000Y-119232857D01*
X185480857Y-119318571D01*
X185480857Y-119404286D01*
X185438000Y-119532857D01*
X184923714Y-120047143D01*
X185480857Y-120047143D01*
D16*
X183326096Y-116600000D02*
X183230858Y-116552381D01*
X183088001Y-116552381D01*
X182945143Y-116600000D01*
X182849905Y-116695238D01*
X182802286Y-116790476D01*
X182754667Y-116980952D01*
X182754667Y-117123810D01*
X182802286Y-117314286D01*
X182849905Y-117409524D01*
X182945143Y-117504762D01*
X183088001Y-117552381D01*
X183183239Y-117552381D01*
X183326096Y-117504762D01*
X183373715Y-117457143D01*
X183373715Y-117123810D01*
X183183239Y-117123810D01*
X183802286Y-117552381D02*
X183802286Y-116552381D01*
X184373715Y-117552381D01*
X184373715Y-116552381D01*
X184849905Y-117552381D02*
X184849905Y-116552381D01*
X185088000Y-116552381D01*
X185230858Y-116600000D01*
X185326096Y-116695238D01*
X185373715Y-116790476D01*
X185421334Y-116980952D01*
X185421334Y-117123810D01*
X185373715Y-117314286D01*
X185326096Y-117409524D01*
X185230858Y-117504762D01*
X185088000Y-117552381D01*
X184849905Y-117552381D01*
X183072096Y-114060000D02*
X182976858Y-114012381D01*
X182834001Y-114012381D01*
X182691143Y-114060000D01*
X182595905Y-114155238D01*
X182548286Y-114250476D01*
X182500667Y-114440952D01*
X182500667Y-114583810D01*
X182548286Y-114774286D01*
X182595905Y-114869524D01*
X182691143Y-114964762D01*
X182834001Y-115012381D01*
X182929239Y-115012381D01*
X183072096Y-114964762D01*
X183119715Y-114917143D01*
X183119715Y-114583810D01*
X182929239Y-114583810D01*
X183548286Y-115012381D02*
X183548286Y-114012381D01*
X184119715Y-115012381D01*
X184119715Y-114012381D01*
X184595905Y-115012381D02*
X184595905Y-114012381D01*
X184834000Y-114012381D01*
X184976858Y-114060000D01*
X185072096Y-114155238D01*
X185119715Y-114250476D01*
X185167334Y-114440952D01*
X185167334Y-114583810D01*
X185119715Y-114774286D01*
X185072096Y-114869524D01*
X184976858Y-114964762D01*
X184834000Y-115012381D01*
X184595905Y-115012381D01*
X183326096Y-111520000D02*
X183230858Y-111472381D01*
X183088001Y-111472381D01*
X182945143Y-111520000D01*
X182849905Y-111615238D01*
X182802286Y-111710476D01*
X182754667Y-111900952D01*
X182754667Y-112043810D01*
X182802286Y-112234286D01*
X182849905Y-112329524D01*
X182945143Y-112424762D01*
X183088001Y-112472381D01*
X183183239Y-112472381D01*
X183326096Y-112424762D01*
X183373715Y-112377143D01*
X183373715Y-112043810D01*
X183183239Y-112043810D01*
X183802286Y-112472381D02*
X183802286Y-111472381D01*
X184373715Y-112472381D01*
X184373715Y-111472381D01*
X184849905Y-112472381D02*
X184849905Y-111472381D01*
X185088000Y-111472381D01*
X185230858Y-111520000D01*
X185326096Y-111615238D01*
X185373715Y-111710476D01*
X185421334Y-111900952D01*
X185421334Y-112043810D01*
X185373715Y-112234286D01*
X185326096Y-112329524D01*
X185230858Y-112424762D01*
X185088000Y-112472381D01*
X184849905Y-112472381D01*
X183326096Y-108980000D02*
X183230858Y-108932381D01*
X183088001Y-108932381D01*
X182945143Y-108980000D01*
X182849905Y-109075238D01*
X182802286Y-109170476D01*
X182754667Y-109360952D01*
X182754667Y-109503810D01*
X182802286Y-109694286D01*
X182849905Y-109789524D01*
X182945143Y-109884762D01*
X183088001Y-109932381D01*
X183183239Y-109932381D01*
X183326096Y-109884762D01*
X183373715Y-109837143D01*
X183373715Y-109503810D01*
X183183239Y-109503810D01*
X183802286Y-109932381D02*
X183802286Y-108932381D01*
X184373715Y-109932381D01*
X184373715Y-108932381D01*
X184849905Y-109932381D02*
X184849905Y-108932381D01*
X185088000Y-108932381D01*
X185230858Y-108980000D01*
X185326096Y-109075238D01*
X185373715Y-109170476D01*
X185421334Y-109360952D01*
X185421334Y-109503810D01*
X185373715Y-109694286D01*
X185326096Y-109789524D01*
X185230858Y-109884762D01*
X185088000Y-109932381D01*
X184849905Y-109932381D01*
X183326096Y-106440000D02*
X183230858Y-106392381D01*
X183088001Y-106392381D01*
X182945143Y-106440000D01*
X182849905Y-106535238D01*
X182802286Y-106630476D01*
X182754667Y-106820952D01*
X182754667Y-106963810D01*
X182802286Y-107154286D01*
X182849905Y-107249524D01*
X182945143Y-107344762D01*
X183088001Y-107392381D01*
X183183239Y-107392381D01*
X183326096Y-107344762D01*
X183373715Y-107297143D01*
X183373715Y-106963810D01*
X183183239Y-106963810D01*
X183802286Y-107392381D02*
X183802286Y-106392381D01*
X184373715Y-107392381D01*
X184373715Y-106392381D01*
X184849905Y-107392381D02*
X184849905Y-106392381D01*
X185088000Y-106392381D01*
X185230858Y-106440000D01*
X185326096Y-106535238D01*
X185373715Y-106630476D01*
X185421334Y-106820952D01*
X185421334Y-106963810D01*
X185373715Y-107154286D01*
X185326096Y-107249524D01*
X185230858Y-107344762D01*
X185088000Y-107392381D01*
X184849905Y-107392381D01*
X183326096Y-103900000D02*
X183230858Y-103852381D01*
X183088001Y-103852381D01*
X182945143Y-103900000D01*
X182849905Y-103995238D01*
X182802286Y-104090476D01*
X182754667Y-104280952D01*
X182754667Y-104423810D01*
X182802286Y-104614286D01*
X182849905Y-104709524D01*
X182945143Y-104804762D01*
X183088001Y-104852381D01*
X183183239Y-104852381D01*
X183326096Y-104804762D01*
X183373715Y-104757143D01*
X183373715Y-104423810D01*
X183183239Y-104423810D01*
X183802286Y-104852381D02*
X183802286Y-103852381D01*
X184373715Y-104852381D01*
X184373715Y-103852381D01*
X184849905Y-104852381D02*
X184849905Y-103852381D01*
X185088000Y-103852381D01*
X185230858Y-103900000D01*
X185326096Y-103995238D01*
X185373715Y-104090476D01*
X185421334Y-104280952D01*
X185421334Y-104423810D01*
X185373715Y-104614286D01*
X185326096Y-104709524D01*
X185230858Y-104804762D01*
X185088000Y-104852381D01*
X184849905Y-104852381D01*
X183326096Y-101360000D02*
X183230858Y-101312381D01*
X183088001Y-101312381D01*
X182945143Y-101360000D01*
X182849905Y-101455238D01*
X182802286Y-101550476D01*
X182754667Y-101740952D01*
X182754667Y-101883810D01*
X182802286Y-102074286D01*
X182849905Y-102169524D01*
X182945143Y-102264762D01*
X183088001Y-102312381D01*
X183183239Y-102312381D01*
X183326096Y-102264762D01*
X183373715Y-102217143D01*
X183373715Y-101883810D01*
X183183239Y-101883810D01*
X183802286Y-102312381D02*
X183802286Y-101312381D01*
X184373715Y-102312381D01*
X184373715Y-101312381D01*
X184849905Y-102312381D02*
X184849905Y-101312381D01*
X185088000Y-101312381D01*
X185230858Y-101360000D01*
X185326096Y-101455238D01*
X185373715Y-101550476D01*
X185421334Y-101740952D01*
X185421334Y-101883810D01*
X185373715Y-102074286D01*
X185326096Y-102169524D01*
X185230858Y-102264762D01*
X185088000Y-102312381D01*
X184849905Y-102312381D01*
D18*
X183183239Y-98940000D02*
X183110858Y-98903810D01*
X183002286Y-98903810D01*
X182893715Y-98940000D01*
X182821334Y-99012381D01*
X182785143Y-99084762D01*
X182748953Y-99229524D01*
X182748953Y-99338095D01*
X182785143Y-99482857D01*
X182821334Y-99555238D01*
X182893715Y-99627619D01*
X183002286Y-99663810D01*
X183074667Y-99663810D01*
X183183239Y-99627619D01*
X183219429Y-99591429D01*
X183219429Y-99338095D01*
X183074667Y-99338095D01*
X183545143Y-99663810D02*
X183545143Y-98903810D01*
X183979429Y-99663810D01*
X183979429Y-98903810D01*
X184341333Y-99663810D02*
X184341333Y-98903810D01*
X184522286Y-98903810D01*
X184630857Y-98940000D01*
X184703238Y-99012381D01*
X184739429Y-99084762D01*
X184775619Y-99229524D01*
X184775619Y-99338095D01*
X184739429Y-99482857D01*
X184703238Y-99555238D01*
X184630857Y-99627619D01*
X184522286Y-99663810D01*
X184341333Y-99663810D01*
X185065143Y-99446667D02*
X185427048Y-99446667D01*
X184992762Y-99663810D02*
X185246095Y-98903810D01*
X185499429Y-99663810D01*
X183183239Y-96400000D02*
X183110858Y-96363810D01*
X183002286Y-96363810D01*
X182893715Y-96400000D01*
X182821334Y-96472381D01*
X182785143Y-96544762D01*
X182748953Y-96689524D01*
X182748953Y-96798095D01*
X182785143Y-96942857D01*
X182821334Y-97015238D01*
X182893715Y-97087619D01*
X183002286Y-97123810D01*
X183074667Y-97123810D01*
X183183239Y-97087619D01*
X183219429Y-97051429D01*
X183219429Y-96798095D01*
X183074667Y-96798095D01*
X183545143Y-97123810D02*
X183545143Y-96363810D01*
X183979429Y-97123810D01*
X183979429Y-96363810D01*
X184341333Y-97123810D02*
X184341333Y-96363810D01*
X184522286Y-96363810D01*
X184630857Y-96400000D01*
X184703238Y-96472381D01*
X184739429Y-96544762D01*
X184775619Y-96689524D01*
X184775619Y-96798095D01*
X184739429Y-96942857D01*
X184703238Y-97015238D01*
X184630857Y-97087619D01*
X184522286Y-97123810D01*
X184341333Y-97123810D01*
X185065143Y-96906667D02*
X185427048Y-96906667D01*
X184992762Y-97123810D02*
X185246095Y-96363810D01*
X185499429Y-97123810D01*
X183183239Y-93860000D02*
X183110858Y-93823810D01*
X183002286Y-93823810D01*
X182893715Y-93860000D01*
X182821334Y-93932381D01*
X182785143Y-94004762D01*
X182748953Y-94149524D01*
X182748953Y-94258095D01*
X182785143Y-94402857D01*
X182821334Y-94475238D01*
X182893715Y-94547619D01*
X183002286Y-94583810D01*
X183074667Y-94583810D01*
X183183239Y-94547619D01*
X183219429Y-94511429D01*
X183219429Y-94258095D01*
X183074667Y-94258095D01*
X183545143Y-94583810D02*
X183545143Y-93823810D01*
X183979429Y-94583810D01*
X183979429Y-93823810D01*
X184341333Y-94583810D02*
X184341333Y-93823810D01*
X184522286Y-93823810D01*
X184630857Y-93860000D01*
X184703238Y-93932381D01*
X184739429Y-94004762D01*
X184775619Y-94149524D01*
X184775619Y-94258095D01*
X184739429Y-94402857D01*
X184703238Y-94475238D01*
X184630857Y-94547619D01*
X184522286Y-94583810D01*
X184341333Y-94583810D01*
X185065143Y-94366667D02*
X185427048Y-94366667D01*
X184992762Y-94583810D02*
X185246095Y-93823810D01*
X185499429Y-94583810D01*
X183183239Y-91320000D02*
X183110858Y-91283810D01*
X183002286Y-91283810D01*
X182893715Y-91320000D01*
X182821334Y-91392381D01*
X182785143Y-91464762D01*
X182748953Y-91609524D01*
X182748953Y-91718095D01*
X182785143Y-91862857D01*
X182821334Y-91935238D01*
X182893715Y-92007619D01*
X183002286Y-92043810D01*
X183074667Y-92043810D01*
X183183239Y-92007619D01*
X183219429Y-91971429D01*
X183219429Y-91718095D01*
X183074667Y-91718095D01*
X183545143Y-92043810D02*
X183545143Y-91283810D01*
X183979429Y-92043810D01*
X183979429Y-91283810D01*
X184341333Y-92043810D02*
X184341333Y-91283810D01*
X184522286Y-91283810D01*
X184630857Y-91320000D01*
X184703238Y-91392381D01*
X184739429Y-91464762D01*
X184775619Y-91609524D01*
X184775619Y-91718095D01*
X184739429Y-91862857D01*
X184703238Y-91935238D01*
X184630857Y-92007619D01*
X184522286Y-92043810D01*
X184341333Y-92043810D01*
X185065143Y-91826667D02*
X185427048Y-91826667D01*
X184992762Y-92043810D02*
X185246095Y-91283810D01*
X185499429Y-92043810D01*
X183183239Y-88780000D02*
X183110858Y-88743810D01*
X183002286Y-88743810D01*
X182893715Y-88780000D01*
X182821334Y-88852381D01*
X182785143Y-88924762D01*
X182748953Y-89069524D01*
X182748953Y-89178095D01*
X182785143Y-89322857D01*
X182821334Y-89395238D01*
X182893715Y-89467619D01*
X183002286Y-89503810D01*
X183074667Y-89503810D01*
X183183239Y-89467619D01*
X183219429Y-89431429D01*
X183219429Y-89178095D01*
X183074667Y-89178095D01*
X183545143Y-89503810D02*
X183545143Y-88743810D01*
X183979429Y-89503810D01*
X183979429Y-88743810D01*
X184341333Y-89503810D02*
X184341333Y-88743810D01*
X184522286Y-88743810D01*
X184630857Y-88780000D01*
X184703238Y-88852381D01*
X184739429Y-88924762D01*
X184775619Y-89069524D01*
X184775619Y-89178095D01*
X184739429Y-89322857D01*
X184703238Y-89395238D01*
X184630857Y-89467619D01*
X184522286Y-89503810D01*
X184341333Y-89503810D01*
X185065143Y-89286667D02*
X185427048Y-89286667D01*
X184992762Y-89503810D02*
X185246095Y-88743810D01*
X185499429Y-89503810D01*
X183183239Y-86240000D02*
X183110858Y-86203810D01*
X183002286Y-86203810D01*
X182893715Y-86240000D01*
X182821334Y-86312381D01*
X182785143Y-86384762D01*
X182748953Y-86529524D01*
X182748953Y-86638095D01*
X182785143Y-86782857D01*
X182821334Y-86855238D01*
X182893715Y-86927619D01*
X183002286Y-86963810D01*
X183074667Y-86963810D01*
X183183239Y-86927619D01*
X183219429Y-86891429D01*
X183219429Y-86638095D01*
X183074667Y-86638095D01*
X183545143Y-86963810D02*
X183545143Y-86203810D01*
X183979429Y-86963810D01*
X183979429Y-86203810D01*
X184341333Y-86963810D02*
X184341333Y-86203810D01*
X184522286Y-86203810D01*
X184630857Y-86240000D01*
X184703238Y-86312381D01*
X184739429Y-86384762D01*
X184775619Y-86529524D01*
X184775619Y-86638095D01*
X184739429Y-86782857D01*
X184703238Y-86855238D01*
X184630857Y-86927619D01*
X184522286Y-86963810D01*
X184341333Y-86963810D01*
X185065143Y-86746667D02*
X185427048Y-86746667D01*
X184992762Y-86963810D02*
X185246095Y-86203810D01*
X185499429Y-86963810D01*
D19*
X182671334Y-83786381D02*
X182790381Y-84786381D01*
X182885619Y-84072095D01*
X182980857Y-84786381D01*
X183099905Y-83786381D01*
X183266572Y-84500667D02*
X183504667Y-84500667D01*
X183218953Y-84786381D02*
X183385620Y-83786381D01*
X183552286Y-84786381D01*
X183718953Y-84786381D02*
X183718953Y-83786381D01*
X184004667Y-84786381D02*
X183790381Y-84214952D01*
X184004667Y-83786381D02*
X183718953Y-84357810D01*
X184218953Y-84262571D02*
X184385619Y-84262571D01*
X184457048Y-84786381D02*
X184218953Y-84786381D01*
X184218953Y-83786381D01*
X184457048Y-83786381D01*
X184671334Y-83786381D02*
X184671334Y-84595905D01*
X184695143Y-84691143D01*
X184718953Y-84738762D01*
X184766572Y-84786381D01*
X184861810Y-84786381D01*
X184909429Y-84738762D01*
X184933238Y-84691143D01*
X184957048Y-84595905D01*
X184957048Y-83786381D01*
X185195144Y-84786381D02*
X185195144Y-83786381D01*
X185385620Y-83786381D01*
X185433239Y-83834000D01*
X185457048Y-83881619D01*
X185480858Y-83976857D01*
X185480858Y-84119714D01*
X185457048Y-84214952D01*
X185433239Y-84262571D01*
X185385620Y-84310190D01*
X185195144Y-84310190D01*
D16*
X183326096Y-81548000D02*
X183230858Y-81500381D01*
X183088001Y-81500381D01*
X182945143Y-81548000D01*
X182849905Y-81643238D01*
X182802286Y-81738476D01*
X182754667Y-81928952D01*
X182754667Y-82071810D01*
X182802286Y-82262286D01*
X182849905Y-82357524D01*
X182945143Y-82452762D01*
X183088001Y-82500381D01*
X183183239Y-82500381D01*
X183326096Y-82452762D01*
X183373715Y-82405143D01*
X183373715Y-82071810D01*
X183183239Y-82071810D01*
X183802286Y-82500381D02*
X183802286Y-81500381D01*
X184373715Y-82500381D01*
X184373715Y-81500381D01*
X184849905Y-82500381D02*
X184849905Y-81500381D01*
X185088000Y-81500381D01*
X185230858Y-81548000D01*
X185326096Y-81643238D01*
X185373715Y-81738476D01*
X185421334Y-81928952D01*
X185421334Y-82071810D01*
X185373715Y-82262286D01*
X185326096Y-82357524D01*
X185230858Y-82452762D01*
X185088000Y-82500381D01*
X184849905Y-82500381D01*
X182802286Y-79071429D02*
X183564191Y-79071429D01*
X183183239Y-79452381D02*
X183183239Y-78690476D01*
X184516572Y-78452381D02*
X184040381Y-78452381D01*
X183992762Y-78928571D01*
X184040381Y-78880952D01*
X184135619Y-78833333D01*
X184373715Y-78833333D01*
X184468953Y-78880952D01*
X184516572Y-78928571D01*
X184564191Y-79023810D01*
X184564191Y-79261905D01*
X184516572Y-79357143D01*
X184468953Y-79404762D01*
X184373715Y-79452381D01*
X184135619Y-79452381D01*
X184040381Y-79404762D01*
X183992762Y-79357143D01*
X184849905Y-78452381D02*
X185183238Y-79452381D01*
X185516572Y-78452381D01*
X171864571Y-126712381D02*
X172436000Y-126712381D01*
X172150285Y-127712381D02*
X172150285Y-126712381D01*
X172531238Y-127807619D02*
X173293143Y-127807619D01*
X174102667Y-127617143D02*
X174055048Y-127664762D01*
X173912191Y-127712381D01*
X173816953Y-127712381D01*
X173674095Y-127664762D01*
X173578857Y-127569524D01*
X173531238Y-127474286D01*
X173483619Y-127283810D01*
X173483619Y-127140952D01*
X173531238Y-126950476D01*
X173578857Y-126855238D01*
X173674095Y-126760000D01*
X173816953Y-126712381D01*
X173912191Y-126712381D01*
X174055048Y-126760000D01*
X174102667Y-126807619D01*
X174721714Y-126712381D02*
X174912191Y-126712381D01*
X175007429Y-126760000D01*
X175102667Y-126855238D01*
X175150286Y-127045714D01*
X175150286Y-127379048D01*
X175102667Y-127569524D01*
X175007429Y-127664762D01*
X174912191Y-127712381D01*
X174721714Y-127712381D01*
X174626476Y-127664762D01*
X174531238Y-127569524D01*
X174483619Y-127379048D01*
X174483619Y-127045714D01*
X174531238Y-126855238D01*
X174626476Y-126760000D01*
X174721714Y-126712381D01*
X176055048Y-127712381D02*
X175578857Y-127712381D01*
X175578857Y-126712381D01*
X176578857Y-126712381D02*
X176674096Y-126712381D01*
X176769334Y-126760000D01*
X176816953Y-126807619D01*
X176864572Y-126902857D01*
X176912191Y-127093333D01*
X176912191Y-127331429D01*
X176864572Y-127521905D01*
X176816953Y-127617143D01*
X176769334Y-127664762D01*
X176674096Y-127712381D01*
X176578857Y-127712381D01*
X176483619Y-127664762D01*
X176436000Y-127617143D01*
X176388381Y-127521905D01*
X176340762Y-127331429D01*
X176340762Y-127093333D01*
X176388381Y-126902857D01*
X176436000Y-126807619D01*
X176483619Y-126760000D01*
X176578857Y-126712381D01*
X172475714Y-124172381D02*
X173047143Y-124172381D01*
X172761428Y-125172381D02*
X172761428Y-124172381D01*
X173142381Y-125267619D02*
X173904286Y-125267619D01*
X174475715Y-124648571D02*
X174142381Y-124648571D01*
X174142381Y-125172381D02*
X174142381Y-124172381D01*
X174618572Y-124172381D01*
X174999524Y-125172381D02*
X174999524Y-124172381D01*
X175951905Y-125172381D02*
X175475714Y-125172381D01*
X175475714Y-124172381D01*
X176237619Y-124267619D02*
X176285238Y-124220000D01*
X176380476Y-124172381D01*
X176618572Y-124172381D01*
X176713810Y-124220000D01*
X176761429Y-124267619D01*
X176809048Y-124362857D01*
X176809048Y-124458095D01*
X176761429Y-124600952D01*
X176190000Y-125172381D01*
X176809048Y-125172381D01*
X172475714Y-121632381D02*
X173047143Y-121632381D01*
X172761428Y-122632381D02*
X172761428Y-121632381D01*
X173142381Y-122727619D02*
X173904286Y-122727619D01*
X174475715Y-122108571D02*
X174142381Y-122108571D01*
X174142381Y-122632381D02*
X174142381Y-121632381D01*
X174618572Y-121632381D01*
X174999524Y-122632381D02*
X174999524Y-121632381D01*
X175951905Y-122632381D02*
X175475714Y-122632381D01*
X175475714Y-121632381D01*
X176190000Y-121632381D02*
X176809048Y-121632381D01*
X176475714Y-122013333D01*
X176618572Y-122013333D01*
X176713810Y-122060952D01*
X176761429Y-122108571D01*
X176809048Y-122203810D01*
X176809048Y-122441905D01*
X176761429Y-122537143D01*
X176713810Y-122584762D01*
X176618572Y-122632381D01*
X176332857Y-122632381D01*
X176237619Y-122584762D01*
X176190000Y-122537143D01*
X172475714Y-119092381D02*
X173047143Y-119092381D01*
X172761428Y-120092381D02*
X172761428Y-119092381D01*
X173142381Y-120187619D02*
X173904286Y-120187619D01*
X174475715Y-119568571D02*
X174142381Y-119568571D01*
X174142381Y-120092381D02*
X174142381Y-119092381D01*
X174618572Y-119092381D01*
X174999524Y-120092381D02*
X174999524Y-119092381D01*
X175951905Y-120092381D02*
X175475714Y-120092381D01*
X175475714Y-119092381D01*
X176475714Y-119092381D02*
X176570953Y-119092381D01*
X176666191Y-119140000D01*
X176713810Y-119187619D01*
X176761429Y-119282857D01*
X176809048Y-119473333D01*
X176809048Y-119711429D01*
X176761429Y-119901905D01*
X176713810Y-119997143D01*
X176666191Y-120044762D01*
X176570953Y-120092381D01*
X176475714Y-120092381D01*
X176380476Y-120044762D01*
X176332857Y-119997143D01*
X176285238Y-119901905D01*
X176237619Y-119711429D01*
X176237619Y-119473333D01*
X176285238Y-119282857D01*
X176332857Y-119187619D01*
X176380476Y-119140000D01*
X176475714Y-119092381D01*
X171864571Y-116552381D02*
X172436000Y-116552381D01*
X172150285Y-117552381D02*
X172150285Y-116552381D01*
X172531238Y-117647619D02*
X173293143Y-117647619D01*
X174102667Y-117457143D02*
X174055048Y-117504762D01*
X173912191Y-117552381D01*
X173816953Y-117552381D01*
X173674095Y-117504762D01*
X173578857Y-117409524D01*
X173531238Y-117314286D01*
X173483619Y-117123810D01*
X173483619Y-116980952D01*
X173531238Y-116790476D01*
X173578857Y-116695238D01*
X173674095Y-116600000D01*
X173816953Y-116552381D01*
X173912191Y-116552381D01*
X174055048Y-116600000D01*
X174102667Y-116647619D01*
X174721714Y-116552381D02*
X174912191Y-116552381D01*
X175007429Y-116600000D01*
X175102667Y-116695238D01*
X175150286Y-116885714D01*
X175150286Y-117219048D01*
X175102667Y-117409524D01*
X175007429Y-117504762D01*
X174912191Y-117552381D01*
X174721714Y-117552381D01*
X174626476Y-117504762D01*
X174531238Y-117409524D01*
X174483619Y-117219048D01*
X174483619Y-116885714D01*
X174531238Y-116695238D01*
X174626476Y-116600000D01*
X174721714Y-116552381D01*
X176055048Y-117552381D02*
X175578857Y-117552381D01*
X175578857Y-116552381D01*
X176912191Y-117552381D02*
X176340762Y-117552381D01*
X176626476Y-117552381D02*
X176626476Y-116552381D01*
X176531238Y-116695238D01*
X176436000Y-116790476D01*
X176340762Y-116838095D01*
X172277238Y-114917143D02*
X172229619Y-114964762D01*
X172086762Y-115012381D01*
X171991524Y-115012381D01*
X171848666Y-114964762D01*
X171753428Y-114869524D01*
X171705809Y-114774286D01*
X171658190Y-114583810D01*
X171658190Y-114440952D01*
X171705809Y-114250476D01*
X171753428Y-114155238D01*
X171848666Y-114060000D01*
X171991524Y-114012381D01*
X172086762Y-114012381D01*
X172229619Y-114060000D01*
X172277238Y-114107619D01*
X172658190Y-114726667D02*
X173134381Y-114726667D01*
X172562952Y-115012381D02*
X172896285Y-114012381D01*
X173229619Y-115012381D01*
X173562952Y-115012381D02*
X173562952Y-114012381D01*
X174134381Y-115012381D01*
X174134381Y-114012381D01*
X174372476Y-115107619D02*
X175134381Y-115107619D01*
X175229619Y-114012381D02*
X175801048Y-114012381D01*
X175515333Y-115012381D02*
X175515333Y-114012381D01*
X176134381Y-115012381D02*
X176134381Y-114012381D01*
X176372476Y-114012381D01*
X176515334Y-114060000D01*
X176610572Y-114155238D01*
X176658191Y-114250476D01*
X176705810Y-114440952D01*
X176705810Y-114583810D01*
X176658191Y-114774286D01*
X176610572Y-114869524D01*
X176515334Y-114964762D01*
X176372476Y-115012381D01*
X176134381Y-115012381D01*
X172158191Y-112377143D02*
X172110572Y-112424762D01*
X171967715Y-112472381D01*
X171872477Y-112472381D01*
X171729619Y-112424762D01*
X171634381Y-112329524D01*
X171586762Y-112234286D01*
X171539143Y-112043810D01*
X171539143Y-111900952D01*
X171586762Y-111710476D01*
X171634381Y-111615238D01*
X171729619Y-111520000D01*
X171872477Y-111472381D01*
X171967715Y-111472381D01*
X172110572Y-111520000D01*
X172158191Y-111567619D01*
X172539143Y-112186667D02*
X173015334Y-112186667D01*
X172443905Y-112472381D02*
X172777238Y-111472381D01*
X173110572Y-112472381D01*
X173443905Y-112472381D02*
X173443905Y-111472381D01*
X174015334Y-112472381D01*
X174015334Y-111472381D01*
X174253429Y-112567619D02*
X175015334Y-112567619D01*
X175824858Y-112472381D02*
X175491524Y-111996190D01*
X175253429Y-112472381D02*
X175253429Y-111472381D01*
X175634382Y-111472381D01*
X175729620Y-111520000D01*
X175777239Y-111567619D01*
X175824858Y-111662857D01*
X175824858Y-111805714D01*
X175777239Y-111900952D01*
X175729620Y-111948571D01*
X175634382Y-111996190D01*
X175253429Y-111996190D01*
X176253429Y-112472381D02*
X176253429Y-111472381D01*
X176491524Y-111472381D01*
X176634382Y-111520000D01*
X176729620Y-111615238D01*
X176777239Y-111710476D01*
X176824858Y-111900952D01*
X176824858Y-112043810D01*
X176777239Y-112234286D01*
X176729620Y-112329524D01*
X176634382Y-112424762D01*
X176491524Y-112472381D01*
X176253429Y-112472381D01*
X171705809Y-109027619D02*
X171753428Y-108980000D01*
X171848666Y-108932381D01*
X172086762Y-108932381D01*
X172182000Y-108980000D01*
X172229619Y-109027619D01*
X172277238Y-109122857D01*
X172277238Y-109218095D01*
X172229619Y-109360952D01*
X171658190Y-109932381D01*
X172277238Y-109932381D01*
X172610571Y-108932381D02*
X173229619Y-108932381D01*
X172896285Y-109313333D01*
X173039143Y-109313333D01*
X173134381Y-109360952D01*
X173182000Y-109408571D01*
X173229619Y-109503810D01*
X173229619Y-109741905D01*
X173182000Y-109837143D01*
X173134381Y-109884762D01*
X173039143Y-109932381D01*
X172753428Y-109932381D01*
X172658190Y-109884762D01*
X172610571Y-109837143D01*
X173610571Y-109027619D02*
X173658190Y-108980000D01*
X173753428Y-108932381D01*
X173991524Y-108932381D01*
X174086762Y-108980000D01*
X174134381Y-109027619D01*
X174182000Y-109122857D01*
X174182000Y-109218095D01*
X174134381Y-109360952D01*
X173562952Y-109932381D01*
X174182000Y-109932381D01*
X174372476Y-110027619D02*
X175134381Y-110027619D01*
X175229619Y-108932381D02*
X175801048Y-108932381D01*
X175515333Y-109932381D02*
X175515333Y-108932381D01*
X176039143Y-108932381D02*
X176705810Y-109932381D01*
X176705810Y-108932381D02*
X176039143Y-109932381D01*
X171586762Y-106487619D02*
X171634381Y-106440000D01*
X171729619Y-106392381D01*
X171967715Y-106392381D01*
X172062953Y-106440000D01*
X172110572Y-106487619D01*
X172158191Y-106582857D01*
X172158191Y-106678095D01*
X172110572Y-106820952D01*
X171539143Y-107392381D01*
X172158191Y-107392381D01*
X172491524Y-106392381D02*
X173110572Y-106392381D01*
X172777238Y-106773333D01*
X172920096Y-106773333D01*
X173015334Y-106820952D01*
X173062953Y-106868571D01*
X173110572Y-106963810D01*
X173110572Y-107201905D01*
X173062953Y-107297143D01*
X173015334Y-107344762D01*
X172920096Y-107392381D01*
X172634381Y-107392381D01*
X172539143Y-107344762D01*
X172491524Y-107297143D01*
X173491524Y-106487619D02*
X173539143Y-106440000D01*
X173634381Y-106392381D01*
X173872477Y-106392381D01*
X173967715Y-106440000D01*
X174015334Y-106487619D01*
X174062953Y-106582857D01*
X174062953Y-106678095D01*
X174015334Y-106820952D01*
X173443905Y-107392381D01*
X174062953Y-107392381D01*
X174253429Y-107487619D02*
X175015334Y-107487619D01*
X175824858Y-107392381D02*
X175491524Y-106916190D01*
X175253429Y-107392381D02*
X175253429Y-106392381D01*
X175634382Y-106392381D01*
X175729620Y-106440000D01*
X175777239Y-106487619D01*
X175824858Y-106582857D01*
X175824858Y-106725714D01*
X175777239Y-106820952D01*
X175729620Y-106868571D01*
X175634382Y-106916190D01*
X175253429Y-106916190D01*
X176158191Y-106392381D02*
X176824858Y-107392381D01*
X176824858Y-106392381D02*
X176158191Y-107392381D01*
X172499524Y-104761905D02*
X172499524Y-103961905D01*
X172842381Y-104038095D02*
X172880476Y-104000000D01*
X172956667Y-103961905D01*
X173147143Y-103961905D01*
X173223333Y-104000000D01*
X173261429Y-104038095D01*
X173299524Y-104114286D01*
X173299524Y-104190476D01*
X173261429Y-104304762D01*
X172804286Y-104761905D01*
X173299524Y-104761905D01*
X174099524Y-104685714D02*
X174061429Y-104723810D01*
X173947143Y-104761905D01*
X173870953Y-104761905D01*
X173756667Y-104723810D01*
X173680476Y-104647619D01*
X173642381Y-104571429D01*
X173604286Y-104419048D01*
X173604286Y-104304762D01*
X173642381Y-104152381D01*
X173680476Y-104076190D01*
X173756667Y-104000000D01*
X173870953Y-103961905D01*
X173947143Y-103961905D01*
X174061429Y-104000000D01*
X174099524Y-104038095D01*
X174251905Y-104838095D02*
X174861429Y-104838095D01*
X175013810Y-104723810D02*
X175128096Y-104761905D01*
X175318572Y-104761905D01*
X175394762Y-104723810D01*
X175432858Y-104685714D01*
X175470953Y-104609524D01*
X175470953Y-104533333D01*
X175432858Y-104457143D01*
X175394762Y-104419048D01*
X175318572Y-104380952D01*
X175166191Y-104342857D01*
X175090000Y-104304762D01*
X175051905Y-104266667D01*
X175013810Y-104190476D01*
X175013810Y-104114286D01*
X175051905Y-104038095D01*
X175090000Y-104000000D01*
X175166191Y-103961905D01*
X175356667Y-103961905D01*
X175470953Y-104000000D01*
X176270953Y-104685714D02*
X176232858Y-104723810D01*
X176118572Y-104761905D01*
X176042382Y-104761905D01*
X175928096Y-104723810D01*
X175851905Y-104647619D01*
X175813810Y-104571429D01*
X175775715Y-104419048D01*
X175775715Y-104304762D01*
X175813810Y-104152381D01*
X175851905Y-104076190D01*
X175928096Y-104000000D01*
X176042382Y-103961905D01*
X176118572Y-103961905D01*
X176232858Y-104000000D01*
X176270953Y-104038095D01*
X176994763Y-104761905D02*
X176613810Y-104761905D01*
X176613810Y-103961905D01*
X172480476Y-102221905D02*
X172480476Y-101421905D01*
X172823333Y-101498095D02*
X172861428Y-101460000D01*
X172937619Y-101421905D01*
X173128095Y-101421905D01*
X173204285Y-101460000D01*
X173242381Y-101498095D01*
X173280476Y-101574286D01*
X173280476Y-101650476D01*
X173242381Y-101764762D01*
X172785238Y-102221905D01*
X173280476Y-102221905D01*
X174080476Y-102145714D02*
X174042381Y-102183810D01*
X173928095Y-102221905D01*
X173851905Y-102221905D01*
X173737619Y-102183810D01*
X173661428Y-102107619D01*
X173623333Y-102031429D01*
X173585238Y-101879048D01*
X173585238Y-101764762D01*
X173623333Y-101612381D01*
X173661428Y-101536190D01*
X173737619Y-101460000D01*
X173851905Y-101421905D01*
X173928095Y-101421905D01*
X174042381Y-101460000D01*
X174080476Y-101498095D01*
X174232857Y-102298095D02*
X174842381Y-102298095D01*
X174994762Y-102183810D02*
X175109048Y-102221905D01*
X175299524Y-102221905D01*
X175375714Y-102183810D01*
X175413810Y-102145714D01*
X175451905Y-102069524D01*
X175451905Y-101993333D01*
X175413810Y-101917143D01*
X175375714Y-101879048D01*
X175299524Y-101840952D01*
X175147143Y-101802857D01*
X175070952Y-101764762D01*
X175032857Y-101726667D01*
X174994762Y-101650476D01*
X174994762Y-101574286D01*
X175032857Y-101498095D01*
X175070952Y-101460000D01*
X175147143Y-101421905D01*
X175337619Y-101421905D01*
X175451905Y-101460000D01*
X175794762Y-102221905D02*
X175794762Y-101421905D01*
X175985238Y-101421905D01*
X176099524Y-101460000D01*
X176175715Y-101536190D01*
X176213810Y-101612381D01*
X176251905Y-101764762D01*
X176251905Y-101879048D01*
X176213810Y-102031429D01*
X176175715Y-102107619D01*
X176099524Y-102183810D01*
X175985238Y-102221905D01*
X175794762Y-102221905D01*
X176556667Y-101993333D02*
X176937619Y-101993333D01*
X176480476Y-102221905D02*
X176747143Y-101421905D01*
X177013810Y-102221905D01*
X173436095Y-98772381D02*
X173769428Y-99772381D01*
X174102762Y-98772381D01*
X174436095Y-99772381D02*
X174436095Y-98772381D01*
X174674190Y-98772381D01*
X174817048Y-98820000D01*
X174912286Y-98915238D01*
X174959905Y-99010476D01*
X175007524Y-99200952D01*
X175007524Y-99343810D01*
X174959905Y-99534286D01*
X174912286Y-99629524D01*
X174817048Y-99724762D01*
X174674190Y-99772381D01*
X174436095Y-99772381D01*
X175436095Y-99772381D02*
X175436095Y-98772381D01*
X175674190Y-98772381D01*
X175817048Y-98820000D01*
X175912286Y-98915238D01*
X175959905Y-99010476D01*
X176007524Y-99200952D01*
X176007524Y-99343810D01*
X175959905Y-99534286D01*
X175912286Y-99629524D01*
X175817048Y-99724762D01*
X175674190Y-99772381D01*
X175436095Y-99772381D01*
X176388476Y-99486667D02*
X176864667Y-99486667D01*
X176293238Y-99772381D02*
X176626571Y-98772381D01*
X176959905Y-99772381D01*
X174261524Y-97232381D02*
X174261524Y-96232381D01*
X174499619Y-96232381D01*
X174642477Y-96280000D01*
X174737715Y-96375238D01*
X174785334Y-96470476D01*
X174832953Y-96660952D01*
X174832953Y-96803810D01*
X174785334Y-96994286D01*
X174737715Y-97089524D01*
X174642477Y-97184762D01*
X174499619Y-97232381D01*
X174261524Y-97232381D01*
X175213905Y-96946667D02*
X175690096Y-96946667D01*
X175118667Y-97232381D02*
X175452000Y-96232381D01*
X175785334Y-97232381D01*
X176690096Y-97137143D02*
X176642477Y-97184762D01*
X176499620Y-97232381D01*
X176404382Y-97232381D01*
X176261524Y-97184762D01*
X176166286Y-97089524D01*
X176118667Y-96994286D01*
X176071048Y-96803810D01*
X176071048Y-96660952D01*
X176118667Y-96470476D01*
X176166286Y-96375238D01*
X176261524Y-96280000D01*
X176404382Y-96232381D01*
X176499620Y-96232381D01*
X176642477Y-96280000D01*
X176690096Y-96327619D01*
X174761524Y-94597143D02*
X174713905Y-94644762D01*
X174571048Y-94692381D01*
X174475810Y-94692381D01*
X174332952Y-94644762D01*
X174237714Y-94549524D01*
X174190095Y-94454286D01*
X174142476Y-94263810D01*
X174142476Y-94120952D01*
X174190095Y-93930476D01*
X174237714Y-93835238D01*
X174332952Y-93740000D01*
X174475810Y-93692381D01*
X174571048Y-93692381D01*
X174713905Y-93740000D01*
X174761524Y-93787619D01*
X175190095Y-94692381D02*
X175190095Y-93692381D01*
X175190095Y-94168571D02*
X175761524Y-94168571D01*
X175761524Y-94692381D02*
X175761524Y-93692381D01*
X176761524Y-94692381D02*
X176190095Y-94692381D01*
X176475809Y-94692381D02*
X176475809Y-93692381D01*
X176380571Y-93835238D01*
X176285333Y-93930476D01*
X176190095Y-93978095D01*
X174761524Y-92057143D02*
X174713905Y-92104762D01*
X174571048Y-92152381D01*
X174475810Y-92152381D01*
X174332952Y-92104762D01*
X174237714Y-92009524D01*
X174190095Y-91914286D01*
X174142476Y-91723810D01*
X174142476Y-91580952D01*
X174190095Y-91390476D01*
X174237714Y-91295238D01*
X174332952Y-91200000D01*
X174475810Y-91152381D01*
X174571048Y-91152381D01*
X174713905Y-91200000D01*
X174761524Y-91247619D01*
X175190095Y-92152381D02*
X175190095Y-91152381D01*
X175190095Y-91628571D02*
X175761524Y-91628571D01*
X175761524Y-92152381D02*
X175761524Y-91152381D01*
X176190095Y-91247619D02*
X176237714Y-91200000D01*
X176332952Y-91152381D01*
X176571048Y-91152381D01*
X176666286Y-91200000D01*
X176713905Y-91247619D01*
X176761524Y-91342857D01*
X176761524Y-91438095D01*
X176713905Y-91580952D01*
X176142476Y-92152381D01*
X176761524Y-92152381D01*
X174761524Y-89517143D02*
X174713905Y-89564762D01*
X174571048Y-89612381D01*
X174475810Y-89612381D01*
X174332952Y-89564762D01*
X174237714Y-89469524D01*
X174190095Y-89374286D01*
X174142476Y-89183810D01*
X174142476Y-89040952D01*
X174190095Y-88850476D01*
X174237714Y-88755238D01*
X174332952Y-88660000D01*
X174475810Y-88612381D01*
X174571048Y-88612381D01*
X174713905Y-88660000D01*
X174761524Y-88707619D01*
X175190095Y-89612381D02*
X175190095Y-88612381D01*
X175190095Y-89088571D02*
X175761524Y-89088571D01*
X175761524Y-89612381D02*
X175761524Y-88612381D01*
X176142476Y-88612381D02*
X176761524Y-88612381D01*
X176428190Y-88993333D01*
X176571048Y-88993333D01*
X176666286Y-89040952D01*
X176713905Y-89088571D01*
X176761524Y-89183810D01*
X176761524Y-89421905D01*
X176713905Y-89517143D01*
X176666286Y-89564762D01*
X176571048Y-89612381D01*
X176285333Y-89612381D01*
X176190095Y-89564762D01*
X176142476Y-89517143D01*
X173753524Y-86120000D02*
X173658286Y-86072381D01*
X173515429Y-86072381D01*
X173372571Y-86120000D01*
X173277333Y-86215238D01*
X173229714Y-86310476D01*
X173182095Y-86500952D01*
X173182095Y-86643810D01*
X173229714Y-86834286D01*
X173277333Y-86929524D01*
X173372571Y-87024762D01*
X173515429Y-87072381D01*
X173610667Y-87072381D01*
X173753524Y-87024762D01*
X173801143Y-86977143D01*
X173801143Y-86643810D01*
X173610667Y-86643810D01*
X174229714Y-87072381D02*
X174229714Y-86072381D01*
X174801143Y-87072381D01*
X174801143Y-86072381D01*
X175277333Y-87072381D02*
X175277333Y-86072381D01*
X175515428Y-86072381D01*
X175658286Y-86120000D01*
X175753524Y-86215238D01*
X175801143Y-86310476D01*
X175848762Y-86500952D01*
X175848762Y-86643810D01*
X175801143Y-86834286D01*
X175753524Y-86929524D01*
X175658286Y-87024762D01*
X175515428Y-87072381D01*
X175277333Y-87072381D01*
X176229714Y-86786667D02*
X176705905Y-86786667D01*
X176134476Y-87072381D02*
X176467809Y-86072381D01*
X176801143Y-87072381D01*
X174729810Y-84532381D02*
X174729810Y-83532381D01*
X175158381Y-84484762D02*
X175301238Y-84532381D01*
X175539334Y-84532381D01*
X175634572Y-84484762D01*
X175682191Y-84437143D01*
X175729810Y-84341905D01*
X175729810Y-84246667D01*
X175682191Y-84151429D01*
X175634572Y-84103810D01*
X175539334Y-84056190D01*
X175348857Y-84008571D01*
X175253619Y-83960952D01*
X175206000Y-83913333D01*
X175158381Y-83818095D01*
X175158381Y-83722857D01*
X175206000Y-83627619D01*
X175253619Y-83580000D01*
X175348857Y-83532381D01*
X175586953Y-83532381D01*
X175729810Y-83580000D01*
X176158381Y-84532381D02*
X176158381Y-83532381D01*
X176539334Y-83532381D01*
X176634572Y-83580000D01*
X176682191Y-83627619D01*
X176729810Y-83722857D01*
X176729810Y-83865714D01*
X176682191Y-83960952D01*
X176634572Y-84008571D01*
X176539334Y-84056190D01*
X176158381Y-84056190D01*
X173237619Y-81992381D02*
X172904285Y-81516190D01*
X172666190Y-81992381D02*
X172666190Y-80992381D01*
X173047143Y-80992381D01*
X173142381Y-81040000D01*
X173190000Y-81087619D01*
X173237619Y-81182857D01*
X173237619Y-81325714D01*
X173190000Y-81420952D01*
X173142381Y-81468571D01*
X173047143Y-81516190D01*
X172666190Y-81516190D01*
X173666190Y-81468571D02*
X173999524Y-81468571D01*
X174142381Y-81992381D02*
X173666190Y-81992381D01*
X173666190Y-80992381D01*
X174142381Y-80992381D01*
X174523333Y-81944762D02*
X174666190Y-81992381D01*
X174904286Y-81992381D01*
X174999524Y-81944762D01*
X175047143Y-81897143D01*
X175094762Y-81801905D01*
X175094762Y-81706667D01*
X175047143Y-81611429D01*
X174999524Y-81563810D01*
X174904286Y-81516190D01*
X174713809Y-81468571D01*
X174618571Y-81420952D01*
X174570952Y-81373333D01*
X174523333Y-81278095D01*
X174523333Y-81182857D01*
X174570952Y-81087619D01*
X174618571Y-81040000D01*
X174713809Y-80992381D01*
X174951905Y-80992381D01*
X175094762Y-81040000D01*
X175523333Y-81468571D02*
X175856667Y-81468571D01*
X175999524Y-81992381D02*
X175523333Y-81992381D01*
X175523333Y-80992381D01*
X175999524Y-80992381D01*
X176285238Y-80992381D02*
X176856667Y-80992381D01*
X176570952Y-81992381D02*
X176570952Y-80992381D01*
D12*
X177865239Y-129577714D02*
X177827144Y-129615810D01*
X177712858Y-129653905D01*
X177636668Y-129653905D01*
X177522382Y-129615810D01*
X177446191Y-129539619D01*
X177408096Y-129463429D01*
X177370001Y-129311048D01*
X177370001Y-129196762D01*
X177408096Y-129044381D01*
X177446191Y-128968190D01*
X177522382Y-128892000D01*
X177636668Y-128853905D01*
X177712858Y-128853905D01*
X177827144Y-128892000D01*
X177865239Y-128930095D01*
X178208096Y-129653905D02*
X178208096Y-128853905D01*
X178550953Y-129425333D02*
X178931905Y-129425333D01*
X178474762Y-129653905D02*
X178741429Y-128853905D01*
X179008096Y-129653905D01*
X179236667Y-129425333D02*
X179617619Y-129425333D01*
X179160476Y-129653905D02*
X179427143Y-128853905D01*
X179693810Y-129653905D01*
X179960476Y-129349143D02*
X180570000Y-129349143D01*
X180950952Y-129653905D02*
X180950952Y-128853905D01*
X181255714Y-128853905D01*
X181331905Y-128892000D01*
X181370000Y-128930095D01*
X181408095Y-129006286D01*
X181408095Y-129120571D01*
X181370000Y-129196762D01*
X181331905Y-129234857D01*
X181255714Y-129272952D01*
X180950952Y-129272952D01*
X182170000Y-129653905D02*
X181712857Y-129653905D01*
X181941428Y-129653905D02*
X181941428Y-128853905D01*
X181865238Y-128968190D01*
X181789047Y-129044381D01*
X181712857Y-129082476D01*
D16*
X172690000Y-79071429D02*
X173451905Y-79071429D01*
X173070953Y-79452381D02*
X173070953Y-78690476D01*
X173832857Y-78452381D02*
X174451905Y-78452381D01*
X174118571Y-78833333D01*
X174261429Y-78833333D01*
X174356667Y-78880952D01*
X174404286Y-78928571D01*
X174451905Y-79023810D01*
X174451905Y-79261905D01*
X174404286Y-79357143D01*
X174356667Y-79404762D01*
X174261429Y-79452381D01*
X173975714Y-79452381D01*
X173880476Y-79404762D01*
X173832857Y-79357143D01*
X174880476Y-79357143D02*
X174928095Y-79404762D01*
X174880476Y-79452381D01*
X174832857Y-79404762D01*
X174880476Y-79357143D01*
X174880476Y-79452381D01*
X175261428Y-78452381D02*
X175880476Y-78452381D01*
X175547142Y-78833333D01*
X175690000Y-78833333D01*
X175785238Y-78880952D01*
X175832857Y-78928571D01*
X175880476Y-79023810D01*
X175880476Y-79261905D01*
X175832857Y-79357143D01*
X175785238Y-79404762D01*
X175690000Y-79452381D01*
X175404285Y-79452381D01*
X175309047Y-79404762D01*
X175261428Y-79357143D01*
X176166190Y-78452381D02*
X176499523Y-79452381D01*
X176832857Y-78452381D01*
D11*
X166076334Y-116100381D02*
X165743000Y-115624190D01*
X165504905Y-116100381D02*
X165504905Y-115100381D01*
X165885858Y-115100381D01*
X165981096Y-115148000D01*
X166028715Y-115195619D01*
X166076334Y-115290857D01*
X166076334Y-115433714D01*
X166028715Y-115528952D01*
X165981096Y-115576571D01*
X165885858Y-115624190D01*
X165504905Y-115624190D01*
X167028715Y-116100381D02*
X166457286Y-116100381D01*
X166743000Y-116100381D02*
X166743000Y-115100381D01*
X166647762Y-115243238D01*
X166552524Y-115338476D01*
X166457286Y-115386095D01*
X151152381Y-106846666D02*
X150676190Y-107180000D01*
X151152381Y-107418095D02*
X150152381Y-107418095D01*
X150152381Y-107037142D01*
X150200000Y-106941904D01*
X150247619Y-106894285D01*
X150342857Y-106846666D01*
X150485714Y-106846666D01*
X150580952Y-106894285D01*
X150628571Y-106941904D01*
X150676190Y-107037142D01*
X150676190Y-107418095D01*
X150247619Y-106465714D02*
X150200000Y-106418095D01*
X150152381Y-106322857D01*
X150152381Y-106084761D01*
X150200000Y-105989523D01*
X150247619Y-105941904D01*
X150342857Y-105894285D01*
X150438095Y-105894285D01*
X150580952Y-105941904D01*
X151152381Y-106513333D01*
X151152381Y-105894285D01*
X139517381Y-113958666D02*
X139041190Y-114292000D01*
X139517381Y-114530095D02*
X138517381Y-114530095D01*
X138517381Y-114149142D01*
X138565000Y-114053904D01*
X138612619Y-114006285D01*
X138707857Y-113958666D01*
X138850714Y-113958666D01*
X138945952Y-114006285D01*
X138993571Y-114053904D01*
X139041190Y-114149142D01*
X139041190Y-114530095D01*
X138517381Y-113625333D02*
X138517381Y-113006285D01*
X138898333Y-113339619D01*
X138898333Y-113196761D01*
X138945952Y-113101523D01*
X138993571Y-113053904D01*
X139088810Y-113006285D01*
X139326905Y-113006285D01*
X139422143Y-113053904D01*
X139469762Y-113101523D01*
X139517381Y-113196761D01*
X139517381Y-113482476D01*
X139469762Y-113577714D01*
X139422143Y-113625333D01*
X162377381Y-94146666D02*
X161901190Y-94480000D01*
X162377381Y-94718095D02*
X161377381Y-94718095D01*
X161377381Y-94337142D01*
X161425000Y-94241904D01*
X161472619Y-94194285D01*
X161567857Y-94146666D01*
X161710714Y-94146666D01*
X161805952Y-94194285D01*
X161853571Y-94241904D01*
X161901190Y-94337142D01*
X161901190Y-94718095D01*
X161710714Y-93289523D02*
X162377381Y-93289523D01*
X161329762Y-93527619D02*
X162044048Y-93765714D01*
X162044048Y-93146666D01*
X167203381Y-93892666D02*
X166727190Y-94226000D01*
X167203381Y-94464095D02*
X166203381Y-94464095D01*
X166203381Y-94083142D01*
X166251000Y-93987904D01*
X166298619Y-93940285D01*
X166393857Y-93892666D01*
X166536714Y-93892666D01*
X166631952Y-93940285D01*
X166679571Y-93987904D01*
X166727190Y-94083142D01*
X166727190Y-94464095D01*
X166203381Y-92987904D02*
X166203381Y-93464095D01*
X166679571Y-93511714D01*
X166631952Y-93464095D01*
X166584333Y-93368857D01*
X166584333Y-93130761D01*
X166631952Y-93035523D01*
X166679571Y-92987904D01*
X166774810Y-92940285D01*
X167012905Y-92940285D01*
X167108143Y-92987904D01*
X167155762Y-93035523D01*
X167203381Y-93130761D01*
X167203381Y-93368857D01*
X167155762Y-93464095D01*
X167108143Y-93511714D01*
X159472334Y-110942381D02*
X159139000Y-110466190D01*
X158900905Y-110942381D02*
X158900905Y-109942381D01*
X159281858Y-109942381D01*
X159377096Y-109990000D01*
X159424715Y-110037619D01*
X159472334Y-110132857D01*
X159472334Y-110275714D01*
X159424715Y-110370952D01*
X159377096Y-110418571D01*
X159281858Y-110466190D01*
X158900905Y-110466190D01*
X160329477Y-109942381D02*
X160139000Y-109942381D01*
X160043762Y-109990000D01*
X159996143Y-110037619D01*
X159900905Y-110180476D01*
X159853286Y-110370952D01*
X159853286Y-110751905D01*
X159900905Y-110847143D01*
X159948524Y-110894762D01*
X160043762Y-110942381D01*
X160234239Y-110942381D01*
X160329477Y-110894762D01*
X160377096Y-110847143D01*
X160424715Y-110751905D01*
X160424715Y-110513810D01*
X160377096Y-110418571D01*
X160329477Y-110370952D01*
X160234239Y-110323333D01*
X160043762Y-110323333D01*
X159948524Y-110370952D01*
X159900905Y-110418571D01*
X159853286Y-110513810D01*
X166076334Y-110815381D02*
X165743000Y-110339190D01*
X165504905Y-110815381D02*
X165504905Y-109815381D01*
X165885858Y-109815381D01*
X165981096Y-109863000D01*
X166028715Y-109910619D01*
X166076334Y-110005857D01*
X166076334Y-110148714D01*
X166028715Y-110243952D01*
X165981096Y-110291571D01*
X165885858Y-110339190D01*
X165504905Y-110339190D01*
X166409667Y-109815381D02*
X167076334Y-109815381D01*
X166647762Y-110815381D01*
X156232381Y-106846666D02*
X155756190Y-107180000D01*
X156232381Y-107418095D02*
X155232381Y-107418095D01*
X155232381Y-107037142D01*
X155280000Y-106941904D01*
X155327619Y-106894285D01*
X155422857Y-106846666D01*
X155565714Y-106846666D01*
X155660952Y-106894285D01*
X155708571Y-106941904D01*
X155756190Y-107037142D01*
X155756190Y-107418095D01*
X155660952Y-106275238D02*
X155613333Y-106370476D01*
X155565714Y-106418095D01*
X155470476Y-106465714D01*
X155422857Y-106465714D01*
X155327619Y-106418095D01*
X155280000Y-106370476D01*
X155232381Y-106275238D01*
X155232381Y-106084761D01*
X155280000Y-105989523D01*
X155327619Y-105941904D01*
X155422857Y-105894285D01*
X155470476Y-105894285D01*
X155565714Y-105941904D01*
X155613333Y-105989523D01*
X155660952Y-106084761D01*
X155660952Y-106275238D01*
X155708571Y-106370476D01*
X155756190Y-106418095D01*
X155851429Y-106465714D01*
X156041905Y-106465714D01*
X156137143Y-106418095D01*
X156184762Y-106370476D01*
X156232381Y-106275238D01*
X156232381Y-106084761D01*
X156184762Y-105989523D01*
X156137143Y-105941904D01*
X156041905Y-105894285D01*
X155851429Y-105894285D01*
X155756190Y-105941904D01*
X155708571Y-105989523D01*
X155660952Y-106084761D01*
X164790381Y-123928095D02*
X163790381Y-123928095D01*
X163790381Y-123690000D01*
X163838000Y-123547142D01*
X163933238Y-123451904D01*
X164028476Y-123404285D01*
X164218952Y-123356666D01*
X164361810Y-123356666D01*
X164552286Y-123404285D01*
X164647524Y-123451904D01*
X164742762Y-123547142D01*
X164790381Y-123690000D01*
X164790381Y-123928095D01*
X164790381Y-122404285D02*
X164790381Y-122975714D01*
X164790381Y-122690000D02*
X163790381Y-122690000D01*
X163933238Y-122785238D01*
X164028476Y-122880476D01*
X164076095Y-122975714D01*
X167584381Y-88241095D02*
X166584381Y-88241095D01*
X166584381Y-88003000D01*
X166632000Y-87860142D01*
X166727238Y-87764904D01*
X166822476Y-87717285D01*
X167012952Y-87669666D01*
X167155810Y-87669666D01*
X167346286Y-87717285D01*
X167441524Y-87764904D01*
X167536762Y-87860142D01*
X167584381Y-88003000D01*
X167584381Y-88241095D01*
X166679619Y-87288714D02*
X166632000Y-87241095D01*
X166584381Y-87145857D01*
X166584381Y-86907761D01*
X166632000Y-86812523D01*
X166679619Y-86764904D01*
X166774857Y-86717285D01*
X166870095Y-86717285D01*
X167012952Y-86764904D01*
X167584381Y-87336333D01*
X167584381Y-86717285D01*
X162250381Y-88241095D02*
X161250381Y-88241095D01*
X161250381Y-88003000D01*
X161298000Y-87860142D01*
X161393238Y-87764904D01*
X161488476Y-87717285D01*
X161678952Y-87669666D01*
X161821810Y-87669666D01*
X162012286Y-87717285D01*
X162107524Y-87764904D01*
X162202762Y-87860142D01*
X162250381Y-88003000D01*
X162250381Y-88241095D01*
X161250381Y-87336333D02*
X161250381Y-86717285D01*
X161631333Y-87050619D01*
X161631333Y-86907761D01*
X161678952Y-86812523D01*
X161726571Y-86764904D01*
X161821810Y-86717285D01*
X162059905Y-86717285D01*
X162155143Y-86764904D01*
X162202762Y-86812523D01*
X162250381Y-86907761D01*
X162250381Y-87193476D01*
X162202762Y-87288714D01*
X162155143Y-87336333D01*
D20*
X151746858Y-127435429D02*
X152109715Y-128959429D01*
X152400001Y-127870857D01*
X152690287Y-128959429D01*
X153053144Y-127435429D01*
X153633715Y-128959429D02*
X153633715Y-127435429D01*
X154867429Y-128161143D02*
X154359429Y-128161143D01*
X154359429Y-128959429D02*
X154359429Y-127435429D01*
X155085143Y-127435429D01*
X155665715Y-128959429D02*
X155665715Y-127435429D01*
X156391429Y-128378857D02*
X157552572Y-128378857D01*
X158786286Y-128161143D02*
X159004000Y-128233714D01*
X159076572Y-128306286D01*
X159149143Y-128451429D01*
X159149143Y-128669143D01*
X159076572Y-128814286D01*
X159004000Y-128886857D01*
X158858858Y-128959429D01*
X158278286Y-128959429D01*
X158278286Y-127435429D01*
X158786286Y-127435429D01*
X158931429Y-127508000D01*
X159004000Y-127580571D01*
X159076572Y-127725714D01*
X159076572Y-127870857D01*
X159004000Y-128016000D01*
X158931429Y-128088571D01*
X158786286Y-128161143D01*
X158278286Y-128161143D01*
X160528000Y-128959429D02*
X159802286Y-128959429D01*
X159802286Y-127435429D01*
X160818286Y-127435429D02*
X161689143Y-127435429D01*
X161253714Y-128959429D02*
X161253714Y-127435429D01*
X162197143Y-128959429D02*
X162197143Y-127435429D01*
X162197143Y-128161143D02*
X163068000Y-128161143D01*
X163068000Y-128959429D02*
X163068000Y-127435429D01*
M02*
